if (_typeface_js && _typeface_js.loadFace) _typeface_js.loadFace({"glyphs":{"0":{"ha":708,"x_min":35,"x_max":679,"o":"m 35 471 q 74 741 35 627 q 186 915 113 854 q 355 975 259 975 q 491 941 432 975 q 593 842 551 907 q 657 685 635 777 q 679 476 679 593 q 639 212 679 324 q 527 41 600 100 q 355 -18 454 -18 q 222 16 282 -18 q 120 116 162 51 q 56 270 78 181 q 35 471 35 359 m 250 928 q 142 831 184 893 q 78 679 99 768 q 57 469 57 589 q 69 315 57 385 q 105 188 81 244 q 165 92 130 132 q 250 25 201 53 q 102 471 102 191 q 138 733 102 620 q 250 928 175 847 m 210 486 q 224 223 210 326 q 271 71 238 121 q 357 20 303 20 q 445 71 411 20 q 493 224 478 122 q 509 482 509 326 q 472 827 509 717 q 353 937 435 937 q 245 825 281 937 q 210 486 210 712 m 432 932 q 491 845 470 897 q 521 708 512 793 q 530 486 530 623 q 523 272 530 356 q 496 130 515 187 q 444 33 477 73 q 550 187 520 85 q 579 468 579 290 q 572 639 579 568 q 547 767 565 710 q 502 864 530 823 q 432 932 474 904 z "},"1":{"ha":593,"x_min":103,"x_max":497,"o":"m 378 975 l 378 182 q 380 113 378 136 q 393 75 383 90 q 428 51 404 59 q 497 37 452 43 l 497 0 l 103 0 l 103 37 q 176 51 151 41 q 211 83 200 61 q 222 146 222 106 l 222 165 l 222 729 q 193 801 222 782 q 103 825 164 820 l 103 875 q 251 904 197 880 q 342 975 304 929 l 378 975 m 244 710 l 244 178 q 233 81 244 104 q 187 37 221 57 q 271 68 253 40 q 289 157 289 97 l 289 733 q 266 816 289 788 q 204 844 242 844 q 181 842 194 844 q 163 839 168 840 q 230 798 215 827 q 244 710 244 768 z "},"2":{"ha":708,"x_min":56,"x_max":673,"o":"m 210 142 l 432 142 q 522 148 487 142 q 583 171 557 155 q 632 220 608 188 l 673 220 l 585 0 l 56 0 l 56 29 q 214 209 141 125 q 343 369 288 292 q 433 525 399 445 q 468 682 468 605 q 446 785 468 740 q 385 856 423 831 q 298 882 346 882 q 191 843 238 882 q 123 730 144 804 l 82 730 q 374 975 144 975 q 507 944 448 975 q 598 861 566 913 q 631 749 631 809 q 584 577 631 663 q 461 407 536 492 q 210 142 386 322 m 126 50 l 104 24 l 439 24 q 540 42 511 24 q 590 110 570 60 q 531 79 559 89 q 441 69 503 69 l 186 69 q 147 66 155 69 q 126 50 139 63 m 366 358 q 457 467 418 410 q 516 582 496 524 q 536 693 536 640 q 512 810 536 755 q 443 895 487 864 q 343 926 399 926 q 252 901 298 926 q 290 905 266 905 q 374 888 336 905 q 437 840 412 870 q 477 769 463 809 q 490 686 490 729 q 458 527 490 604 q 366 358 427 450 z "},"3":{"ha":708,"x_min":78,"x_max":616,"o":"m 616 313 q 572 155 616 233 q 448 30 528 78 q 271 -18 369 -18 q 171 2 214 -18 q 102 54 127 23 q 78 115 78 85 q 99 163 78 142 q 147 184 119 184 q 185 174 168 184 q 212 143 202 163 q 251 76 238 96 q 281 41 263 56 q 325 26 300 26 q 424 82 382 26 q 465 232 465 138 q 441 344 465 294 q 374 430 418 394 q 271 485 331 465 q 302 508 288 496 q 331 534 316 520 q 363 566 346 547 q 389 591 381 584 q 425 650 410 613 q 439 724 439 687 q 398 824 439 785 q 302 863 357 863 q 215 834 260 863 q 123 750 170 806 l 96 774 q 186 881 135 836 q 294 951 237 926 q 411 975 351 975 q 502 953 461 975 q 565 892 542 930 q 589 808 589 854 q 571 736 589 773 q 519 660 553 699 q 431 578 485 621 q 567 473 517 546 q 616 313 616 399 m 229 867 q 250 875 239 871 q 275 883 261 880 q 306 886 290 886 q 417 839 372 886 q 461 722 461 791 q 432 616 461 676 q 494 762 494 686 q 452 870 494 827 q 345 913 410 913 q 288 902 311 913 q 229 867 264 891 m 332 505 l 315 490 q 488 232 488 406 q 479 154 488 187 q 453 85 470 121 q 508 166 490 123 q 526 262 526 208 q 504 367 526 319 q 452 447 482 415 q 392 497 421 479 q 351 515 363 515 q 332 505 342 515 m 191 138 q 146 161 162 161 q 115 148 130 161 q 100 111 100 134 q 117 66 100 86 q 171 21 134 45 q 154 51 159 41 q 145 71 149 60 q 142 94 142 81 q 191 138 142 138 z "},"4":{"ha":708,"x_min":24,"x_max":690,"o":"m 489 321 l 489 -18 l 334 -18 l 334 321 l 24 321 l 24 366 l 457 975 l 489 975 l 489 386 l 690 386 l 690 321 l 489 321 m 355 5 l 400 5 l 400 829 l 355 766 l 355 5 m 86 386 l 334 386 l 334 734 l 86 386 z "},"5":{"ha":708,"x_min":79,"x_max":625,"o":"m 606 975 l 606 960 q 594 850 606 892 q 554 788 583 809 q 471 766 524 766 q 414 769 460 766 q 323 772 368 772 q 221 765 267 772 l 207 606 q 261 608 249 608 q 409 586 341 608 q 525 522 476 564 q 600 424 574 480 q 625 298 625 368 q 582 139 625 212 q 461 24 538 66 q 288 -18 385 -18 q 177 0 225 -18 q 104 48 129 18 q 79 111 79 79 q 99 157 79 138 q 144 176 118 176 q 183 164 163 176 q 212 135 203 152 q 268 50 246 73 q 334 26 289 26 q 450 80 401 26 q 498 215 498 134 q 424 384 498 319 q 235 449 349 449 q 191 447 214 449 q 157 443 169 444 l 186 916 q 311 925 240 925 q 398 924 347 925 q 464 922 450 922 q 528 925 509 922 q 559 940 548 928 q 571 975 570 951 l 606 975 m 221 835 l 221 791 q 296 796 252 796 q 385 793 335 796 q 456 790 435 790 q 533 806 511 790 q 559 857 554 822 q 452 836 512 836 q 411 838 433 837 q 371 839 389 838 q 342 840 354 840 q 309 840 331 840 q 221 835 248 840 m 200 511 l 200 472 l 227 472 q 352 452 296 472 q 444 397 407 432 q 501 315 481 361 q 521 218 521 269 q 468 65 521 141 q 553 252 553 152 q 511 384 553 323 q 397 479 469 445 q 243 514 325 514 q 200 511 222 514 m 180 139 q 142 153 161 153 q 113 140 123 153 q 102 109 102 127 q 200 12 102 49 q 157 61 170 42 q 144 97 144 80 q 154 123 144 112 q 180 139 163 134 z "},"6":{"ha":708,"x_min":41,"x_max":682,"o":"m 566 975 l 566 935 q 414 869 483 919 q 299 740 346 819 q 231 559 253 661 q 395 612 308 612 q 506 590 454 612 q 597 528 558 568 q 660 431 637 488 q 682 306 682 374 q 641 140 682 214 q 528 24 600 66 q 368 -18 456 -18 q 199 32 274 -18 q 83 175 125 83 q 41 387 41 267 q 68 592 41 503 q 153 757 94 681 q 268 870 202 821 q 409 946 334 919 q 566 975 484 972 m 450 936 q 305 872 368 911 q 182 757 242 833 q 64 400 64 606 q 165 90 64 205 q 219 42 197 54 q 288 11 240 30 q 188 110 227 54 q 128 238 148 165 q 109 397 109 310 q 149 617 109 513 q 267 802 190 721 q 450 936 343 884 m 208 319 q 219 190 208 245 q 253 96 231 135 q 303 38 275 56 q 367 20 332 20 q 438 50 406 20 q 488 143 469 80 q 507 293 507 205 q 465 494 507 425 q 347 562 422 562 q 245 499 281 562 q 208 319 208 437 m 385 578 q 468 525 437 559 q 514 432 500 490 q 529 285 529 374 q 520 170 529 218 q 494 90 511 123 q 447 29 477 58 q 543 126 512 61 q 574 300 574 192 q 527 498 574 430 q 385 578 480 566 z "},"7":{"ha":708,"x_min":41,"x_max":665,"o":"m 554 770 l 250 770 q 167 761 195 770 q 121 730 139 752 q 81 661 102 708 l 41 661 l 154 975 l 192 975 q 224 929 199 939 q 319 920 250 920 l 665 920 q 611 801 634 854 q 564 679 589 747 q 526 574 539 612 q 489 467 513 537 q 407 227 441 328 q 351 77 372 126 q 311 5 331 28 q 265 -18 291 -18 q 234 -4 245 -18 q 222 28 222 9 q 234 71 222 47 q 290 192 245 96 q 386 393 340 294 q 465 566 432 492 q 520 692 497 640 q 554 770 543 745 m 227 793 l 498 793 q 543 794 530 793 q 566 805 555 796 q 587 836 576 814 l 254 836 q 243 837 249 837 q 232 838 238 838 q 162 821 186 838 q 118 765 137 805 q 227 793 170 793 z "},"8":{"ha":708,"x_min":62,"x_max":659,"o":"m 83 725 q 118 849 83 791 q 215 941 153 907 q 353 975 276 975 q 487 944 427 975 q 579 860 547 912 q 611 750 611 808 q 592 666 611 702 q 535 599 572 629 q 447 543 498 569 q 602 413 545 479 q 659 249 659 347 q 617 116 659 177 q 505 19 576 54 q 347 -17 434 -17 q 199 16 264 -17 q 98 104 134 49 q 62 222 62 160 q 261 471 62 367 q 127 593 172 534 q 83 725 83 652 m 412 570 q 472 617 450 595 q 508 674 494 640 q 521 754 521 708 q 498 853 521 812 q 436 916 476 895 q 350 937 397 937 q 240 903 286 937 q 195 810 195 868 q 209 745 195 775 q 250 688 223 715 q 310 638 276 662 q 412 570 345 614 m 174 884 q 106 722 106 818 q 162 584 106 643 q 331 449 218 526 q 499 316 444 372 q 554 184 554 260 q 481 37 554 107 q 587 204 587 96 q 547 323 587 265 q 431 432 507 381 q 293 529 347 490 q 204 603 239 568 q 151 674 169 637 q 134 755 134 711 q 174 884 134 811 m 294 446 q 197 357 232 408 q 163 222 163 307 q 217 75 163 129 q 355 21 271 21 q 443 41 402 21 q 508 98 484 62 q 532 179 532 134 q 512 262 532 226 q 459 329 492 299 q 384 387 427 358 q 294 446 340 415 z "},"9":{"ha":708,"x_min":26,"x_max":669,"o":"m 142 -18 l 142 20 q 300 87 234 39 q 408 214 366 135 q 478 406 451 293 q 397 362 438 375 q 301 350 356 350 q 162 388 225 350 q 63 493 99 425 q 26 648 26 561 q 68 820 26 745 q 181 935 109 895 q 339 975 254 975 q 472 944 412 975 q 577 856 533 913 q 645 722 621 799 q 669 551 669 646 q 625 321 669 426 q 505 139 581 216 q 334 22 429 62 q 142 -18 239 -19 m 302 64 q 417 138 368 92 q 500 251 467 184 q 552 404 534 317 q 570 595 570 491 q 562 714 570 661 q 536 809 553 767 q 492 880 518 851 q 428 926 465 909 q 503 805 483 872 q 524 628 524 737 q 469 288 524 430 q 302 64 414 146 m 200 659 q 242 462 200 530 q 355 395 283 395 q 463 459 424 395 q 501 647 501 524 q 480 805 501 739 q 423 904 459 871 q 342 937 387 937 q 269 906 301 937 q 218 812 237 876 q 200 659 200 749 m 250 375 q 92 657 92 471 q 233 936 92 822 q 96 822 142 899 q 49 650 49 745 q 71 531 49 587 q 127 440 92 475 q 250 375 171 399 z "}," ":{"ha":347,"x_min":0,"x_max":0,"o":""},"!":{"ha":334,"x_min":86,"x_max":254,"o":"m 220 593 l 186 279 l 147 279 l 107 653 q 87 842 87 820 q 110 942 87 909 q 171 975 132 975 q 230 945 208 975 q 253 857 253 916 q 238 725 253 817 q 220 593 224 633 m 160 386 l 167 386 q 174 488 174 435 q 163 710 174 577 q 153 864 153 843 q 193 947 153 931 q 172 951 187 951 q 128 924 146 951 q 110 864 110 897 q 112 822 110 847 q 118 767 114 796 q 123 724 122 737 l 160 386 m 170 154 q 212 142 193 154 q 243 111 231 131 q 254 68 254 92 q 230 7 254 33 q 170 -18 205 -18 q 111 7 135 -18 q 86 68 86 33 q 110 129 86 104 q 170 154 134 154 m 180 129 l 170 129 q 128 113 148 129 q 109 68 109 97 q 129 24 109 41 q 180 11 150 7 q 169 26 176 16 q 158 47 162 35 q 154 72 154 58 q 180 129 154 102 z "},"\"":{"ha":607,"x_min":62,"x_max":547,"o":"m 81 536 l 81 581 q 148 632 120 599 q 175 701 175 665 q 160 754 175 731 q 118 803 146 777 q 75 853 87 836 q 62 897 62 870 q 87 951 62 928 q 147 975 113 975 q 207 953 178 975 q 254 891 235 931 q 272 802 272 850 q 224 646 272 713 q 81 536 176 578 m 179 639 q 220 745 220 691 q 201 810 220 787 q 137 887 146 876 q 127 909 127 899 q 154 951 127 936 l 139 951 q 99 935 113 951 q 85 899 85 919 q 92 871 85 885 q 111 846 99 858 q 140 815 122 833 q 182 764 167 789 q 197 707 197 739 q 195 684 197 695 q 186 659 192 673 q 179 639 181 645 m 355 536 l 355 581 q 422 632 395 600 q 449 701 449 665 q 434 755 449 732 q 393 803 419 779 q 350 853 362 836 q 338 897 338 870 q 363 952 338 928 q 422 975 389 975 q 481 953 452 975 q 529 891 510 931 q 547 802 547 850 q 355 536 547 620 m 454 639 q 494 745 494 688 q 476 810 494 788 q 429 866 444 848 q 409 892 414 883 q 403 909 403 901 q 407 929 403 922 q 418 943 412 937 q 429 951 425 948 l 414 951 q 374 935 388 951 q 359 899 359 919 q 363 879 359 889 q 378 855 367 869 q 397 833 390 840 q 414 817 404 827 q 456 765 441 791 q 471 707 471 740 q 454 639 471 680 z "},"#":{"ha":694,"x_min":27,"x_max":667,"o":"m 61 -19 l 119 269 l 27 269 l 27 359 l 137 359 l 177 557 l 27 557 l 27 645 l 195 645 l 254 939 l 343 939 l 283 645 l 484 645 l 542 939 l 631 939 l 572 645 l 667 645 l 667 557 l 555 557 l 514 359 l 667 359 l 667 269 l 497 269 l 439 -19 l 349 -19 l 407 269 l 210 269 l 149 -19 l 61 -19 m 227 359 l 427 359 l 466 557 l 267 557 l 227 359 z "},"$":{"ha":708,"x_min":56,"x_max":656,"o":"m 313 978 l 390 978 l 390 939 q 494 918 448 935 q 570 876 540 901 q 615 822 600 851 q 631 764 631 793 q 612 717 631 737 q 567 697 593 697 q 523 714 543 697 q 498 753 503 731 q 482 833 488 813 q 455 872 476 853 q 390 897 435 890 l 390 562 q 509 486 458 524 q 591 411 559 448 q 639 333 623 374 q 656 249 656 292 q 627 133 656 186 q 539 42 599 80 q 390 -14 480 4 l 390 -150 l 313 -150 l 313 -14 q 125 43 194 -9 q 56 167 56 96 q 75 217 56 198 q 122 236 95 236 q 163 225 147 236 q 188 196 178 214 q 209 146 198 178 q 227 86 219 114 q 255 51 232 69 q 313 26 277 33 l 313 414 q 131 553 189 484 q 74 704 74 623 q 101 811 74 761 q 183 896 129 861 q 313 939 237 930 l 313 978 m 180 33 q 146 72 159 56 q 124 107 134 88 q 115 146 115 127 q 129 177 115 163 q 167 187 143 190 q 122 212 146 212 q 90 199 102 212 q 78 165 78 186 q 92 112 78 136 q 128 69 106 87 q 180 33 150 51 m 390 367 l 390 29 q 464 56 432 36 q 512 107 495 76 q 529 176 529 138 q 494 278 529 236 q 390 367 459 321 m 490 49 q 562 118 538 83 q 586 204 586 153 q 566 289 586 252 q 507 360 547 326 q 415 428 468 394 q 253 530 362 462 q 163 620 196 567 q 131 729 131 673 q 140 788 131 761 q 163 836 149 816 q 203 882 178 857 q 124 807 153 850 q 96 705 96 765 q 131 589 96 640 q 235 490 166 538 q 439 358 304 441 q 499 307 474 336 q 538 243 524 278 q 551 175 551 209 q 490 49 551 102 m 313 612 l 313 897 q 219 852 251 885 q 187 774 187 820 q 216 692 187 728 q 313 612 245 656 m 485 868 q 511 796 502 840 q 527 736 519 752 q 564 721 534 721 q 610 762 604 721 q 600 759 608 762 q 587 755 593 755 q 560 765 570 755 q 538 801 551 774 q 515 843 526 827 q 485 868 504 859 z "},"%":{"ha":1317,"x_min":35,"x_max":1280,"o":"m 375 -35 l 301 -35 l 940 978 l 1011 978 l 375 -35 m 1280 218 q 1246 86 1280 145 q 1147 -5 1211 27 q 997 -37 1083 -37 q 846 -5 909 -37 q 749 85 783 27 q 715 220 715 144 q 750 353 715 294 q 848 443 784 412 q 994 475 911 475 q 1117 456 1063 475 q 1207 403 1171 437 q 1262 321 1243 369 q 1280 218 1280 274 m 1065 432 q 1103 381 1088 412 q 1125 310 1118 351 q 1132 212 1132 269 q 1125 119 1132 159 q 1103 51 1118 79 q 1065 0 1088 22 q 1148 83 1120 31 q 1177 214 1177 134 q 1164 311 1177 268 q 1126 386 1152 355 q 1065 432 1101 416 m 1109 210 q 1083 378 1109 326 q 999 431 1057 431 q 916 378 941 431 q 890 216 890 325 q 916 54 890 108 q 997 0 942 0 q 1109 210 1109 0 m 940 447 q 855 422 894 442 q 789 370 816 401 q 750 298 763 338 q 737 220 737 259 q 761 112 737 163 q 831 29 785 62 q 940 -8 877 -3 q 854 46 888 13 q 803 121 820 79 q 786 216 786 163 q 826 359 786 303 q 940 447 865 415 m 599 721 q 522 537 599 607 q 317 467 446 467 q 110 537 186 467 q 35 722 35 607 q 68 854 35 796 q 166 944 102 912 q 313 975 231 975 q 467 943 402 975 q 566 853 532 910 q 599 721 599 795 m 385 936 q 436 853 420 905 q 452 718 452 801 q 436 590 452 637 q 385 509 420 543 q 494 720 494 569 q 467 857 494 802 q 385 936 439 912 m 429 714 q 403 884 429 830 q 318 937 376 937 q 234 883 260 937 q 208 721 208 829 q 235 559 208 614 q 317 504 262 504 q 429 714 429 504 m 260 950 q 150 910 196 942 q 81 829 104 878 q 57 724 57 781 q 111 569 57 635 q 260 496 165 503 q 173 550 208 517 q 122 626 139 583 q 104 721 104 669 q 122 823 104 780 q 174 897 140 866 q 260 950 208 927 z "},"&":{"ha":1013,"x_min":43,"x_max":999,"o":"m 281 -18 q 158 14 212 -18 q 73 100 104 46 q 43 214 43 155 q 58 295 43 257 q 99 366 73 332 q 170 439 126 399 q 286 533 228 494 q 175 724 175 654 q 202 800 175 757 q 273 883 229 842 q 365 950 316 924 q 454 975 413 975 q 521 960 491 975 q 572 918 551 944 q 606 864 594 892 q 618 812 618 836 q 594 744 618 777 q 541 686 571 711 q 439 608 511 662 q 575 443 519 519 q 672 302 631 366 q 748 418 722 368 q 774 500 774 469 q 746 556 774 533 q 672 579 719 579 l 672 616 l 999 616 l 999 579 q 904 534 949 572 q 816 436 860 496 q 699 267 772 376 l 741 203 q 808 114 784 137 q 863 92 833 92 q 960 174 916 92 l 993 158 q 937 59 968 97 q 868 1 905 20 q 789 -18 830 -18 q 684 23 736 -18 q 590 135 632 64 q 436 22 519 62 q 281 -18 353 -18 m 889 579 l 749 579 q 796 501 796 556 q 794 492 796 497 q 793 482 793 486 q 889 579 832 545 m 513 726 q 541 793 541 759 q 520 851 541 822 q 469 900 499 880 q 411 920 438 920 q 359 905 393 920 q 437 873 401 903 q 495 807 473 844 q 517 751 517 770 q 516 743 517 745 q 515 736 515 740 q 513 726 514 733 m 412 636 q 494 742 494 696 q 473 800 494 765 q 421 860 452 834 q 363 885 391 885 q 307 860 331 885 q 282 810 282 835 q 292 772 282 791 q 324 727 302 753 q 367 682 347 702 q 412 636 387 663 m 904 52 q 836 36 867 36 q 744 66 785 36 q 675 136 703 96 q 567 290 646 175 q 456 439 507 377 q 339 576 405 500 q 248 689 273 651 q 224 762 224 728 q 239 814 224 777 q 197 722 197 762 q 222 652 197 690 q 312 539 246 615 q 429 402 378 464 q 534 258 480 341 q 605 152 576 197 q 663 75 635 108 q 724 24 692 42 q 794 5 757 5 q 904 52 851 5 m 567 168 q 519 240 553 190 q 459 327 485 291 q 393 411 433 362 q 313 503 353 460 q 217 400 246 446 q 187 301 187 355 q 217 196 187 247 q 295 114 246 145 q 397 82 344 82 q 567 168 491 82 m 335 9 q 167 88 231 23 q 103 249 103 153 q 112 311 103 288 q 143 380 120 334 q 85 304 106 342 q 65 215 65 267 q 96 107 65 155 q 176 32 127 59 q 278 5 226 5 q 335 9 302 5 z "},"'":{"ha":334,"x_min":62,"x_max":272,"o":"m 81 536 l 81 581 q 147 632 120 600 q 174 701 174 664 q 159 754 174 730 q 118 804 144 779 q 75 854 87 837 q 62 897 62 872 q 87 951 62 928 q 147 975 113 975 q 207 953 178 975 q 254 891 235 931 q 272 802 272 850 q 224 646 272 713 q 81 536 176 578 m 179 639 q 220 745 220 691 q 201 810 220 787 q 137 887 146 876 q 127 909 127 899 q 154 951 127 936 l 139 951 q 99 935 113 951 q 85 899 85 919 q 92 872 85 886 q 115 842 100 858 q 140 815 130 825 q 196 707 196 757 q 179 639 196 685 z "},"(":{"ha":449,"x_min":54,"x_max":415,"o":"m 415 -307 l 390 -335 q 267 -238 326 -300 q 159 -92 207 -176 q 83 96 111 -7 q 54 307 54 199 q 65 450 54 382 q 96 584 75 518 q 144 705 117 650 q 197 793 169 753 q 255 863 225 833 q 312 917 284 894 q 390 975 340 940 l 415 949 q 280 713 338 878 q 222 332 222 548 q 235 143 222 233 q 272 -30 248 52 q 332 -181 296 -111 q 415 -307 369 -252 m 345 914 q 229 795 278 862 q 144 648 179 728 q 93 483 110 568 q 77 306 77 397 q 94 138 77 219 q 148 -19 112 58 q 233 -161 183 -96 q 345 -281 282 -227 q 235 -118 281 -198 q 155 72 188 -39 q 122 311 122 182 q 180 632 122 470 q 345 914 239 793 z "},")":{"ha":449,"x_min":33,"x_max":395,"o":"m 57 -335 l 33 -307 q 134 -149 90 -243 q 200 61 177 -55 q 224 310 224 177 q 216 472 224 397 q 196 610 209 547 q 162 731 182 673 q 122 825 142 789 q 33 951 92 881 l 64 977 q 245 807 184 895 q 308 703 280 760 q 356 584 336 646 q 385 459 376 522 q 395 330 395 397 q 352 56 395 189 q 233 -177 309 -76 q 57 -335 156 -278 m 106 893 q 179 753 146 840 q 228 554 211 667 q 245 307 245 441 q 230 90 245 186 q 179 -93 214 -7 q 90 -265 145 -179 q 180 -155 143 -216 q 242 -23 218 -94 q 278 133 266 47 q 290 325 290 219 q 269 572 290 462 q 205 764 247 683 q 106 893 163 845 z "},"*":{"ha":652,"x_min":12,"x_max":639,"o":"m 146 627 q 46 648 81 627 q 12 711 12 670 q 34 764 12 743 q 89 785 56 785 q 155 768 126 785 q 231 714 184 751 q 309 663 277 677 q 299 715 308 688 q 276 779 290 743 q 256 836 262 815 q 250 880 250 856 q 272 940 250 917 q 319 962 294 962 q 375 940 352 962 q 399 878 399 918 q 394 832 399 854 q 380 787 389 810 q 360 731 372 763 q 342 663 349 699 q 419 712 369 673 q 499 768 469 751 q 567 786 530 786 q 618 765 597 786 q 639 714 639 744 q 604 651 639 673 q 504 629 570 629 q 428 632 467 631 q 354 625 388 633 q 444 559 383 603 q 526 491 504 516 q 547 433 547 466 q 526 385 547 406 q 476 363 505 363 q 410 396 432 363 q 367 502 389 429 q 326 608 345 574 q 296 528 313 583 q 267 440 279 473 q 232 383 254 406 q 178 359 211 359 q 125 381 148 359 q 103 433 103 403 q 127 497 103 471 q 208 561 152 523 q 294 625 263 598 q 248 629 279 629 q 199 628 234 629 q 146 627 163 627 m 318 663 l 326 663 q 330 705 330 681 q 322 783 330 727 q 314 868 314 840 q 338 939 314 912 l 322 939 q 288 922 303 939 q 272 872 272 906 q 281 822 272 851 q 297 771 290 793 q 312 722 305 748 q 318 668 318 695 l 318 663 m 350 648 l 350 642 q 411 660 378 646 q 477 690 444 673 q 536 715 511 706 q 585 725 561 725 q 616 718 600 725 q 600 751 614 740 q 564 762 586 762 q 508 749 530 762 q 435 698 486 735 q 350 648 384 661 m 343 619 l 338 615 q 384 553 353 587 q 438 495 415 519 q 477 445 460 471 q 493 392 493 419 l 492 385 q 525 433 525 403 q 499 487 525 464 q 416 553 473 511 q 343 619 359 596 m 314 615 l 309 619 q 261 556 284 597 q 223 487 238 516 q 187 434 208 458 q 136 400 167 411 q 175 383 156 383 q 229 414 212 383 q 269 514 246 445 q 314 615 291 583 m 301 640 l 301 647 q 193 677 260 665 q 94 699 125 690 q 43 737 62 709 q 35 713 35 725 q 62 668 35 686 q 138 650 89 650 q 178 651 155 650 q 225 653 201 653 q 256 651 243 653 q 280 646 269 648 q 301 640 292 643 z "},"+":{"ha":791,"x_min":27,"x_max":768,"o":"m 27 505 l 353 505 l 353 830 l 442 830 l 442 505 l 768 505 l 768 415 l 442 415 l 442 92 l 353 92 l 353 415 l 27 415 l 27 505 z "},",":{"ha":334,"x_min":66,"x_max":260,"o":"m 66 -297 l 66 -260 q 163 -122 163 -204 q 152 -71 163 -92 q 117 -17 140 -49 q 82 35 93 14 q 72 82 72 56 q 95 136 72 113 q 150 158 118 158 q 209 134 184 158 q 247 71 233 111 q 260 -11 260 31 q 235 -126 260 -69 q 165 -230 210 -184 q 66 -297 120 -275 m 175 125 q 146 135 155 135 q 109 120 123 135 q 94 81 94 104 q 103 41 94 56 q 137 -7 112 26 q 173 -64 161 -40 q 184 -122 184 -87 q 163 -196 184 -151 q 215 -79 215 -139 q 204 -28 215 -50 q 179 13 194 -5 q 151 50 165 31 q 138 86 138 70 q 147 110 138 102 q 175 125 156 118 z "},"-":{"ha":521,"x_min":72,"x_max":449,"o":"m 72 363 l 449 363 l 449 232 l 72 232 l 72 363 m 427 256 l 427 298 l 94 298 l 94 256 l 427 256 z "},".":{"ha":334,"x_min":87,"x_max":256,"o":"m 171 154 q 231 129 206 154 q 256 68 256 103 q 244 24 256 44 q 213 -7 232 5 q 171 -18 193 -18 q 112 7 136 -18 q 87 68 87 33 q 111 129 87 104 q 171 154 135 154 m 184 11 q 162 38 169 26 q 155 71 155 50 q 162 105 155 94 q 184 129 169 117 q 168 131 179 131 q 128 113 146 131 q 110 69 110 95 q 127 27 110 45 q 167 9 145 9 q 184 11 178 9 z "},"/":{"ha":737,"x_min":79,"x_max":659,"o":"m 79 -25 l 566 966 l 659 966 l 172 -25 l 79 -25 z "},":":{"ha":334,"x_min":87,"x_max":256,"o":"m 171 154 q 231 129 206 154 q 256 68 256 103 q 244 24 256 44 q 213 -7 232 5 q 171 -18 193 -18 q 112 7 136 -18 q 87 68 87 33 q 111 129 87 104 q 171 154 135 154 m 184 11 q 162 38 169 26 q 155 71 155 50 q 162 105 155 94 q 184 129 169 117 q 168 131 179 131 q 128 113 146 131 q 110 69 110 95 q 127 27 110 45 q 167 9 145 9 q 184 11 178 9 m 171 585 q 212 574 193 585 q 244 545 232 564 q 256 503 256 526 q 244 460 256 479 q 213 429 233 441 q 171 418 193 418 q 112 443 136 418 q 87 503 87 467 q 112 561 87 537 q 171 585 136 585 m 184 443 q 162 470 169 458 q 155 501 155 482 q 162 534 155 522 q 184 558 170 546 q 168 561 174 561 q 128 543 146 561 q 110 500 110 525 q 128 459 110 476 q 167 441 146 441 q 184 443 178 441 z "},";":{"ha":334,"x_min":66,"x_max":260,"o":"m 66 -297 l 66 -260 q 163 -122 163 -204 q 152 -71 163 -92 q 117 -17 140 -49 q 82 35 93 14 q 72 82 72 56 q 95 136 72 113 q 150 158 118 158 q 209 134 184 158 q 247 71 233 111 q 260 -11 260 31 q 235 -126 260 -69 q 165 -230 210 -184 q 66 -297 120 -275 m 175 125 q 146 135 155 135 q 109 120 123 135 q 94 81 94 104 q 103 41 94 56 q 137 -7 112 26 q 173 -64 161 -40 q 184 -122 184 -87 q 163 -196 184 -151 q 215 -79 215 -139 q 204 -28 215 -50 q 179 13 194 -5 q 151 50 165 31 q 138 86 138 70 q 147 110 138 102 q 175 125 156 118 m 170 585 q 212 574 192 585 q 243 545 231 564 q 254 503 254 526 q 243 460 254 479 q 212 429 231 441 q 170 418 193 418 q 110 442 135 418 q 85 503 85 467 q 96 545 85 526 q 127 574 108 564 q 170 585 147 585 m 183 443 q 161 470 168 458 q 154 501 154 482 q 161 534 154 522 q 183 558 168 546 q 168 561 170 561 q 129 543 146 561 q 111 500 111 526 q 128 459 111 477 q 167 441 145 441 q 183 443 176 441 z "},"<":{"ha":791,"x_min":28,"x_max":768,"o":"m 768 125 l 28 428 l 28 483 l 768 789 l 768 695 l 195 456 l 768 220 l 768 125 z "},"=":{"ha":791,"x_min":27,"x_max":769,"o":"m 27 613 l 769 613 l 769 525 l 27 525 l 27 613 m 27 391 l 769 391 l 769 303 l 27 303 l 27 391 z "},">":{"ha":791,"x_min":28,"x_max":768,"o":"m 28 789 l 768 487 l 768 431 l 28 125 l 28 220 l 601 458 l 28 694 l 28 789 z "},"?":{"ha":449,"x_min":82,"x_max":425,"o":"m 176 981 q 265 959 220 981 q 347 894 309 937 q 405 790 384 850 q 425 657 425 730 q 363 483 425 542 q 183 424 302 424 l 183 245 l 143 245 l 143 578 q 273 593 246 583 q 353 644 326 610 q 380 724 380 677 q 343 814 380 779 q 254 850 306 850 q 208 846 239 850 q 167 843 176 843 q 109 864 130 843 q 87 909 87 884 q 112 959 87 938 q 176 981 136 981 m 183 554 l 183 509 l 189 509 q 342 555 284 509 q 401 688 399 602 q 183 554 357 560 m 233 871 q 154 922 154 886 q 162 942 154 935 q 189 957 170 948 q 182 958 185 958 q 172 958 178 958 q 129 945 147 958 q 110 908 110 931 q 128 878 110 888 q 174 867 146 867 q 195 868 180 867 q 233 871 210 869 m 165 157 q 207 145 187 157 q 239 113 227 133 q 250 69 250 93 q 225 7 250 33 q 165 -18 201 -18 q 106 7 130 -18 q 82 69 82 33 q 106 131 82 106 q 165 157 130 157 m 176 132 q 163 134 171 134 q 122 115 140 134 q 104 71 104 96 q 123 27 104 44 q 176 9 142 11 q 150 71 150 43 q 176 132 150 102 z "},"@":{"ha":1156,"x_min":60,"x_max":1114,"o":"m 644 111 q 560 26 605 55 q 476 -2 515 -2 q 339 72 395 -2 q 272 302 272 161 q 320 525 272 416 q 434 684 368 633 q 563 735 500 735 q 653 704 609 735 q 729 610 697 673 l 747 715 l 848 715 l 767 260 q 751 155 751 166 q 762 123 751 136 q 789 111 774 111 q 874 158 819 111 q 966 296 929 205 q 1004 488 1004 387 q 951 706 1004 608 q 807 859 899 804 q 608 913 715 913 q 376 844 479 913 q 207 638 272 775 q 142 326 142 502 q 201 45 142 161 q 367 -132 259 -71 q 624 -192 475 -192 q 859 -136 758 -192 q 1013 13 960 -80 l 1114 13 q 1004 -144 1080 -69 q 836 -256 928 -219 q 623 -292 743 -292 q 325 -222 448 -292 q 131 -14 202 -151 q 60 317 60 123 q 138 689 60 522 q 335 934 216 856 q 613 1013 454 1013 q 852 947 746 1013 q 1022 759 958 882 q 1086 485 1086 635 q 968 127 1086 281 q 751 -3 869 -3 q 672 25 696 -3 q 644 111 649 52 m 375 294 q 412 150 375 201 q 495 98 449 98 q 582 138 534 98 q 663 262 629 178 q 697 439 697 346 q 659 584 697 534 q 568 634 621 634 q 485 599 526 634 q 409 473 443 564 q 375 294 375 382 z "},"A":{"ha":1013,"x_min":14,"x_max":996,"o":"m 677 167 l 602 361 l 281 361 l 236 245 q 218 154 218 201 q 247 74 218 109 q 328 37 276 39 l 328 0 l 14 0 l 14 37 q 183 218 119 53 l 418 819 q 379 862 399 851 q 319 878 359 873 l 319 911 l 482 966 l 545 966 l 859 165 q 913 74 886 98 q 996 37 940 50 l 996 0 l 593 0 l 593 37 q 671 54 645 43 q 697 96 697 64 q 677 167 697 123 m 297 404 l 585 404 l 440 770 l 297 404 m 739 192 l 497 806 q 460 871 479 852 q 408 890 441 890 q 376 888 389 890 q 426 852 409 875 q 457 790 442 829 l 697 176 q 720 92 720 122 q 712 63 720 72 q 682 37 705 54 l 697 37 q 746 54 729 37 q 764 94 764 71 q 739 192 764 127 m 86 37 l 216 37 q 174 121 174 71 q 175 143 174 135 q 138 85 157 109 q 86 37 119 62 z "},"B":{"ha":970,"x_min":41,"x_max":914,"o":"m 595 0 l 41 0 l 41 37 l 57 37 q 148 55 120 37 q 180 100 175 72 q 186 191 186 128 l 186 791 q 177 870 186 844 q 139 908 169 896 q 41 920 109 920 l 41 957 l 572 957 q 702 938 643 957 q 802 887 761 920 q 865 810 842 854 q 888 714 888 766 q 859 612 888 659 q 772 534 831 566 q 631 490 714 503 q 841 405 768 472 q 914 239 914 338 q 892 143 914 187 q 827 67 869 100 q 726 18 785 35 q 595 0 666 0 m 252 149 l 252 829 q 233 898 252 876 q 165 920 215 920 l 151 920 q 196 887 184 910 q 208 814 208 865 l 208 144 q 195 71 208 93 q 151 37 182 50 l 171 37 q 238 69 224 37 q 252 149 252 100 m 355 511 l 482 511 q 616 533 574 511 q 680 602 656 553 q 704 711 704 650 q 689 803 704 760 q 646 872 673 845 q 582 911 616 903 q 488 920 547 920 q 383 896 410 920 q 355 814 355 872 l 355 511 m 355 473 l 355 143 q 363 89 355 109 q 391 57 372 68 q 439 41 410 45 q 517 37 467 37 q 632 62 587 37 q 701 134 678 87 q 724 249 724 181 q 698 368 724 317 q 624 446 672 418 q 510 473 576 473 l 355 473 m 607 472 q 710 392 675 446 q 746 249 746 338 q 610 32 746 79 q 742 100 697 42 q 787 258 787 158 q 740 409 787 351 q 607 472 692 466 m 615 511 q 770 715 770 551 q 752 813 770 769 q 699 886 734 858 q 611 920 663 915 q 696 841 667 897 q 726 708 726 786 q 615 511 726 566 z "},"C":{"ha":1013,"x_min":61,"x_max":987,"o":"m 892 970 l 947 970 l 947 669 l 905 669 q 837 786 873 736 q 758 870 800 837 q 671 921 717 904 q 574 937 626 937 q 446 906 503 937 q 347 815 388 874 q 284 673 307 757 q 261 493 261 589 q 306 256 261 359 q 431 94 351 152 q 614 36 511 36 q 735 57 677 36 q 848 120 794 77 q 947 225 901 162 l 987 203 q 804 36 911 92 q 557 -20 696 -20 q 357 18 448 -20 q 199 124 265 56 q 97 283 132 193 q 61 473 61 373 q 100 675 61 582 q 207 836 138 768 q 365 939 275 903 q 555 975 454 975 q 626 969 593 975 q 705 951 659 964 q 766 936 750 939 q 803 932 782 932 q 892 970 857 932 m 865 799 l 861 914 q 794 900 829 900 q 762 903 777 900 q 820 851 797 876 q 865 799 843 827 m 418 940 q 245 844 313 900 q 177 771 207 812 q 126 684 147 730 q 95 585 106 638 q 83 481 83 532 q 134 255 83 359 q 283 84 184 152 q 521 0 383 16 q 356 70 431 24 q 230 180 282 116 q 152 320 178 245 q 126 478 126 396 q 149 621 126 546 q 211 753 171 695 q 305 859 257 819 q 418 940 353 899 z "},"D":{"ha":1186,"x_min":71,"x_max":1128,"o":"m 608 0 l 71 0 l 71 37 q 156 48 127 39 q 196 79 184 56 q 208 147 208 102 l 208 829 q 176 897 208 880 q 71 920 143 915 l 71 957 l 631 957 q 832 921 740 957 q 990 820 924 885 q 1092 665 1056 754 q 1128 472 1128 575 q 1091 284 1128 371 q 985 134 1054 198 q 819 35 916 71 q 608 0 722 0 m 275 143 l 275 770 q 260 883 275 850 q 183 917 245 916 q 221 880 212 902 q 231 812 231 858 l 231 160 q 226 94 231 118 q 212 58 221 71 q 183 37 202 46 q 255 62 235 37 q 275 143 275 87 m 379 724 l 379 176 q 387 91 379 117 q 426 51 395 64 q 525 37 456 37 q 657 53 599 37 q 768 106 715 68 q 866 202 831 151 q 917 320 901 254 q 933 468 933 387 q 791 831 933 710 q 667 899 735 879 q 505 920 598 920 q 415 901 441 920 q 384 847 389 882 q 379 724 379 812 m 696 37 q 852 97 783 46 q 961 241 921 148 q 1002 465 1002 335 q 982 636 1002 559 q 926 771 963 713 q 835 864 888 829 q 770 896 804 885 q 696 914 736 907 q 956 461 956 812 q 928 275 956 356 q 842 134 901 193 q 696 37 784 75 z "},"E":{"ha":970,"x_min":32,"x_max":951,"o":"m 351 473 l 351 175 q 358 98 351 125 q 385 57 366 71 q 439 41 404 44 q 536 37 475 37 q 670 60 611 37 q 782 127 730 83 q 897 245 835 172 l 951 245 l 867 0 l 32 0 l 32 37 q 124 48 92 39 q 169 78 155 57 q 182 139 182 100 l 182 810 q 170 879 182 857 q 128 908 157 901 q 32 920 99 916 l 32 957 l 833 957 l 916 741 l 867 741 q 771 830 827 790 q 644 895 714 871 q 496 920 574 920 q 403 906 434 920 q 361 869 372 893 q 351 807 351 846 l 351 511 l 488 511 q 668 675 666 511 l 715 675 l 715 315 l 673 315 q 627 436 665 398 q 510 473 589 473 l 351 473 m 799 37 l 846 155 q 773 91 806 112 q 681 37 741 69 l 799 37 m 660 429 l 660 562 q 564 496 633 517 q 623 471 601 486 q 660 429 644 457 m 770 920 l 647 920 q 737 879 698 903 q 821 822 777 855 l 770 920 m 204 804 l 204 149 q 193 76 204 99 q 158 37 181 53 q 231 67 214 38 q 248 160 248 96 l 248 817 q 228 893 248 874 q 158 913 208 911 q 194 877 183 899 q 204 804 204 854 z "},"F":{"ha":940,"x_min":45,"x_max":918,"o":"m 45 957 l 835 957 l 918 737 l 868 737 q 777 822 827 784 q 678 882 727 859 q 586 913 629 905 q 505 920 547 920 q 408 906 437 920 q 372 860 379 893 q 364 746 364 826 l 364 513 l 488 513 q 629 554 581 513 q 679 682 677 596 l 728 682 l 728 319 l 679 319 q 654 420 673 388 q 596 464 636 452 q 482 475 557 475 l 364 475 l 364 143 q 397 61 364 84 q 513 37 430 37 l 530 37 l 530 0 l 49 0 l 49 37 q 145 51 115 39 q 185 90 175 62 q 195 174 195 117 l 195 766 l 195 799 q 171 892 195 864 q 62 921 146 921 q 54 921 58 921 q 45 920 50 920 l 45 957 m 835 807 l 768 920 l 642 920 q 716 889 684 906 q 772 856 749 873 q 835 807 795 839 m 673 428 l 673 571 q 638 528 659 543 q 576 498 618 513 q 640 472 617 488 q 673 428 663 456 m 260 125 l 260 764 q 255 865 260 833 q 231 910 251 896 q 163 920 210 924 q 208 883 199 907 q 216 791 216 859 l 216 157 q 213 94 216 115 q 201 62 210 74 q 168 37 191 50 q 239 57 218 37 q 260 125 260 77 z "},"G":{"ha":1100,"x_min":56,"x_max":1082,"o":"m 935 970 l 946 671 l 909 671 q 839 785 878 734 q 758 867 800 835 q 669 915 715 899 q 574 930 623 930 q 407 873 480 930 q 293 713 334 815 q 253 478 253 610 q 297 243 253 347 q 417 83 342 140 q 582 26 493 26 q 679 47 634 26 q 747 100 724 67 q 771 154 766 125 q 777 227 777 183 q 769 322 777 295 q 735 361 762 350 q 642 378 708 372 l 642 416 l 1082 416 l 1082 378 q 988 362 1015 372 q 954 324 962 351 q 945 231 945 296 l 945 79 q 824 28 888 50 q 693 -6 759 6 q 562 -18 627 -18 q 348 20 444 -18 q 187 126 252 58 q 89 284 122 195 q 56 472 56 374 q 89 660 56 568 q 183 822 121 751 q 332 934 245 893 q 522 975 418 975 q 683 956 592 975 q 798 936 774 936 q 885 970 861 936 l 935 970 m 869 787 l 860 911 q 810 899 829 899 q 783 900 795 899 q 755 906 770 902 q 734 911 741 909 q 869 787 804 869 m 799 275 l 799 186 q 777 104 799 144 q 707 37 755 64 q 790 70 760 49 q 832 125 819 92 q 844 214 844 159 q 839 310 844 281 q 813 356 834 340 q 747 378 793 373 q 786 338 772 359 q 799 275 799 317 m 467 5 q 353 64 399 35 q 257 144 306 93 q 157 301 193 214 q 122 476 122 389 q 167 680 122 577 q 290 856 212 782 q 363 911 329 892 q 444 951 397 930 q 367 930 395 942 q 256 863 308 907 q 163 755 204 819 q 100 621 121 692 q 78 475 78 550 q 114 287 78 380 q 212 131 149 195 q 291 70 251 93 q 369 33 331 46 q 467 5 408 20 z "},"H":{"ha":1186,"x_min":40,"x_max":1146,"o":"m 693 0 l 693 37 q 789 51 761 41 q 826 87 817 61 q 835 172 835 113 l 835 468 l 353 468 l 353 187 q 356 112 353 137 q 373 71 360 86 q 413 49 387 56 q 493 37 439 42 l 493 0 l 40 0 l 40 37 q 115 44 89 39 q 156 63 141 49 q 177 103 172 77 q 183 175 183 129 l 183 811 q 153 896 183 876 q 40 920 123 916 l 40 957 l 493 957 l 493 920 q 397 905 426 919 q 360 862 368 892 q 353 766 353 832 l 353 518 l 835 518 l 835 803 q 823 876 835 853 q 784 907 812 899 q 693 920 756 915 l 693 957 l 1146 957 l 1146 920 q 1050 907 1078 918 q 1013 866 1022 896 q 1004 766 1004 836 l 1004 175 q 1013 91 1004 119 q 1051 49 1021 62 q 1146 37 1080 36 l 1146 0 l 693 0 m 857 815 l 857 143 q 846 73 857 93 q 808 37 834 53 l 831 37 q 884 58 867 37 q 900 125 900 79 l 900 798 q 888 890 900 860 q 828 920 876 920 l 808 920 q 847 884 837 907 q 857 815 857 861 m 205 806 l 205 158 q 192 75 205 99 q 158 37 178 51 l 178 37 q 233 68 217 37 q 249 161 249 99 l 249 770 q 244 864 249 835 q 220 908 239 894 q 158 920 201 922 q 195 883 184 906 q 205 806 205 859 z "},"I":{"ha":564,"x_min":57,"x_max":509,"o":"m 57 957 l 509 957 l 509 920 q 410 903 445 918 q 372 842 375 888 q 370 797 371 813 q 368 782 368 780 l 368 157 q 377 93 368 117 q 401 59 385 69 q 437 45 416 49 q 509 37 457 41 l 509 0 l 57 0 l 57 37 q 148 50 117 38 q 188 88 179 62 q 197 171 197 114 l 197 777 q 192 857 197 831 q 173 895 187 883 q 135 910 159 906 q 57 920 111 915 l 57 957 m 220 796 l 220 121 q 208 70 220 86 q 165 37 195 54 q 237 52 210 39 q 264 110 264 65 l 264 829 q 245 899 264 876 q 170 920 226 922 q 221 817 221 892 q 221 806 221 811 q 220 796 220 802 z "},"J":{"ha":579,"x_min":20,"x_max":543,"o":"m 96 920 l 96 957 l 543 957 l 543 920 q 460 910 484 917 q 422 877 435 904 q 408 789 408 850 l 408 -64 q 379 -205 408 -144 q 296 -300 350 -267 q 171 -334 241 -334 q 62 -297 104 -334 q 20 -210 20 -260 q 38 -155 20 -179 q 87 -131 56 -131 q 141 -156 119 -131 q 164 -222 162 -182 q 171 -276 165 -256 q 196 -296 176 -296 q 237 -197 237 -296 l 237 768 q 232 852 237 823 q 211 893 226 880 q 172 911 197 906 q 96 920 146 916 m 304 -154 l 304 781 q 291 890 304 861 q 227 920 278 920 l 212 920 q 250 884 240 907 q 260 819 260 861 l 260 -193 q 237 -296 260 -251 q 292 -245 279 -277 q 304 -154 304 -214 m 136 -197 q 89 -154 119 -154 q 55 -171 68 -154 q 41 -211 41 -188 q 66 -268 41 -241 q 136 -309 90 -295 q 93 -260 104 -275 q 82 -221 82 -245 q 100 -191 82 -198 q 136 -197 118 -184 z "},"K":{"ha":1114,"x_min":33,"x_max":1097,"o":"m 616 920 l 616 957 l 1022 957 l 1022 920 q 929 892 977 913 q 836 839 882 871 q 732 755 790 806 l 568 611 l 928 161 q 991 88 968 111 q 1040 53 1015 65 q 1097 37 1065 41 l 1097 0 l 642 0 l 642 37 q 750 86 750 37 q 739 121 750 103 q 710 161 728 139 l 441 497 l 357 421 l 357 161 q 373 77 357 106 q 433 43 390 47 q 470 40 456 41 q 496 37 485 38 l 496 0 l 33 0 l 33 37 l 54 37 q 142 52 114 37 q 179 93 171 66 q 187 164 187 119 l 187 802 q 177 871 187 847 q 134 907 167 895 q 33 920 101 920 l 33 957 l 496 957 l 496 920 l 486 920 q 382 895 407 920 q 357 810 357 869 l 357 472 l 632 718 q 702 791 678 760 q 725 851 725 823 q 704 901 725 882 q 643 920 682 920 l 616 920 m 875 920 l 715 920 q 747 861 747 893 q 737 819 747 841 q 810 882 783 861 q 875 920 836 903 m 765 196 l 490 541 l 460 513 l 715 187 q 759 129 745 152 q 772 83 772 106 q 739 37 772 54 l 757 37 q 801 54 784 37 q 818 92 818 70 q 765 196 818 130 m 253 155 l 253 796 q 237 896 253 871 q 158 920 220 920 q 200 883 191 905 q 210 785 210 861 l 210 144 q 198 73 210 94 q 153 37 187 52 l 170 37 q 229 51 211 37 q 250 86 246 64 q 253 155 253 109 z "},"L":{"ha":970,"x_min":41,"x_max":953,"o":"m 41 920 l 41 957 l 513 957 l 513 920 l 492 920 q 411 910 439 920 q 371 875 382 901 q 359 803 359 850 l 359 139 q 373 79 359 100 q 420 47 386 58 q 518 37 455 37 q 616 46 572 37 q 705 77 661 55 q 796 141 749 100 q 890 244 843 182 l 953 244 l 863 0 l 41 0 l 41 37 l 50 37 q 140 48 111 37 q 180 84 170 60 q 191 151 191 108 l 191 793 q 181 869 191 844 q 140 907 172 895 q 41 920 108 920 m 212 815 l 212 121 q 200 69 212 87 q 164 37 189 51 q 176 36 167 37 q 187 35 184 35 q 256 134 256 35 l 256 785 q 245 886 256 853 q 184 920 235 920 l 164 920 q 202 884 192 903 q 212 815 212 865 m 672 37 l 796 37 l 854 171 q 772 93 816 125 q 672 37 728 60 z "},"M":{"ha":1287,"x_min":35,"x_max":1236,"o":"m 647 232 l 943 957 l 1236 957 l 1236 920 q 1140 902 1168 919 q 1107 853 1112 885 q 1103 736 1103 821 l 1103 150 q 1115 82 1103 105 q 1153 50 1126 59 q 1236 37 1179 41 l 1236 0 l 799 0 l 799 37 q 893 54 864 38 q 928 95 922 69 q 933 182 933 121 l 933 836 l 596 0 l 557 0 l 224 810 l 224 254 q 259 108 224 161 q 378 37 295 56 l 378 0 l 35 0 l 35 37 q 146 94 107 45 q 186 232 186 143 l 186 861 q 119 907 158 892 q 35 920 81 922 l 35 957 l 345 957 l 647 232 m 999 157 l 999 811 q 1011 920 999 891 q 972 904 984 918 q 958 868 961 891 q 956 793 956 844 l 956 139 q 946 72 956 90 q 905 37 936 54 l 929 37 q 987 64 976 37 q 999 157 999 91 m 165 920 l 140 920 q 207 874 182 903 q 256 785 231 846 l 570 37 q 585 85 585 64 q 570 139 585 104 l 300 794 q 247 889 275 859 q 165 920 218 920 m 113 37 l 256 37 q 216 73 231 50 q 193 126 201 96 q 164 77 184 98 q 113 37 144 56 z "},"N":{"ha":1114,"x_min":17,"x_max":1090,"o":"m 728 920 l 728 957 l 1090 957 l 1090 920 q 1011 899 1045 918 q 957 844 977 880 q 937 757 937 808 l 950 -21 l 908 -21 l 215 789 l 225 244 q 233 158 227 193 q 258 98 240 123 q 308 57 275 72 q 393 37 341 42 l 393 0 l 33 0 l 33 37 q 138 75 104 43 q 180 156 172 108 q 186 278 189 205 l 176 833 q 101 898 138 876 q 25 920 64 920 l 17 920 l 17 957 l 297 957 l 908 244 l 899 721 q 887 814 899 776 q 850 876 876 852 q 795 908 831 895 q 728 920 760 920 m 965 920 l 817 920 q 872 888 850 908 q 908 832 893 867 q 965 920 924 892 m 859 143 l 248 856 q 202 900 229 880 q 129 920 176 920 l 98 920 q 157 887 136 906 q 216 822 178 867 l 913 11 q 911 49 912 31 q 907 77 910 68 q 894 100 903 86 q 859 143 884 113 m 117 37 l 260 37 q 217 80 230 60 q 196 135 205 100 q 169 80 187 103 q 117 37 151 56 z "},"O":{"ha":1129,"x_min":60,"x_max":1074,"o":"m 60 482 q 71 598 60 543 q 105 703 83 653 q 161 795 127 752 q 236 872 195 839 q 331 931 280 908 q 441 965 382 954 q 568 975 500 975 q 777 937 682 975 q 937 829 871 898 q 1038 672 1003 761 q 1074 484 1074 583 q 1035 285 1074 377 q 924 125 996 193 q 756 19 852 57 q 549 -18 660 -18 q 353 19 444 -18 q 197 122 262 56 q 96 281 132 189 q 60 482 60 374 m 248 554 q 272 337 248 436 q 342 166 296 238 q 449 57 387 95 q 583 20 511 20 q 699 46 644 20 q 795 124 753 72 q 859 253 836 176 q 882 432 882 330 q 856 638 882 543 q 783 799 829 732 q 673 901 736 865 q 538 937 610 937 q 421 910 475 937 q 329 832 367 883 q 269 711 290 782 q 248 554 248 641 m 311 900 q 140 723 199 831 q 82 481 82 616 q 120 276 82 369 q 232 118 158 184 q 415 16 306 52 q 203 202 282 83 q 125 493 125 321 q 145 648 125 579 q 208 779 166 718 q 311 900 250 840 m 665 928 q 796 815 742 887 q 877 644 850 744 q 904 425 904 545 q 873 229 904 312 q 786 82 842 146 q 878 177 842 124 q 930 298 913 231 q 947 450 947 366 q 914 673 947 572 q 816 842 880 775 q 665 928 752 909 z "},"P":{"ha":956,"x_min":39,"x_max":900,"o":"m 361 435 l 361 147 q 373 84 361 106 q 405 53 385 62 q 463 41 425 44 q 532 37 500 39 l 532 0 l 39 0 l 39 37 q 121 43 94 39 q 164 62 149 48 q 186 97 180 75 q 192 155 192 118 l 192 753 q 185 859 192 827 q 147 905 179 890 q 39 920 115 920 l 39 957 l 505 957 q 654 946 536 957 q 735 924 692 943 q 816 872 779 905 q 877 794 854 839 q 900 696 900 749 q 877 589 900 637 q 805 507 853 542 q 683 454 756 473 q 511 435 609 435 l 361 435 m 214 761 l 214 123 q 164 37 214 59 l 182 37 q 257 109 257 37 l 257 729 q 256 838 257 812 q 247 882 255 864 q 219 909 239 901 q 158 921 199 918 q 196 892 185 908 q 210 846 207 876 q 214 761 214 816 m 361 472 l 456 472 q 599 493 542 472 q 686 563 656 513 q 717 694 717 612 q 633 880 717 819 q 566 912 600 905 q 482 920 532 920 q 399 903 425 920 q 367 854 374 887 q 361 758 361 822 l 361 472 m 621 479 q 742 544 702 492 q 782 692 782 596 q 741 843 782 793 q 619 911 701 894 q 685 859 658 891 q 726 785 712 827 q 739 692 739 742 q 621 479 739 530 z "},"Q":{"ha":1129,"x_min":60,"x_max":1088,"o":"m 943 -267 l 929 -267 q 767 -236 846 -267 q 613 -149 688 -206 q 463 -11 537 -92 q 257 71 349 5 q 113 244 165 136 q 60 482 60 351 q 71 598 60 543 q 105 703 83 653 q 161 795 127 752 q 236 872 195 839 q 331 931 280 908 q 441 965 382 954 q 568 975 500 975 q 777 937 682 975 q 937 829 871 898 q 1038 672 1003 761 q 1074 484 1074 583 q 1027 268 1074 368 q 890 96 981 168 q 675 -5 800 24 q 808 -80 749 -55 q 928 -104 867 -104 q 996 -94 970 -104 q 1061 -57 1021 -83 l 1088 -74 l 943 -267 m 947 -201 l 922 -201 q 805 -180 869 -201 q 677 -117 741 -159 q 561 -18 613 -75 l 557 -18 q 498 -16 528 -18 q 629 -134 560 -83 q 765 -212 698 -184 q 892 -239 832 -239 q 923 -232 913 -239 q 947 -201 932 -224 m 248 554 q 272 337 248 436 q 342 166 296 238 q 449 57 387 95 q 583 20 511 20 q 699 46 644 20 q 795 124 753 72 q 859 253 836 176 q 882 432 882 330 q 856 638 882 543 q 783 799 829 732 q 673 901 736 865 q 538 937 610 937 q 421 910 475 937 q 329 832 367 883 q 269 711 290 782 q 248 554 248 641 m 311 900 q 140 723 199 831 q 82 481 82 616 q 120 276 82 369 q 232 118 158 184 q 415 16 306 52 q 125 493 125 168 q 145 648 125 579 q 208 779 166 718 q 311 900 250 840 m 665 928 q 796 815 742 887 q 877 644 850 744 q 904 425 904 545 q 873 229 904 312 q 786 82 842 146 q 878 177 842 124 q 930 298 913 231 q 947 450 947 366 q 914 673 947 572 q 816 842 880 775 q 665 928 752 909 z "},"R":{"ha":1071,"x_min":39,"x_max":1048,"o":"m 509 0 l 39 0 l 39 37 q 136 48 104 39 q 180 81 168 57 q 192 155 192 104 l 192 789 q 182 869 192 843 q 140 907 172 896 q 39 920 109 918 l 39 957 l 574 957 q 750 922 675 957 q 864 829 826 887 q 903 704 903 771 q 885 618 903 660 q 834 543 867 576 q 754 485 801 509 q 644 450 707 460 q 760 318 691 404 l 827 239 q 840 223 832 233 q 861 200 848 214 q 916 135 894 161 q 961 90 939 110 q 1004 57 983 69 q 1048 37 1025 44 l 1048 0 l 921 0 q 839 19 878 0 q 765 74 800 39 q 684 167 729 109 l 589 288 q 491 406 523 373 q 435 439 458 439 l 359 439 l 359 151 q 370 84 359 109 q 418 49 381 60 q 466 40 437 43 q 509 37 494 37 l 509 0 m 214 794 l 214 125 q 167 37 214 61 q 256 106 256 39 l 256 790 q 250 869 256 842 q 223 909 244 896 q 160 920 203 922 q 204 879 195 904 q 214 794 214 853 m 359 782 l 359 476 l 469 476 q 579 494 525 476 q 661 539 633 512 q 717 699 717 591 q 631 885 717 825 q 567 913 600 906 q 482 920 534 920 q 403 906 430 920 q 368 864 376 892 q 359 782 359 836 m 536 439 l 481 439 q 537 384 505 420 q 618 285 570 347 q 717 158 667 222 q 801 70 762 100 q 869 30 840 39 q 933 20 899 21 q 852 76 891 40 q 769 166 814 111 q 678 281 725 220 q 581 395 631 341 q 564 416 574 404 q 536 439 554 428 m 596 479 q 736 547 687 491 q 785 700 785 604 q 741 849 785 793 q 618 916 698 904 q 709 832 679 884 q 739 692 739 779 q 704 553 739 600 q 596 479 668 507 z "},"S":{"ha":839,"x_min":78,"x_max":777,"o":"m 89 345 l 134 345 q 223 164 171 237 q 338 56 276 92 q 468 21 400 21 q 613 74 553 21 q 673 210 673 127 q 633 330 673 287 q 538 390 593 373 q 391 422 482 408 q 262 450 300 437 q 162 506 203 471 q 99 592 121 542 q 78 699 78 642 q 97 803 78 753 q 151 892 116 853 q 235 953 185 930 q 346 975 285 975 q 454 963 390 975 q 547 950 518 950 q 616 966 584 950 l 668 966 l 697 688 l 650 688 q 510 878 583 812 q 339 943 437 943 q 248 921 290 943 q 181 858 206 898 q 155 770 155 818 q 201 666 155 702 q 338 612 248 630 q 500 581 429 593 q 614 547 572 568 q 734 442 691 509 q 777 290 777 375 q 737 138 777 209 q 627 25 698 68 q 468 -17 555 -17 q 393 -9 418 -17 q 307 20 368 -2 q 214 41 246 41 q 127 0 159 41 l 89 0 l 89 345 m 623 783 l 600 913 q 555 905 578 905 q 503 913 531 905 q 550 873 530 895 q 593 821 570 852 q 623 783 615 791 m 111 218 l 111 37 q 148 71 131 63 q 199 77 164 78 q 166 116 176 103 q 142 153 157 128 q 111 218 127 178 m 111 778 q 100 694 100 726 q 112 622 100 659 q 148 554 124 586 q 201 501 172 522 q 290 463 241 474 q 430 436 338 452 q 558 407 523 421 q 660 334 623 383 q 696 220 696 286 q 668 117 696 171 q 724 252 724 174 q 683 377 724 332 q 581 445 642 423 q 415 486 520 467 q 307 505 310 505 q 161 592 211 530 q 111 734 111 654 q 111 760 111 749 q 111 778 111 770 z "},"T":{"ha":1013,"x_min":28,"x_max":986,"o":"m 75 957 l 937 957 l 986 733 l 937 733 q 828 861 885 821 q 721 910 771 902 q 589 920 670 918 l 589 149 q 603 80 589 104 q 650 48 617 57 q 741 37 682 39 l 741 0 l 265 0 l 265 37 q 356 46 324 39 q 403 79 387 54 q 419 157 419 104 l 419 920 q 292 905 346 919 q 201 867 237 891 q 140 817 164 844 q 69 733 116 790 l 28 733 l 75 957 m 909 811 l 879 920 l 751 920 q 838 878 803 903 q 909 811 872 852 m 485 172 l 485 839 q 476 898 485 878 q 441 920 467 918 l 441 149 q 431 81 441 106 q 393 37 421 56 l 408 37 q 471 68 458 37 q 485 172 485 100 m 201 920 l 92 920 l 65 804 q 125 872 100 850 q 201 920 151 894 z "},"U":{"ha":1129,"x_min":35,"x_max":1096,"o":"m 186 292 l 186 808 q 171 881 186 859 q 127 909 155 903 q 35 920 99 914 l 35 957 l 494 957 l 494 920 q 413 910 440 916 q 371 882 386 903 q 357 815 357 861 l 357 277 q 390 148 357 202 q 486 65 424 93 q 629 37 547 37 q 780 69 715 37 q 882 165 845 101 q 918 321 918 230 l 918 633 q 903 800 918 739 q 850 888 887 860 q 747 920 814 916 l 747 957 l 1096 957 l 1096 920 q 1006 878 1036 911 q 966 788 976 844 q 956 652 956 733 l 956 301 q 929 169 956 229 q 851 67 902 110 q 729 3 800 25 q 566 -18 657 -18 q 243 104 347 -18 q 198 187 211 144 q 186 292 186 231 m 253 288 l 253 829 q 157 920 253 930 q 208 822 208 899 l 208 281 q 276 99 208 165 q 479 4 344 34 q 391 48 427 26 q 322 101 354 69 q 272 180 290 133 q 253 288 253 227 m 978 920 l 839 920 q 918 812 901 891 q 940 877 926 851 q 978 920 953 903 z "},"V":{"ha":1028,"x_min":21,"x_max":1006,"o":"m 693 957 l 1006 957 l 1006 920 q 907 860 953 917 q 815 688 861 802 l 534 -18 l 497 -18 l 151 806 q 101 899 121 881 q 21 920 81 917 l 21 957 l 429 957 l 429 920 l 418 920 q 348 903 372 920 q 323 859 323 887 q 328 836 323 861 q 338 798 332 810 l 585 207 l 762 653 q 800 804 800 746 q 772 889 800 859 q 693 920 744 920 l 693 957 m 896 920 l 762 920 q 821 812 817 888 q 896 920 850 885 m 172 815 l 505 18 q 525 71 525 55 q 505 129 525 87 l 221 810 q 189 877 203 854 q 155 911 176 900 q 96 925 134 922 q 136 892 121 916 q 172 815 151 869 z "},"W":{"ha":1447,"x_min":18,"x_max":1429,"o":"m 1124 957 l 1429 957 l 1429 920 q 1342 844 1379 897 q 1270 693 1304 791 l 1022 -18 l 983 -18 l 722 728 l 463 -18 l 427 -18 l 168 728 q 120 859 134 827 q 84 905 106 890 q 18 920 62 920 l 18 957 l 418 957 l 418 920 q 411 921 414 920 q 401 921 408 921 q 310 865 310 921 q 332 770 310 836 l 514 244 l 701 781 q 669 863 685 835 q 635 903 652 891 q 607 916 618 914 q 557 920 595 918 l 557 957 l 968 957 l 968 920 q 891 909 919 918 q 863 868 863 899 q 895 747 863 836 l 1071 244 l 1215 660 q 1238 731 1229 696 q 1247 794 1247 766 q 1217 885 1247 855 q 1124 920 1186 914 l 1124 957 m 1341 920 l 1207 920 q 1252 874 1240 899 q 1267 811 1265 848 q 1299 873 1281 846 q 1341 920 1316 900 m 724 791 l 993 24 q 1013 89 1013 64 q 999 143 1013 104 l 764 811 q 735 880 745 861 q 707 908 726 898 q 650 920 688 919 q 724 791 690 887 m 172 781 l 436 20 q 445 38 441 30 q 452 57 448 45 q 456 78 456 69 q 444 132 456 103 l 220 781 q 183 876 196 849 q 150 912 170 902 q 96 920 131 922 q 136 872 120 903 q 172 781 151 842 z "},"X":{"ha":1114,"x_min":26,"x_max":1089,"o":"m 672 957 l 1047 957 l 1047 920 q 914 866 978 915 q 761 711 850 817 l 614 534 l 856 218 q 940 110 917 138 q 1001 60 964 83 q 1089 37 1039 38 l 1089 0 l 600 0 l 600 37 l 616 37 q 690 54 666 37 q 714 92 714 70 q 693 150 714 117 q 636 231 673 183 l 505 403 l 375 249 q 321 174 338 205 q 304 115 304 144 q 332 59 304 77 q 412 37 360 41 l 412 0 l 33 0 l 33 37 l 41 37 q 117 59 73 37 q 217 130 161 81 q 330 249 273 179 l 484 433 l 235 760 q 153 862 181 831 q 98 906 125 893 q 26 920 70 919 l 26 957 l 492 957 l 492 920 l 443 920 q 396 908 415 920 q 376 875 376 896 q 385 842 376 858 q 416 796 394 826 l 590 566 l 715 717 q 781 844 781 795 q 753 896 781 874 q 672 920 725 918 l 672 957 m 907 920 l 761 920 q 803 848 803 895 q 802 828 803 836 q 907 920 841 887 m 696 261 l 261 833 q 214 889 230 873 q 175 912 198 904 q 113 921 151 920 q 165 884 138 911 q 233 803 193 857 l 689 196 q 736 93 736 132 q 700 37 736 65 q 762 53 741 37 q 783 97 783 69 q 763 164 783 126 q 696 261 742 201 m 125 37 l 290 37 q 252 100 252 60 q 262 146 252 121 q 224 106 236 118 q 185 75 212 94 q 125 37 159 56 z "},"Y":{"ha":1013,"x_min":20,"x_max":994,"o":"m 692 920 l 692 957 l 994 957 l 994 920 q 933 893 964 916 q 870 829 903 871 q 803 728 838 787 l 603 385 l 603 140 q 635 59 603 75 q 747 37 667 43 l 747 0 l 290 0 l 290 37 l 302 37 q 390 53 361 37 q 426 92 419 68 q 433 154 433 115 l 433 351 l 144 836 q 97 901 119 880 q 20 920 75 922 l 20 957 l 467 957 l 467 920 q 372 909 406 918 q 339 864 339 901 q 387 755 339 836 l 583 429 l 714 650 q 767 753 750 710 q 785 833 785 796 q 761 893 785 867 q 699 920 736 920 l 692 920 m 807 838 l 807 822 q 841 877 824 859 q 885 920 857 895 l 766 920 q 807 838 807 894 m 498 370 l 216 844 q 172 905 189 891 q 125 920 155 920 l 104 920 q 134 896 122 912 q 167 844 146 880 l 456 359 l 456 125 q 443 70 456 86 q 393 37 429 54 l 422 37 q 482 58 465 37 q 498 122 498 79 l 498 370 z "},"Z":{"ha":926,"x_min":49,"x_max":893,"o":"m 839 332 l 893 332 l 839 0 l 49 0 l 49 28 l 671 920 l 453 920 q 326 895 386 920 q 223 835 265 870 q 163 771 182 800 q 113 690 125 713 l 65 690 l 113 957 l 885 957 l 885 930 l 260 37 l 469 37 q 582 48 536 37 q 685 107 627 58 q 745 169 715 132 q 800 251 774 206 q 839 332 825 295 m 615 37 l 747 37 l 800 211 q 720 108 760 148 q 615 37 680 68 m 699 920 l 82 37 q 133 46 117 36 q 184 109 148 56 l 694 838 q 725 895 725 882 q 699 920 725 915 m 245 920 l 131 920 l 109 804 q 169 871 138 846 q 245 920 201 897 z "},"[":{"ha":449,"x_min":107,"x_max":418,"o":"m 107 957 l 418 957 l 418 920 l 343 920 q 293 913 310 920 q 269 891 275 906 q 262 852 262 877 l 262 -210 q 267 -248 262 -233 q 286 -272 271 -263 q 330 -281 300 -281 l 418 -281 l 418 -318 l 107 -318 l 107 957 m 129 920 l 129 -281 q 165 -254 157 -273 q 174 -187 174 -235 l 174 765 l 174 814 l 174 851 q 129 920 174 907 z "},"\\":{"ha":386,"x_min":1,"x_max":390,"o":"m 1 941 l 87 941 l 390 -21 l 302 -21 l 1 941 z "},"]":{"ha":449,"x_min":31,"x_max":342,"o":"m 342 957 l 342 -319 l 31 -319 l 31 -282 l 111 -282 q 174 -264 161 -282 q 186 -210 186 -245 l 186 847 q 173 902 186 884 q 111 920 161 920 l 31 920 l 31 957 l 342 957 m 208 831 l 208 -192 q 203 -247 208 -230 q 178 -282 198 -264 q 236 -263 219 -280 q 253 -199 253 -246 l 253 814 q 248 876 253 855 q 227 908 243 897 q 178 920 211 919 q 203 885 197 903 q 208 831 208 867 z "},"^":{"ha":807,"x_min":100,"x_max":708,"o":"m 100 452 l 378 939 l 434 939 l 708 452 l 600 452 l 400 799 l 203 452 l 100 452 z "},"_":{"ha":694,"x_min":-8,"x_max":703,"o":"m -8 -294 l -8 -208 l 703 -208 l 703 -294 l -8 -294 z "},"`":{"ha":463,"x_min":87,"x_max":379,"o":"m 379 696 l 335 696 l 87 905 l 294 905 l 379 696 m 321 734 l 257 868 l 163 868 l 321 734 z "},"a":{"ha":623,"x_min":39,"x_max":599,"o":"m 197 525 q 206 505 197 522 q 215 473 215 488 q 191 421 215 444 q 131 399 167 399 q 76 417 96 399 q 56 458 56 435 q 90 528 56 494 q 184 583 124 562 q 317 604 244 604 q 415 586 370 604 q 488 530 461 568 q 515 440 515 493 l 515 96 q 539 54 515 54 q 574 77 553 54 l 599 47 q 537 -3 566 14 q 471 -20 509 -20 q 401 0 426 -20 q 366 62 376 20 q 180 -18 272 -18 q 77 16 115 -18 q 39 102 39 50 q 62 181 39 149 q 124 240 85 214 q 237 304 162 265 q 359 371 311 343 l 359 473 q 338 543 359 519 q 275 567 317 567 q 218 554 239 567 q 197 525 197 541 m 382 429 l 382 161 q 399 43 382 82 q 465 4 416 4 q 501 9 488 4 q 444 42 460 16 q 427 125 427 68 l 427 436 q 407 533 427 507 q 338 566 387 560 q 373 526 364 552 q 382 429 382 500 m 359 107 l 359 325 q 238 237 273 276 q 204 142 204 197 q 224 84 204 104 q 272 64 245 64 q 359 107 315 64 m 240 14 q 141 39 178 14 q 104 111 104 64 q 122 177 104 146 q 176 245 140 208 q 91 180 121 214 q 61 102 61 147 q 97 33 61 60 q 176 5 134 5 q 240 14 218 5 m 176 441 q 139 451 152 439 q 126 478 126 463 q 138 516 126 499 q 178 564 149 532 q 104 515 130 539 q 78 460 78 490 q 92 434 78 446 q 125 422 106 422 q 176 441 157 422 z "},"b":{"ha":766,"x_min":8,"x_max":721,"o":"m 8 907 l 233 981 l 261 981 l 261 542 q 361 588 317 572 q 460 604 405 604 q 563 583 515 604 q 647 524 612 562 q 701 431 682 486 q 721 313 721 377 q 701 188 721 247 q 641 81 680 128 q 545 8 601 35 q 424 -18 489 -18 q 225 45 334 -18 l 122 -16 l 104 -16 l 104 758 q 8 880 104 854 l 8 907 m 172 171 l 172 761 q 155 859 172 828 q 81 890 138 890 q 50 888 61 890 q 108 844 90 870 q 126 770 126 817 l 126 28 q 159 67 149 49 q 171 106 169 85 q 172 171 172 127 m 261 494 l 261 231 q 294 82 261 138 q 390 26 326 26 q 475 59 438 26 q 534 155 513 92 q 555 307 555 218 q 534 439 555 383 q 477 522 513 494 q 396 549 441 549 q 327 530 370 549 q 261 494 285 512 m 404 567 q 533 493 489 559 q 578 309 578 428 q 551 134 578 202 q 467 28 524 65 q 583 120 545 50 q 621 311 621 190 q 565 505 621 438 q 440 572 510 572 q 404 567 437 572 z "},"c":{"ha":623,"x_min":41,"x_max":603,"o":"m 447 524 q 428 554 447 542 q 382 567 409 567 q 290 537 331 567 q 225 453 248 508 q 201 328 201 397 q 229 211 201 263 q 303 129 256 158 q 404 100 349 100 q 499 120 450 100 q 579 174 549 141 l 603 142 q 474 23 549 64 q 322 -18 399 -18 q 185 21 250 -18 q 80 128 119 60 q 41 275 41 195 q 65 399 41 340 q 133 505 89 458 q 239 578 178 551 q 374 604 300 604 q 482 586 433 604 q 559 536 531 568 q 587 467 587 505 q 563 412 587 433 q 505 390 538 390 q 455 411 475 390 q 435 457 435 433 q 441 488 435 462 q 447 524 447 514 m 457 457 q 474 425 457 435 q 510 414 490 414 q 543 419 516 414 q 501 463 501 428 q 504 478 501 465 q 507 500 507 491 q 454 557 507 537 q 469 518 469 536 q 463 487 469 507 q 457 457 457 467 m 267 562 q 156 495 201 538 q 87 396 111 452 q 64 281 64 339 q 102 138 64 201 q 202 40 140 75 q 328 5 264 5 q 503 66 420 5 q 359 37 414 37 q 233 68 290 37 q 141 155 175 100 q 107 279 107 211 q 148 432 107 359 q 267 562 189 505 z "},"d":{"ha":766,"x_min":43,"x_max":745,"o":"m 421 899 l 631 968 l 659 968 l 659 122 q 678 74 659 86 q 745 61 697 61 l 745 25 l 504 -18 l 504 61 q 304 -18 406 -18 q 199 5 248 -18 q 115 72 151 29 q 61 171 80 115 q 43 289 43 227 q 85 450 43 378 q 200 564 127 523 q 361 604 272 604 q 504 575 424 604 l 504 742 q 490 823 504 798 q 421 871 476 849 l 421 899 m 475 880 l 452 880 q 514 832 503 858 q 526 762 526 806 l 526 16 q 559 38 549 25 q 570 77 570 51 l 570 761 q 551 851 570 822 q 475 880 533 880 m 504 110 l 504 507 q 449 551 480 536 q 385 567 417 567 q 296 537 336 567 q 232 449 255 508 q 208 301 208 389 q 229 172 208 227 q 288 89 250 117 q 375 61 326 61 q 504 110 445 61 m 290 572 q 195 534 233 560 q 100 429 136 498 q 65 283 65 361 q 96 145 65 209 q 183 43 127 81 q 309 5 239 5 q 393 20 356 5 q 354 17 362 17 q 266 35 309 17 q 186 89 222 54 q 129 174 150 125 q 109 282 109 224 q 290 572 109 463 z "},"e":{"ha":623,"x_min":45,"x_max":593,"o":"m 566 168 l 593 147 q 520 54 562 90 q 428 -1 478 17 q 322 -18 377 -18 q 183 18 248 -18 q 82 121 119 54 q 45 275 45 189 q 67 403 45 343 q 131 508 90 463 q 224 579 171 553 q 338 604 277 604 q 454 579 399 604 q 542 509 509 553 q 576 442 566 476 q 593 359 587 408 l 183 359 q 207 240 186 289 q 263 161 229 191 q 336 119 297 132 q 410 106 374 106 q 566 168 495 106 m 446 403 l 493 403 q 462 515 491 479 q 364 564 433 551 q 427 512 408 544 q 446 416 446 481 l 446 403 m 187 403 l 424 403 l 424 425 q 410 495 424 465 q 371 543 395 526 q 314 559 346 559 q 227 514 262 559 q 187 403 191 468 m 193 536 q 66 273 66 436 q 142 80 66 155 q 317 5 218 5 q 432 29 374 5 q 530 98 490 52 q 446 55 489 72 q 343 39 403 39 q 175 109 242 39 q 107 293 107 180 q 130 422 107 365 q 193 536 152 479 z "},"f":{"ha":406,"x_min":11,"x_max":515,"o":"m 107 97 l 107 546 l 11 546 l 11 593 l 107 593 l 107 685 q 139 839 107 774 q 229 940 170 905 q 367 975 288 975 q 448 961 414 975 q 499 923 482 947 q 515 872 515 900 q 493 816 515 841 q 439 791 471 791 q 388 815 408 791 q 368 865 368 838 q 369 877 369 872 q 370 892 370 882 q 357 925 370 913 q 325 937 344 937 q 279 909 296 937 q 262 828 262 881 l 262 593 l 389 593 l 389 546 l 262 546 l 262 107 q 270 65 262 80 q 297 43 277 50 q 349 37 316 37 l 371 37 l 371 0 l 17 0 l 17 37 q 84 51 62 39 q 107 97 107 64 m 129 685 l 129 102 q 93 32 129 57 q 174 102 174 32 l 174 684 q 191 819 174 764 q 244 926 208 874 q 158 828 186 886 q 129 685 129 770 m 371 935 q 390 892 389 914 q 393 864 391 879 q 398 839 394 850 q 412 822 402 828 q 439 815 422 815 q 490 851 473 815 q 468 846 474 846 q 429 872 443 846 q 404 920 410 911 q 371 935 397 928 z "},"g":{"ha":708,"x_min":22,"x_max":728,"o":"m 60 392 q 129 542 60 480 q 311 604 198 604 q 526 526 434 604 q 581 563 551 550 q 639 576 611 576 q 703 555 677 576 q 728 503 728 534 q 712 464 728 481 q 673 447 697 447 q 647 455 659 447 q 622 478 635 463 q 598 502 608 494 q 576 510 589 510 q 550 500 566 510 q 595 379 595 439 q 564 277 595 325 q 481 201 533 229 q 415 179 447 184 q 346 171 384 173 q 225 151 269 165 q 182 98 182 137 q 267 49 182 49 q 318 50 295 50 q 379 50 340 50 q 578 13 512 50 q 644 -114 644 -25 q 623 -202 644 -161 q 559 -271 602 -242 q 448 -317 516 -300 q 290 -334 380 -334 q 91 -296 159 -334 q 22 -197 22 -259 q 56 -120 22 -154 q 154 -82 90 -86 q 66 29 66 -43 q 107 117 66 77 q 222 186 148 158 q 60 392 60 256 m 367 574 q 432 502 412 544 q 452 392 452 460 q 383 210 452 269 q 494 382 494 247 q 367 574 494 547 m 429 396 q 399 522 429 476 q 325 567 368 567 q 252 519 281 567 q 224 396 224 472 q 253 261 224 311 q 330 211 281 211 q 402 259 374 211 q 429 396 429 308 m 275 583 q 175 549 220 576 q 106 481 130 522 q 82 393 82 440 q 124 276 82 327 q 253 203 167 225 q 160 288 191 239 q 129 389 129 336 q 165 496 129 445 q 275 583 202 548 m 170 138 q 109 87 130 113 q 89 26 89 61 q 134 -46 89 -17 q 254 -75 179 -75 q 457 -80 406 -77 q 550 -105 509 -83 q 591 -178 591 -127 q 589 -199 591 -182 q 607 -142 607 -166 q 562 -63 607 -90 q 427 -33 516 -35 q 298 -30 362 -32 q 200 -22 235 -28 q 147 3 165 -15 q 129 53 129 20 q 139 95 129 75 q 170 138 150 114 m 314 -301 q 450 -286 393 -301 q 538 -242 507 -271 q 570 -178 570 -214 q 387 -98 570 -98 q 254 -107 306 -98 q 175 -139 203 -116 q 147 -201 147 -162 q 191 -274 147 -247 q 314 -301 235 -301 m 170 -301 q 90 -199 90 -259 q 115 -141 90 -164 q 189 -96 140 -118 q 82 -128 119 -102 q 45 -196 45 -155 q 77 -259 45 -231 q 170 -301 109 -288 m 700 524 q 675 511 692 511 q 637 525 662 511 q 595 539 612 539 q 582 536 588 539 q 570 532 575 534 q 583 533 575 533 q 631 500 601 533 q 673 471 653 471 q 697 481 689 471 q 705 504 705 492 q 700 524 705 513 z "},"h":{"ha":796,"x_min":22,"x_max":778,"o":"m 778 37 l 778 0 l 446 0 l 446 37 q 486 41 472 39 q 511 51 500 43 q 527 74 522 58 q 532 113 532 89 l 532 431 q 503 523 532 494 q 435 553 475 553 q 275 469 368 553 l 275 106 q 294 53 275 66 q 367 37 313 39 l 367 0 l 32 0 l 32 37 q 98 48 77 39 q 118 96 118 58 l 118 757 q 22 873 118 850 l 22 901 l 248 972 l 275 972 l 275 515 q 381 581 324 558 q 496 604 438 604 q 598 583 555 604 q 665 520 642 562 q 689 418 689 479 l 689 136 q 691 79 689 96 q 710 50 694 62 q 762 37 726 37 l 778 37 m 554 457 l 554 104 q 548 66 554 79 q 528 39 542 53 q 586 60 571 39 q 600 125 600 80 l 600 414 q 593 496 600 467 q 559 544 585 526 q 479 566 534 563 q 554 457 554 538 m 140 757 l 140 114 q 137 70 140 84 q 121 41 133 55 l 139 41 q 170 59 155 41 q 186 109 186 76 l 186 762 q 174 835 186 810 q 141 870 163 857 q 94 884 119 884 q 57 879 83 884 q 123 832 106 861 q 140 757 140 803 z "},"i":{"ha":376,"x_min":39,"x_max":355,"o":"m 269 604 l 269 114 q 276 67 269 83 q 300 45 282 51 q 355 37 318 39 l 355 0 l 39 0 l 39 37 q 97 54 81 39 q 114 110 114 70 l 114 421 q 94 475 114 450 q 39 513 75 500 l 39 534 l 241 604 l 269 604 m 136 419 l 136 97 q 109 37 136 58 q 163 54 146 37 q 180 110 180 71 l 180 428 q 159 495 180 471 q 104 518 138 518 q 79 517 89 518 q 136 419 136 487 m 186 935 q 234 922 212 935 q 269 888 256 909 q 282 840 282 866 q 269 792 282 814 q 234 758 256 770 q 186 745 212 745 q 119 773 147 745 q 92 840 92 802 q 104 887 92 865 q 139 922 117 909 q 186 935 161 935 m 197 913 q 136 894 157 913 q 114 842 114 875 q 135 789 114 810 q 197 766 156 768 q 165 801 176 786 q 155 840 155 817 q 197 913 155 884 z "},"j":{"ha":376,"x_min":-94,"x_max":283,"o":"m 118 -222 l 118 345 q 114 436 118 408 q 92 485 111 465 q 25 522 73 505 l 25 549 l 248 604 l 272 604 l 272 -28 q 267 -126 272 -85 q 240 -207 261 -167 q 153 -299 211 -265 q 28 -334 94 -334 q -61 -308 -28 -334 q -94 -241 -94 -281 q -74 -192 -94 -212 q -31 -172 -54 -172 q 13 -188 -8 -172 q 41 -228 33 -204 q 52 -258 47 -243 q 64 -281 57 -273 q 82 -289 71 -289 q 118 -222 118 -289 m 183 -107 l 183 396 q 168 492 183 457 q 96 528 153 528 q 69 526 79 528 q 129 479 117 508 q 140 390 140 450 l 140 -158 q 141 -186 141 -169 q 139 -228 141 -203 q 131 -273 136 -253 q 175 -211 166 -250 q 183 -107 183 -172 m 1 -205 q -29 -196 -14 -196 q -61 -211 -50 -196 q -72 -243 -72 -225 q -49 -288 -72 -270 q 17 -310 -26 -306 q -29 -243 -29 -279 q 1 -205 -29 -214 m 187 936 q 235 923 213 936 q 271 888 258 910 q 283 840 283 866 q 271 793 283 814 q 235 759 258 771 q 187 746 213 746 q 119 773 147 746 q 92 840 92 800 q 120 908 92 880 q 187 936 148 936 m 197 914 l 187 914 q 135 891 156 914 q 114 840 114 868 q 134 792 114 814 q 182 770 154 770 q 190 771 186 770 q 197 771 193 771 q 168 798 178 784 q 157 842 157 812 q 197 914 157 886 z "},"k":{"ha":724,"x_min":36,"x_max":700,"o":"m 350 0 l 36 0 l 36 37 l 46 37 q 99 50 83 37 q 118 79 115 62 q 121 131 121 96 l 121 753 q 103 834 121 804 q 36 879 86 864 l 36 905 l 252 978 l 278 978 l 278 278 q 437 493 437 431 q 419 534 437 517 q 361 554 400 550 l 361 593 l 650 593 l 650 554 q 631 549 643 553 q 605 541 618 546 q 575 526 591 536 q 541 497 559 516 q 504 458 507 462 l 460 401 l 572 186 q 636 85 608 120 q 700 37 665 50 l 700 0 l 411 0 l 411 37 q 457 69 457 43 q 452 86 457 77 q 433 121 448 96 l 343 289 l 278 227 l 278 96 q 350 37 278 39 l 350 0 m 545 555 l 425 555 q 460 494 460 530 q 452 460 460 480 q 545 555 506 531 m 490 158 l 393 339 l 361 307 l 460 117 q 469 102 465 109 q 476 87 473 95 q 479 71 479 79 q 460 37 479 56 q 503 51 488 38 q 518 85 518 64 q 490 158 518 105 m 189 111 l 189 742 q 182 832 189 801 q 149 878 175 863 q 66 890 123 893 q 127 840 112 871 q 143 757 143 810 l 143 117 q 138 66 143 83 q 113 33 132 49 q 189 111 189 35 z "},"l":{"ha":376,"x_min":25,"x_max":363,"o":"m 117 106 l 117 749 q 100 829 117 800 q 25 880 84 859 l 25 907 l 245 979 l 272 979 l 272 131 q 284 58 272 78 q 345 37 296 37 l 363 37 l 363 0 l 25 0 l 25 37 l 41 37 q 99 54 81 37 q 117 106 117 71 m 183 134 l 183 745 q 179 822 183 793 q 154 870 174 850 q 87 889 133 889 q 52 888 65 889 q 126 836 114 870 q 139 745 139 801 l 139 110 q 111 37 139 64 q 171 63 159 39 q 183 134 183 87 z "},"m":{"ha":1215,"x_min":36,"x_max":1192,"o":"m 693 465 l 693 117 q 705 60 693 80 q 743 39 716 39 q 762 38 754 39 q 778 37 769 38 l 778 0 l 452 0 l 452 37 q 522 53 505 35 q 538 115 538 71 l 538 414 q 444 549 538 549 q 363 525 410 549 q 282 465 317 501 l 282 103 q 303 50 282 63 q 370 37 325 37 l 370 0 l 36 0 l 36 37 l 45 37 q 96 45 78 37 q 119 70 114 52 q 125 115 125 87 l 125 392 q 109 466 125 441 q 40 511 93 491 l 40 534 l 260 604 l 282 604 l 282 511 q 393 581 336 557 q 504 604 450 604 q 575 593 541 604 q 638 558 610 581 q 681 504 666 536 q 796 579 739 553 q 916 604 853 604 q 1016 584 973 604 q 1082 519 1059 563 q 1105 411 1105 475 l 1105 103 q 1113 64 1105 78 q 1140 44 1121 51 q 1192 37 1158 37 l 1192 0 l 863 0 l 863 37 l 879 37 q 933 53 917 37 q 950 109 950 69 l 950 400 q 931 510 950 471 q 857 549 911 549 q 693 465 783 549 m 604 136 l 604 436 q 573 534 604 503 q 484 558 542 564 q 546 508 532 543 q 559 401 559 472 l 559 106 q 553 62 559 77 q 529 33 547 47 q 592 60 580 37 q 604 136 604 83 m 1017 131 l 1017 432 q 1007 499 1017 471 q 970 543 998 526 q 889 558 943 559 q 956 513 939 541 q 972 428 972 485 l 972 142 q 968 69 972 89 q 940 32 963 49 q 990 45 973 31 q 1012 80 1008 58 q 1017 131 1017 102 m 193 126 l 193 414 q 171 489 193 464 q 114 514 149 514 q 82 511 106 514 q 135 466 123 497 q 147 376 147 435 l 147 146 q 143 72 147 92 q 119 37 138 52 q 181 61 169 38 q 193 126 193 84 z "},"n":{"ha":796,"x_min":33,"x_max":771,"o":"m 273 604 l 273 514 q 379 581 330 558 q 494 604 427 604 q 686 414 686 604 l 686 104 q 707 49 686 60 q 771 37 728 37 l 771 0 l 444 0 l 444 37 q 508 51 488 37 q 528 110 528 65 l 528 437 q 516 498 528 473 q 484 536 505 523 q 431 549 462 549 q 355 529 392 549 q 273 468 318 509 l 273 110 q 283 63 273 79 q 311 43 294 47 q 361 37 328 39 l 361 0 l 33 0 l 33 37 q 97 48 75 37 q 119 100 119 60 l 119 400 q 99 472 119 445 q 33 514 79 500 l 33 536 l 248 604 l 273 604 m 142 422 l 142 111 q 137 67 142 81 q 118 37 133 54 q 184 111 184 43 l 184 435 q 160 493 184 469 q 104 517 136 517 q 92 515 101 517 q 81 514 83 514 q 142 422 142 486 m 550 444 l 550 110 q 549 79 550 89 q 544 60 548 69 q 526 37 539 51 l 539 37 q 586 63 574 37 q 597 142 597 90 l 597 441 q 572 530 597 500 q 481 564 546 561 q 534 520 517 549 q 550 444 550 492 z "},"o":{"ha":694,"x_min":41,"x_max":654,"o":"m 41 292 q 82 450 41 378 q 194 563 123 522 q 351 604 265 604 q 505 564 435 604 q 614 454 574 524 q 654 297 654 383 q 630 173 654 231 q 564 72 606 114 q 467 6 522 29 q 349 -17 412 -17 q 194 22 264 -17 q 82 131 123 60 q 41 292 41 201 m 282 9 q 150 136 194 63 q 106 297 106 210 q 127 414 106 363 q 182 500 148 464 q 268 575 216 536 q 153 507 199 551 q 85 406 107 463 q 64 286 64 349 q 78 195 64 240 q 120 115 92 151 q 188 52 147 79 q 282 9 229 24 m 210 330 q 252 103 210 186 q 361 21 294 21 q 424 49 395 21 q 470 133 453 77 q 488 268 488 188 q 450 488 488 409 q 346 567 412 567 q 245 508 281 567 q 210 330 210 448 m 449 45 q 527 133 500 73 q 554 281 554 193 q 421 562 554 496 q 489 446 469 515 q 510 260 510 376 q 495 136 510 186 q 449 45 479 86 z "},"p":{"ha":766,"x_min":18,"x_max":728,"o":"m 264 604 l 264 530 q 355 585 311 566 q 454 604 399 604 q 557 581 507 604 q 645 517 607 558 q 705 419 682 477 q 728 297 728 361 q 686 136 728 208 q 570 23 644 64 q 406 -17 496 -17 q 264 14 334 -17 l 264 -221 q 269 -263 264 -248 q 292 -287 275 -279 q 342 -294 310 -294 l 376 -294 l 376 -332 l 22 -332 l 22 -293 q 74 -288 57 -292 q 100 -272 91 -285 q 109 -233 109 -259 l 109 408 q 88 487 109 460 q 18 530 67 514 l 18 558 l 237 604 l 264 604 m 175 -197 l 175 415 q 150 507 175 478 q 66 530 125 535 q 118 486 104 509 q 131 411 131 463 l 131 -228 q 125 -271 131 -255 q 102 -300 119 -287 q 161 -273 148 -296 q 175 -197 175 -251 m 264 481 l 264 81 q 386 21 328 21 q 471 50 433 21 q 533 136 510 78 q 557 278 557 194 q 534 417 557 360 q 473 502 512 473 q 386 530 434 530 q 264 481 327 530 m 372 551 l 389 551 q 527 480 475 551 q 579 278 579 408 q 553 123 579 178 q 482 32 528 69 q 561 83 530 50 q 608 168 592 117 q 624 282 624 219 q 605 415 624 358 q 558 504 587 471 q 497 552 530 536 q 436 567 465 567 q 372 551 407 567 z "},"q":{"ha":766,"x_min":47,"x_max":755,"o":"m 665 604 l 665 -214 q 670 -258 665 -241 q 687 -284 675 -276 q 715 -294 699 -292 q 755 -296 732 -296 l 755 -334 l 421 -334 l 421 -296 q 492 -281 475 -296 q 510 -220 510 -266 l 510 50 q 415 0 469 19 q 311 -18 361 -18 q 204 2 253 -18 q 120 62 156 22 q 66 155 85 101 q 47 273 47 210 q 86 443 47 368 q 195 561 124 518 q 354 604 265 604 q 546 551 454 604 q 635 604 585 564 l 665 604 m 532 403 l 532 -215 q 526 -268 532 -252 q 504 -296 520 -283 q 559 -274 543 -293 q 576 -218 576 -256 l 576 375 q 553 479 576 442 q 484 538 530 516 q 521 480 511 510 q 532 403 532 450 m 378 12 q 303 17 336 11 q 239 42 271 23 q 176 98 208 60 q 141 152 155 124 q 121 210 127 180 q 114 275 114 239 q 135 399 114 342 q 198 504 155 457 q 309 585 241 551 q 227 557 256 572 q 113 444 157 522 q 69 273 69 367 q 99 137 69 197 q 185 41 130 76 q 313 5 240 5 q 378 12 336 5 m 510 97 l 510 408 q 499 477 510 446 q 470 527 488 507 q 429 556 453 546 q 380 567 406 567 q 296 537 334 567 q 236 447 258 507 q 214 300 214 387 q 259 110 214 178 q 378 43 304 43 q 510 97 446 43 z "},"r":{"ha":521,"x_min":31,"x_max":510,"o":"m 282 604 l 282 500 q 362 582 334 559 q 429 604 390 604 q 487 580 463 604 q 510 519 510 556 q 489 456 510 481 q 436 431 468 431 q 405 436 422 431 q 376 450 388 441 q 362 462 370 456 q 349 471 355 468 q 336 475 343 475 q 311 465 323 475 q 282 437 298 455 l 282 110 q 292 60 282 75 q 322 41 302 45 q 395 37 343 37 l 395 0 l 31 0 l 31 37 l 49 37 q 127 100 127 37 l 127 404 q 31 511 127 482 l 31 534 l 249 604 l 282 604 m 150 404 l 150 96 q 142 61 150 73 q 121 37 135 50 q 176 58 159 41 q 193 118 193 75 l 193 404 q 173 489 193 463 q 109 515 153 515 q 94 514 105 515 q 78 513 82 513 q 150 404 150 481 m 328 500 q 364 488 346 500 q 435 454 406 454 q 486 500 470 454 q 458 490 467 490 q 418 504 438 490 q 375 525 392 525 q 328 500 359 525 z "},"s":{"ha":521,"x_min":32,"x_max":494,"o":"m 43 33 l 43 211 l 79 211 q 187 73 131 119 q 297 26 243 26 q 359 49 332 26 q 386 100 386 71 q 366 151 386 137 q 218 229 289 202 q 32 427 32 298 q 90 553 32 503 q 248 604 149 604 q 341 594 298 604 q 437 564 385 583 l 444 403 l 411 403 q 302 526 356 484 q 196 567 248 567 q 142 546 163 567 q 121 498 121 524 q 147 446 121 465 q 258 389 174 427 q 407 315 343 351 q 471 256 447 294 q 494 174 494 218 q 464 77 494 121 q 381 7 434 33 q 261 -18 328 -18 q 43 33 167 -18 m 68 151 l 68 66 q 180 31 102 52 q 118 83 138 60 q 68 151 98 106 m 400 65 q 427 96 418 82 q 436 134 436 110 q 330 249 436 206 q 180 318 235 288 q 101 381 125 349 q 77 461 77 413 q 93 526 77 490 q 65 483 75 505 q 54 431 54 462 q 100 326 54 366 q 237 245 146 286 q 368 178 328 204 q 408 106 408 152 q 400 65 408 89 m 395 463 l 389 541 q 319 566 344 559 q 245 572 294 572 q 327 531 296 555 q 395 463 357 508 z "},"t":{"ha":449,"x_min":35,"x_max":431,"o":"m 107 164 l 107 550 l 35 550 l 35 585 q 124 653 94 629 q 181 707 154 677 q 227 770 208 737 l 262 770 l 262 593 l 431 593 l 431 550 l 262 550 l 262 144 q 273 78 262 100 q 310 56 284 56 q 355 69 334 56 q 406 111 376 83 l 431 85 q 337 7 380 33 q 240 -18 295 -18 q 159 5 188 -18 q 118 67 130 28 q 107 164 107 107 m 174 665 l 129 628 l 129 178 q 152 46 129 87 q 236 5 176 5 q 300 16 268 5 q 206 44 238 14 q 174 147 174 75 l 174 665 z "},"u":{"ha":796,"x_min":17,"x_max":768,"o":"m 433 553 l 433 593 l 676 593 l 676 131 q 686 90 676 103 q 714 72 696 76 q 762 68 732 68 l 768 68 l 768 29 l 521 -18 l 521 75 q 298 -18 409 -18 q 160 33 212 -18 q 109 179 109 85 l 109 415 q 105 490 109 468 q 82 529 102 513 q 17 553 62 545 l 17 593 l 265 593 l 265 192 q 274 109 265 140 q 305 61 283 77 q 361 45 326 45 q 521 119 436 45 l 521 444 q 433 553 521 547 m 587 87 l 587 452 q 574 527 587 499 q 518 555 562 555 q 508 554 517 555 q 497 553 499 553 q 534 510 524 536 q 543 446 543 485 l 543 16 q 577 40 567 24 q 587 87 587 56 m 176 165 l 176 471 q 110 555 176 555 q 98 554 109 555 q 86 553 88 553 q 123 506 115 531 q 131 443 131 481 l 131 192 q 174 52 131 102 q 292 1 217 1 q 334 4 313 1 q 217 52 257 10 q 176 165 176 93 z "},"v":{"ha":694,"x_min":14,"x_max":679,"o":"m 446 553 l 446 593 l 679 593 l 679 553 q 609 501 637 534 q 554 404 581 469 l 371 -18 l 317 -18 l 115 456 q 71 531 92 510 q 14 553 50 552 l 14 593 l 354 593 l 354 555 l 329 555 q 287 541 304 555 q 269 507 269 526 q 292 439 269 495 l 408 163 l 484 334 q 517 452 517 411 q 499 516 517 490 q 446 553 481 543 m 607 555 l 496 555 q 536 463 536 527 q 607 555 567 527 m 330 7 l 340 8 l 354 35 q 357 53 357 37 q 340 96 357 63 l 184 465 q 145 533 165 511 q 92 555 125 555 l 77 555 q 109 519 96 543 q 134 469 123 495 l 330 7 z "},"w":{"ha":1055,"x_min":17,"x_max":1039,"o":"m 900 383 l 733 -18 l 681 -18 l 528 318 l 387 -18 l 335 -18 l 119 450 q 74 529 94 507 q 17 554 54 551 l 17 593 l 323 593 l 323 554 q 272 513 272 552 q 276 487 272 501 q 286 460 280 473 q 298 433 291 448 l 424 165 l 505 364 l 468 441 q 425 514 446 490 q 371 554 405 539 l 371 593 l 704 593 l 704 554 q 645 544 667 554 q 624 501 624 534 q 629 469 624 484 q 653 412 634 455 l 768 165 l 842 346 q 856 378 848 360 q 870 419 864 396 q 876 468 876 442 q 858 524 876 500 q 806 554 840 548 l 806 593 l 1039 593 l 1039 554 q 900 383 961 533 m 961 555 l 860 555 q 890 523 882 541 q 901 473 898 505 q 924 519 907 496 q 961 555 941 542 m 493 440 l 690 12 l 699 12 q 711 49 711 32 q 704 89 711 71 q 684 132 696 106 l 545 433 q 502 514 517 491 q 467 546 486 537 q 412 554 447 554 q 456 510 439 537 q 493 440 473 483 m 164 408 l 346 12 l 357 12 q 367 49 367 35 q 330 149 367 72 l 196 443 q 161 513 174 491 q 129 545 147 535 q 75 554 110 555 q 102 526 90 544 q 130 478 115 509 q 164 408 146 447 z "},"x":{"ha":694,"x_min":14,"x_max":681,"o":"m 681 0 l 343 0 l 343 37 q 399 79 399 45 q 371 134 399 95 l 306 221 l 264 170 q 241 137 250 153 q 232 97 232 121 q 250 58 232 74 q 300 37 267 41 l 300 0 l 21 0 l 21 37 q 84 61 51 41 q 154 111 118 80 q 228 187 189 142 l 282 253 l 104 493 q 56 543 75 532 q 14 558 37 553 l 14 593 l 343 593 l 343 558 q 294 524 294 554 q 319 467 294 501 l 386 376 l 418 415 q 458 507 458 463 q 445 543 458 529 q 406 558 431 556 l 406 593 l 660 593 l 660 558 q 589 531 621 551 q 530 484 557 511 q 469 415 504 456 l 410 345 l 568 127 q 583 106 570 125 q 610 74 596 87 q 640 52 623 60 q 681 37 657 43 l 681 0 m 135 493 l 389 147 q 421 78 421 102 q 403 37 421 57 l 419 37 q 453 52 437 37 q 469 83 469 66 q 425 174 469 113 l 191 493 q 152 539 165 527 q 121 555 138 551 q 75 558 104 559 q 97 539 87 550 q 115 520 107 529 q 127 504 122 511 q 135 493 133 496 m 566 555 l 461 555 q 481 507 481 534 q 476 481 481 494 q 566 555 524 531 m 89 37 l 214 37 q 193 61 199 50 q 187 90 187 71 q 195 122 187 104 q 89 37 144 66 z "},"y":{"ha":694,"x_min":16,"x_max":681,"o":"m 447 593 l 681 593 l 681 558 q 625 523 648 544 q 586 476 602 503 q 551 409 570 450 q 514 319 532 367 l 332 -144 q 136 -334 258 -334 q 67 -312 96 -334 q 39 -258 39 -290 q 61 -213 39 -231 q 115 -195 84 -195 q 148 -202 130 -195 q 183 -217 166 -210 q 215 -225 201 -225 q 296 -132 260 -225 l 332 -35 l 127 440 q 110 483 119 461 q 88 522 100 505 q 59 548 77 538 q 16 558 41 557 l 16 593 l 368 593 l 368 558 q 304 546 326 555 q 282 507 282 536 q 301 432 282 478 l 414 172 l 498 380 q 515 468 515 421 q 447 558 515 544 l 447 593 m 606 555 l 498 555 q 526 522 519 539 q 536 468 533 505 q 567 521 552 503 q 606 555 582 540 m 346 0 l 368 54 l 193 460 q 160 526 174 506 q 129 553 147 546 q 82 558 111 561 q 119 515 109 534 q 150 447 129 496 l 346 0 m 160 -313 q 104 -260 104 -300 q 138 -218 104 -235 q 109 -212 117 -212 q 74 -225 87 -212 q 61 -257 61 -239 q 87 -300 61 -284 q 160 -313 113 -317 z "},"z":{"ha":623,"x_min":31,"x_max":599,"o":"m 558 229 l 599 229 l 553 0 l 31 0 l 31 9 l 399 555 l 321 555 q 192 527 245 555 q 68 419 138 498 l 31 419 l 87 618 l 125 618 q 176 596 149 600 q 265 593 203 593 l 599 593 l 599 578 l 237 37 l 296 37 q 407 64 359 37 q 486 128 454 90 q 558 229 517 165 m 407 37 l 504 37 l 532 150 q 482 90 511 115 q 407 37 453 64 m 366 469 l 75 37 q 121 47 103 38 q 149 68 139 56 q 178 110 159 81 l 479 558 q 424 541 444 556 q 366 469 404 526 m 100 583 l 68 471 q 101 505 84 488 q 138 535 119 522 q 184 558 157 548 q 137 562 153 558 q 100 583 121 566 z "},"{":{"ha":463,"x_min":33,"x_max":431,"o":"m 289 -160 q 326 -255 289 -215 q 431 -302 362 -294 l 431 -335 q 268 -300 335 -334 q 168 -212 201 -265 q 135 -104 135 -159 q 155 8 135 -72 q 175 129 175 88 q 139 233 175 190 q 33 288 103 277 l 33 334 q 111 363 79 340 q 159 418 143 385 q 175 492 175 450 q 169 548 175 515 q 153 620 163 581 q 139 681 143 659 q 135 721 135 702 q 169 834 135 780 q 270 922 202 888 q 431 956 338 956 l 431 924 q 325 876 361 916 q 289 782 289 836 q 296 719 289 754 q 309 655 302 684 q 320 603 316 626 q 325 557 325 579 q 282 426 325 484 q 179 343 239 368 q 133 324 149 331 q 107 314 117 317 q 90 311 96 311 q 265 217 205 276 q 325 65 325 159 q 321 21 325 43 q 306 -47 317 -1 q 292 -113 296 -94 q 289 -160 289 -132 m 204 720 q 358 926 204 855 q 245 880 292 911 q 178 808 199 848 q 157 724 157 767 q 163 677 157 706 q 177 619 170 648 q 191 556 185 590 q 197 494 197 522 q 180 412 197 450 q 131 351 163 374 q 212 418 184 376 q 240 511 240 460 q 235 561 240 536 q 224 611 231 585 q 211 667 217 637 q 204 720 204 697 m 240 110 q 228 173 240 144 q 191 228 216 203 q 131 269 166 253 q 197 127 197 222 q 191 66 197 101 q 178 5 185 32 q 164 -53 171 -21 q 157 -103 157 -84 q 207 -225 157 -170 q 358 -306 257 -281 q 204 -98 204 -233 q 207 -60 204 -75 q 221 -3 210 -45 q 236 61 231 38 q 240 110 240 84 z "},"|":{"ha":306,"x_min":108,"x_max":196,"o":"m 108 -300 l 108 941 l 196 941 l 196 -300 l 108 -300 z "},"}":{"ha":463,"x_min":32,"x_max":431,"o":"m 290 486 q 327 382 290 422 q 431 334 363 342 l 431 288 q 327 239 363 279 q 290 138 290 199 q 297 74 290 113 q 311 4 304 35 q 323 -53 318 -28 q 328 -104 328 -77 q 296 -210 328 -158 q 208 -296 265 -262 q 128 -326 170 -317 q 32 -335 86 -334 l 32 -300 q 110 -273 79 -293 q 156 -223 142 -253 q 171 -158 171 -194 q 154 -33 171 -114 q 138 79 138 48 q 142 121 138 105 q 155 153 146 136 q 176 185 165 170 q 205 225 188 201 q 282 279 230 258 q 366 306 335 299 q 364 307 366 305 q 359 310 362 309 q 241 367 292 330 q 164 448 191 403 q 138 541 138 493 q 142 589 138 565 q 154 652 146 613 q 166 721 162 690 q 171 781 171 752 q 136 873 171 835 q 32 921 101 911 l 32 954 q 160 937 110 954 q 280 852 233 913 q 328 725 328 791 q 323 675 328 699 q 308 601 319 652 q 294 529 297 549 q 290 486 290 509 m 205 66 q 233 175 205 124 q 314 264 261 227 q 200 187 241 241 q 160 65 160 134 q 167 12 160 45 q 180 -49 174 -21 q 192 -103 187 -77 q 197 -160 197 -130 q 175 -244 197 -208 q 109 -307 153 -279 q 209 -236 174 -282 q 243 -135 243 -191 q 238 -91 243 -113 q 226 -44 233 -69 q 212 14 219 -18 q 205 66 205 47 m 243 755 q 209 857 243 812 q 109 926 175 902 q 175 865 153 900 q 197 779 197 829 q 193 726 197 750 q 181 673 188 703 q 167 610 174 644 q 160 553 160 575 q 200 434 160 489 q 314 355 241 380 q 233 444 261 391 q 205 553 205 496 q 209 590 205 572 q 223 650 212 608 q 238 713 233 693 q 243 755 243 734 z "},"~":{"ha":722,"x_min":8,"x_max":747,"o":"m 708 481 l 747 481 q 691 317 743 373 q 564 262 639 262 q 488 273 528 262 q 310 342 448 285 q 167 384 211 384 q 90 356 121 384 q 47 262 59 328 l 8 262 q 63 428 14 374 q 184 481 113 481 q 255 472 220 481 q 444 401 323 452 q 544 363 509 372 q 588 357 564 357 q 669 389 636 357 q 708 481 702 421 z "},"":{"ha":1013,"x_min":14,"x_max":996,"o":"m 677 167 l 602 361 l 281 361 l 236 245 q 218 154 218 201 q 247 74 218 109 q 328 37 276 39 l 328 0 l 14 0 l 14 37 q 183 218 119 53 l 418 819 q 379 862 399 851 q 319 878 359 873 l 319 911 l 482 966 l 545 966 l 859 165 q 913 74 886 98 q 996 37 940 50 l 996 0 l 593 0 l 593 37 q 671 54 645 43 q 697 96 697 64 q 677 167 697 123 m 297 404 l 585 404 l 440 770 l 297 404 m 739 192 l 497 806 q 460 871 479 852 q 408 890 441 890 q 376 888 389 890 q 426 852 409 875 q 457 790 442 829 l 697 176 q 720 92 720 122 q 712 63 720 72 q 682 37 705 54 l 697 37 q 746 54 729 37 q 764 94 764 71 q 739 192 764 127 m 86 37 l 216 37 q 174 121 174 71 q 175 143 174 135 q 138 85 157 109 q 86 37 119 62 m 427 1173 q 400 1108 427 1131 q 340 1085 374 1085 q 278 1109 304 1085 q 252 1170 252 1133 q 278 1233 252 1208 q 340 1257 304 1257 q 401 1233 376 1257 q 427 1173 427 1209 m 358 1104 q 326 1132 337 1118 q 315 1174 315 1146 q 325 1207 315 1189 q 353 1238 334 1226 q 294 1220 315 1238 q 273 1170 273 1201 q 292 1123 273 1143 q 338 1103 311 1103 q 358 1104 350 1103 m 555 1170 q 582 1233 555 1208 q 644 1257 609 1257 q 706 1231 681 1257 q 730 1170 730 1204 q 706 1110 730 1136 q 643 1084 682 1084 q 581 1109 606 1084 q 555 1170 555 1135 m 657 1104 q 621 1171 621 1131 q 663 1238 621 1211 q 657 1239 660 1238 q 651 1239 655 1239 q 599 1219 620 1239 q 578 1170 578 1198 q 597 1122 578 1141 q 657 1104 617 1103 z "},"":{"ha":1013,"x_min":14,"x_max":996,"o":"m 677 167 l 602 361 l 281 361 l 236 245 q 218 154 218 201 q 247 74 218 109 q 328 37 276 39 l 328 0 l 14 0 l 14 37 q 183 218 119 53 l 418 819 q 379 862 399 851 q 319 878 359 873 l 319 911 l 482 966 l 545 966 l 859 165 q 913 74 886 98 q 996 37 940 50 l 996 0 l 593 0 l 593 37 q 671 54 645 43 q 697 96 697 64 q 677 167 697 123 m 297 404 l 585 404 l 440 770 l 297 404 m 739 192 l 497 806 q 460 871 479 852 q 408 890 441 890 q 376 888 389 890 q 426 852 409 875 q 457 790 442 829 l 697 176 q 720 92 720 122 q 712 63 720 72 q 682 37 705 54 l 697 37 q 746 54 729 37 q 764 94 764 71 q 739 192 764 127 m 86 37 l 216 37 q 174 121 174 71 q 175 143 174 135 q 138 85 157 109 q 86 37 119 62 m 616 1139 q 578 1062 616 1093 q 489 1032 541 1032 q 399 1063 433 1032 q 364 1141 364 1094 q 398 1220 364 1188 q 486 1251 431 1251 q 550 1237 520 1251 q 598 1198 581 1223 q 616 1139 616 1173 m 468 1065 l 477 1065 q 537 1086 515 1065 q 559 1141 559 1107 q 468 1217 559 1213 q 515 1141 515 1187 q 468 1065 515 1094 m 493 1137 q 477 1187 493 1166 q 437 1207 461 1207 q 401 1190 416 1207 q 386 1142 386 1172 q 400 1094 386 1112 q 439 1076 415 1076 q 477 1094 462 1076 q 493 1137 493 1111 z "},"":{"ha":1013,"x_min":61,"x_max":987,"o":"m 947 225 l 987 203 q 872 80 937 130 q 731 6 806 31 q 570 -18 655 -18 l 554 -52 q 664 -88 627 -54 q 700 -171 700 -122 q 634 -287 700 -241 q 443 -334 569 -334 q 393 -328 433 -334 l 400 -285 q 497 -255 465 -271 q 530 -200 530 -239 q 516 -169 530 -182 q 472 -157 501 -156 l 533 -18 q 342 25 429 -14 q 193 131 256 64 q 95 286 130 198 q 61 473 61 374 q 100 674 61 581 q 205 834 138 768 q 363 938 272 901 q 555 975 454 975 q 626 969 593 975 q 705 951 659 964 q 766 936 750 939 q 803 932 782 932 q 892 970 857 932 l 947 970 l 947 669 l 905 669 q 837 786 873 736 q 758 870 800 837 q 671 921 717 904 q 574 937 626 937 q 446 906 503 937 q 347 815 388 874 q 284 673 307 757 q 261 493 261 589 q 306 255 261 359 q 431 93 351 151 q 614 35 511 35 q 735 56 677 35 q 847 119 793 77 q 947 225 901 162 m 533 -106 l 513 -140 q 557 -197 557 -155 q 540 -247 557 -227 q 489 -286 524 -267 q 575 -253 545 -279 q 606 -189 606 -226 q 586 -136 606 -159 q 533 -106 567 -113 m 865 799 l 861 914 q 794 900 829 900 q 762 903 777 900 q 820 851 797 876 q 865 799 843 827 m 418 940 q 245 844 313 900 q 177 771 207 812 q 126 684 147 730 q 95 585 106 638 q 83 481 83 532 q 134 255 83 359 q 283 84 184 152 q 521 0 383 16 q 356 70 431 24 q 230 180 282 116 q 152 320 178 245 q 126 478 126 396 q 200 729 126 612 q 418 940 273 847 z "},"":{"ha":970,"x_min":32,"x_max":951,"o":"m 351 473 l 351 175 q 358 98 351 125 q 385 57 366 71 q 439 41 404 44 q 536 37 475 37 q 670 60 611 37 q 782 127 730 83 q 897 245 835 172 l 951 245 l 867 0 l 32 0 l 32 37 q 124 48 92 39 q 169 78 155 57 q 182 139 182 100 l 182 810 q 170 879 182 857 q 128 908 157 901 q 32 920 99 916 l 32 957 l 833 957 l 916 741 l 867 741 q 771 830 827 790 q 644 895 714 871 q 496 920 574 920 q 403 906 434 920 q 361 869 372 893 q 351 807 351 846 l 351 511 l 488 511 q 668 675 666 511 l 715 675 l 715 315 l 673 315 q 627 436 665 398 q 510 473 589 473 l 351 473 m 799 37 l 846 155 q 773 91 806 112 q 681 37 741 69 l 799 37 m 660 429 l 660 562 q 564 496 633 517 q 623 471 601 486 q 660 429 644 457 m 770 920 l 647 920 q 737 879 698 903 q 821 822 777 855 l 770 920 m 204 804 l 204 149 q 193 76 204 99 q 158 37 181 53 q 231 67 214 38 q 248 160 248 96 l 248 817 q 228 893 248 874 q 158 913 208 911 q 194 877 183 899 q 204 804 204 854 m 355 1063 l 317 1063 l 393 1275 l 593 1275 l 355 1063 m 353 1100 l 478 1238 l 401 1238 l 353 1100 z "},"":{"ha":1114,"x_min":17,"x_max":1090,"o":"m 728 920 l 728 957 l 1090 957 l 1090 920 q 1011 899 1045 918 q 957 844 977 880 q 937 757 937 808 l 950 -21 l 908 -21 l 215 789 l 225 244 q 233 158 227 193 q 258 98 240 123 q 308 57 275 72 q 393 37 341 42 l 393 0 l 33 0 l 33 37 q 138 75 104 43 q 180 156 172 108 q 186 278 189 205 l 176 833 q 101 898 138 876 q 25 920 64 920 l 17 920 l 17 957 l 297 957 l 908 244 l 899 721 q 887 814 899 776 q 850 876 876 852 q 795 908 831 895 q 728 920 760 920 m 965 920 l 817 920 q 872 888 850 908 q 908 832 893 867 q 965 920 924 892 m 859 143 l 248 856 q 202 900 229 880 q 129 920 176 920 l 98 920 q 157 887 136 906 q 216 822 178 867 l 913 11 q 911 49 912 31 q 907 77 910 68 q 894 100 903 86 q 859 143 884 113 m 117 37 l 260 37 q 217 80 230 60 q 196 135 205 100 q 169 80 187 103 q 117 37 151 56 m 760 1274 l 760 1291 l 807 1291 q 808 1277 808 1284 q 808 1263 808 1271 q 787 1172 808 1212 q 730 1112 766 1133 q 652 1090 694 1090 q 586 1101 612 1090 q 496 1142 559 1112 q 410 1171 433 1171 q 365 1151 382 1171 q 346 1090 347 1131 l 307 1090 q 306 1107 307 1100 q 305 1122 306 1114 q 323 1203 305 1165 q 375 1265 340 1242 q 457 1289 409 1289 q 525 1279 490 1289 q 593 1253 559 1268 q 657 1226 626 1238 q 707 1214 688 1214 q 746 1230 732 1214 q 760 1274 760 1246 m 677 1152 q 624 1159 648 1152 q 551 1188 599 1167 q 480 1218 504 1209 q 435 1227 456 1227 q 359 1173 385 1227 q 410 1194 386 1194 q 455 1185 433 1194 q 524 1154 478 1176 q 597 1123 569 1133 q 654 1114 625 1114 q 770 1183 730 1114 q 726 1159 746 1167 q 677 1152 705 1152 z "},"":{"ha":1129,"x_min":60,"x_max":1074,"o":"m 60 482 q 71 598 60 543 q 105 703 83 653 q 161 795 127 752 q 236 872 195 839 q 331 931 280 908 q 441 965 382 954 q 568 975 500 975 q 777 937 682 975 q 937 829 871 898 q 1038 672 1003 761 q 1074 484 1074 583 q 1035 285 1074 377 q 924 125 996 193 q 756 19 852 57 q 549 -18 660 -18 q 353 19 444 -18 q 197 122 262 56 q 96 281 132 189 q 60 482 60 374 m 248 554 q 272 337 248 436 q 342 166 296 238 q 449 57 387 95 q 583 20 511 20 q 699 46 644 20 q 795 124 753 72 q 859 253 836 176 q 882 432 882 330 q 856 638 882 543 q 783 799 829 732 q 673 901 736 865 q 538 937 610 937 q 421 910 475 937 q 329 832 367 883 q 269 711 290 782 q 248 554 248 641 m 311 900 q 140 723 199 831 q 82 481 82 616 q 120 276 82 369 q 232 118 158 184 q 415 16 306 52 q 203 202 282 83 q 125 493 125 321 q 145 648 125 579 q 208 779 166 718 q 311 900 250 840 m 665 928 q 796 815 742 887 q 877 644 850 744 q 904 425 904 545 q 873 229 904 312 q 786 82 842 146 q 878 177 842 124 q 930 298 913 231 q 947 450 947 366 q 914 673 947 572 q 816 842 880 775 q 665 928 752 909 m 499 1173 q 473 1108 499 1131 q 413 1085 446 1085 q 350 1109 376 1085 q 324 1170 324 1133 q 350 1233 324 1208 q 413 1257 376 1257 q 474 1233 449 1257 q 499 1173 499 1209 m 431 1104 q 399 1132 410 1118 q 388 1174 388 1146 q 397 1207 388 1189 q 425 1238 407 1226 q 367 1220 388 1238 q 346 1170 346 1201 q 365 1123 346 1143 q 410 1103 383 1103 q 431 1104 422 1103 m 628 1170 q 655 1233 628 1208 q 717 1257 682 1257 q 778 1231 753 1257 q 803 1170 803 1204 q 779 1110 803 1136 q 715 1084 755 1084 q 653 1109 679 1084 q 628 1170 628 1135 m 730 1104 q 693 1171 693 1131 q 735 1238 693 1211 q 730 1239 732 1238 q 724 1239 728 1239 q 671 1219 692 1239 q 650 1170 650 1198 q 670 1122 650 1141 q 730 1104 690 1103 z "},"":{"ha":1129,"x_min":35,"x_max":1096,"o":"m 186 292 l 186 808 q 171 881 186 859 q 127 909 155 903 q 35 920 99 914 l 35 957 l 494 957 l 494 920 q 413 910 440 916 q 371 882 386 903 q 357 815 357 861 l 357 277 q 390 148 357 202 q 486 65 424 93 q 629 37 547 37 q 780 69 715 37 q 882 165 845 101 q 918 321 918 230 l 918 633 q 903 800 918 739 q 850 888 887 860 q 747 920 814 916 l 747 957 l 1096 957 l 1096 920 q 1006 878 1036 911 q 966 788 976 844 q 956 652 956 733 l 956 301 q 929 169 956 229 q 851 67 902 110 q 729 3 800 25 q 566 -18 657 -18 q 243 104 347 -18 q 198 187 211 144 q 186 292 186 231 m 253 288 l 253 829 q 157 920 253 930 q 208 822 208 899 l 208 281 q 276 99 208 165 q 479 4 344 34 q 391 48 427 26 q 322 101 354 69 q 272 180 290 133 q 253 288 253 227 m 978 920 l 839 920 q 918 812 901 891 q 940 877 926 851 q 978 920 953 903 m 513 1173 q 486 1108 513 1131 q 427 1085 460 1085 q 364 1109 390 1085 q 338 1170 338 1133 q 364 1233 338 1208 q 427 1257 390 1257 q 488 1233 463 1257 q 513 1173 513 1209 m 444 1104 q 412 1132 423 1118 q 401 1174 401 1146 q 411 1207 401 1189 q 439 1238 420 1226 q 380 1220 401 1238 q 359 1170 359 1201 q 378 1123 359 1143 q 424 1103 397 1103 q 444 1104 436 1103 m 642 1170 q 668 1233 642 1208 q 730 1257 695 1257 q 792 1231 767 1257 q 817 1170 817 1204 q 792 1110 817 1136 q 729 1084 768 1084 q 667 1109 692 1084 q 642 1170 642 1135 m 743 1104 q 707 1171 707 1131 q 749 1238 707 1211 q 744 1239 746 1238 q 737 1239 741 1239 q 685 1219 706 1239 q 664 1170 664 1198 q 684 1122 664 1141 q 743 1104 703 1103 z "},"":{"ha":623,"x_min":39,"x_max":599,"o":"m 197 525 q 206 505 197 522 q 215 473 215 488 q 191 421 215 444 q 131 399 167 399 q 76 417 96 399 q 56 458 56 435 q 90 528 56 494 q 184 583 124 562 q 317 604 244 604 q 415 586 370 604 q 488 530 461 568 q 515 440 515 493 l 515 96 q 539 54 515 54 q 574 77 553 54 l 599 47 q 537 -3 566 14 q 471 -20 509 -20 q 401 0 426 -20 q 366 62 376 20 q 180 -18 272 -18 q 77 16 115 -18 q 39 102 39 50 q 62 181 39 149 q 124 240 85 214 q 237 304 162 265 q 359 371 311 343 l 359 473 q 338 543 359 519 q 275 567 317 567 q 218 554 239 567 q 197 525 197 541 m 382 429 l 382 161 q 399 43 382 82 q 465 4 416 4 q 501 9 488 4 q 444 42 460 16 q 427 125 427 68 l 427 436 q 407 533 427 507 q 338 566 387 560 q 373 526 364 552 q 382 429 382 500 m 359 107 l 359 325 q 238 237 273 276 q 204 142 204 197 q 224 84 204 104 q 272 64 245 64 q 359 107 315 64 m 240 14 q 141 39 178 14 q 104 111 104 64 q 122 177 104 146 q 176 245 140 208 q 91 180 121 214 q 61 102 61 147 q 97 33 61 60 q 176 5 134 5 q 240 14 218 5 m 176 441 q 139 451 152 439 q 126 478 126 463 q 138 516 126 499 q 178 564 149 532 q 104 515 130 539 q 78 460 78 490 q 92 434 78 446 q 125 422 106 422 q 176 441 157 422 m 214 692 l 176 692 l 253 904 l 453 904 l 214 692 m 213 729 l 338 867 l 261 867 l 213 729 z "},"":{"ha":623,"x_min":39,"x_max":599,"o":"m 197 525 q 206 505 197 522 q 215 473 215 488 q 191 421 215 444 q 131 399 167 399 q 76 417 96 399 q 56 458 56 435 q 90 528 56 494 q 184 583 124 562 q 317 604 244 604 q 415 586 370 604 q 488 530 461 568 q 515 440 515 493 l 515 96 q 539 54 515 54 q 574 77 553 54 l 599 47 q 537 -3 566 14 q 471 -20 509 -20 q 401 0 426 -20 q 366 62 376 20 q 180 -18 272 -18 q 77 16 115 -18 q 39 102 39 50 q 62 181 39 149 q 124 240 85 214 q 237 304 162 265 q 359 371 311 343 l 359 473 q 338 543 359 519 q 275 567 317 567 q 218 554 239 567 q 197 525 197 541 m 382 429 l 382 161 q 399 43 382 82 q 465 4 416 4 q 501 9 488 4 q 444 42 460 16 q 427 125 427 68 l 427 436 q 407 533 427 507 q 338 566 387 560 q 373 526 364 552 q 382 429 382 500 m 359 107 l 359 325 q 238 237 273 276 q 204 142 204 197 q 224 84 204 104 q 272 64 245 64 q 359 107 315 64 m 240 14 q 141 39 178 14 q 104 111 104 64 q 122 177 104 146 q 176 245 140 208 q 91 180 121 214 q 61 102 61 147 q 97 33 61 60 q 176 5 134 5 q 240 14 218 5 m 176 441 q 139 451 152 439 q 126 478 126 463 q 138 516 126 499 q 178 564 149 532 q 104 515 130 539 q 78 460 78 490 q 92 434 78 446 q 125 422 106 422 q 176 441 157 422 m 458 696 l 414 696 l 167 905 l 374 905 l 458 696 m 400 734 l 336 868 l 242 868 l 400 734 z "},"":{"ha":623,"x_min":39,"x_max":599,"o":"m 197 525 q 206 505 197 522 q 215 473 215 488 q 191 421 215 444 q 131 399 167 399 q 76 417 96 399 q 56 458 56 435 q 90 528 56 494 q 184 583 124 562 q 317 604 244 604 q 415 586 370 604 q 488 530 461 568 q 515 440 515 493 l 515 96 q 539 54 515 54 q 574 77 553 54 l 599 47 q 537 -3 566 14 q 471 -20 509 -20 q 401 0 426 -20 q 366 62 376 20 q 180 -18 272 -18 q 77 16 115 -18 q 39 102 39 50 q 62 181 39 149 q 124 240 85 214 q 237 304 162 265 q 359 371 311 343 l 359 473 q 338 543 359 519 q 275 567 317 567 q 218 554 239 567 q 197 525 197 541 m 382 429 l 382 161 q 399 43 382 82 q 465 4 416 4 q 501 9 488 4 q 444 42 460 16 q 427 125 427 68 l 427 436 q 407 533 427 507 q 338 566 387 560 q 373 526 364 552 q 382 429 382 500 m 359 107 l 359 325 q 238 237 273 276 q 204 142 204 197 q 224 84 204 104 q 272 64 245 64 q 359 107 315 64 m 240 14 q 141 39 178 14 q 104 111 104 64 q 122 177 104 146 q 176 245 140 208 q 91 180 121 214 q 61 102 61 147 q 97 33 61 60 q 176 5 134 5 q 240 14 218 5 m 176 441 q 139 451 152 439 q 126 478 126 463 q 138 516 126 499 q 178 564 149 532 q 104 515 130 539 q 78 460 78 490 q 92 434 78 446 q 125 422 106 422 q 176 441 157 422 m 136 701 l 87 701 l 258 913 l 376 913 l 532 701 l 456 701 l 290 812 l 136 701 m 450 730 l 325 875 l 257 875 l 135 725 l 290 839 l 450 730 z "},"":{"ha":623,"x_min":39,"x_max":599,"o":"m 197 525 q 206 505 197 522 q 215 473 215 488 q 191 421 215 444 q 131 399 167 399 q 76 417 96 399 q 56 458 56 435 q 90 528 56 494 q 184 583 124 562 q 317 604 244 604 q 415 586 370 604 q 488 530 461 568 q 515 440 515 493 l 515 96 q 539 54 515 54 q 574 77 553 54 l 599 47 q 537 -3 566 14 q 471 -20 509 -20 q 401 0 426 -20 q 366 62 376 20 q 180 -18 272 -18 q 77 16 115 -18 q 39 102 39 50 q 62 181 39 149 q 124 240 85 214 q 237 304 162 265 q 359 371 311 343 l 359 473 q 338 543 359 519 q 275 567 317 567 q 218 554 239 567 q 197 525 197 541 m 382 429 l 382 161 q 399 43 382 82 q 465 4 416 4 q 501 9 488 4 q 444 42 460 16 q 427 125 427 68 l 427 436 q 407 533 427 507 q 338 566 387 560 q 373 526 364 552 q 382 429 382 500 m 359 107 l 359 325 q 238 237 273 276 q 204 142 204 197 q 224 84 204 104 q 272 64 245 64 q 359 107 315 64 m 240 14 q 141 39 178 14 q 104 111 104 64 q 122 177 104 146 q 176 245 140 208 q 91 180 121 214 q 61 102 61 147 q 97 33 61 60 q 176 5 134 5 q 240 14 218 5 m 176 441 q 139 451 152 439 q 126 478 126 463 q 138 516 126 499 q 178 564 149 532 q 104 515 130 539 q 78 460 78 490 q 92 434 78 446 q 125 422 106 422 q 176 441 157 422 m 245 802 q 218 737 245 760 q 159 714 192 714 q 96 738 122 714 q 70 799 70 762 q 96 862 70 837 q 159 886 122 886 q 220 862 195 886 q 245 802 245 838 m 176 733 q 144 761 155 747 q 134 803 134 775 q 143 837 134 818 q 171 867 153 855 q 113 849 134 867 q 92 799 92 830 q 110 752 92 772 q 156 732 129 732 q 176 733 168 732 m 374 799 q 400 862 374 837 q 463 886 427 886 q 524 860 499 886 q 549 799 549 833 q 525 739 549 765 q 461 713 500 713 q 399 738 425 713 q 374 799 374 764 m 475 733 q 439 800 439 760 q 481 867 439 840 q 476 868 478 867 q 469 868 473 868 q 417 848 438 868 q 396 799 396 827 q 416 751 396 770 q 475 733 435 732 z "},"":{"ha":623,"x_min":39,"x_max":599,"o":"m 197 525 q 206 505 197 522 q 215 473 215 488 q 191 421 215 444 q 131 399 167 399 q 76 417 96 399 q 56 458 56 435 q 90 528 56 494 q 184 583 124 562 q 317 604 244 604 q 415 586 370 604 q 488 530 461 568 q 515 440 515 493 l 515 96 q 539 54 515 54 q 574 77 553 54 l 599 47 q 537 -3 566 14 q 471 -20 509 -20 q 401 0 426 -20 q 366 62 376 20 q 180 -18 272 -18 q 77 16 115 -18 q 39 102 39 50 q 62 181 39 149 q 124 240 85 214 q 237 304 162 265 q 359 371 311 343 l 359 473 q 338 543 359 519 q 275 567 317 567 q 218 554 239 567 q 197 525 197 541 m 382 429 l 382 161 q 399 43 382 82 q 465 4 416 4 q 501 9 488 4 q 444 42 460 16 q 427 125 427 68 l 427 436 q 407 533 427 507 q 338 566 387 560 q 373 526 364 552 q 382 429 382 500 m 359 107 l 359 325 q 238 237 273 276 q 204 142 204 197 q 224 84 204 104 q 272 64 245 64 q 359 107 315 64 m 240 14 q 141 39 178 14 q 104 111 104 64 q 122 177 104 146 q 176 245 140 208 q 91 180 121 214 q 61 102 61 147 q 97 33 61 60 q 176 5 134 5 q 240 14 218 5 m 176 441 q 139 451 152 439 q 126 478 126 463 q 138 516 126 499 q 178 564 149 532 q 104 515 130 539 q 78 460 78 490 q 92 434 78 446 q 125 422 106 422 q 176 441 157 422 m 514 903 l 514 920 l 562 920 q 563 906 562 913 q 563 892 563 900 q 542 801 563 841 q 485 741 521 762 q 407 720 449 720 q 340 730 367 720 q 251 771 314 741 q 164 800 188 800 q 119 780 137 800 q 100 720 101 760 l 61 720 q 61 736 61 729 q 60 751 60 743 q 77 832 60 794 q 129 895 95 871 q 212 918 163 918 q 279 908 244 918 q 347 882 314 897 q 411 855 380 867 q 461 843 442 843 q 500 859 486 843 q 514 903 514 875 m 432 781 q 378 788 403 781 q 306 817 353 796 q 235 847 258 838 q 189 856 211 856 q 114 802 140 856 q 164 823 140 823 q 210 814 187 823 q 278 783 233 805 q 351 752 323 762 q 408 743 379 743 q 525 812 484 743 q 480 788 500 796 q 432 781 460 781 z "},"":{"ha":623,"x_min":39,"x_max":599,"o":"m 197 525 q 206 505 197 522 q 215 473 215 488 q 191 421 215 444 q 131 399 167 399 q 76 417 96 399 q 56 458 56 435 q 90 528 56 494 q 184 583 124 562 q 317 604 244 604 q 415 586 370 604 q 488 530 461 568 q 515 440 515 493 l 515 96 q 539 54 515 54 q 574 77 553 54 l 599 47 q 537 -3 566 14 q 471 -20 509 -20 q 401 0 426 -20 q 366 62 376 20 q 180 -18 272 -18 q 77 16 115 -18 q 39 102 39 50 q 62 181 39 149 q 124 240 85 214 q 237 304 162 265 q 359 371 311 343 l 359 473 q 338 543 359 519 q 275 567 317 567 q 218 554 239 567 q 197 525 197 541 m 382 429 l 382 161 q 399 43 382 82 q 465 4 416 4 q 501 9 488 4 q 444 42 460 16 q 427 125 427 68 l 427 436 q 407 533 427 507 q 338 566 387 560 q 373 526 364 552 q 382 429 382 500 m 359 107 l 359 325 q 238 237 273 276 q 204 142 204 197 q 224 84 204 104 q 272 64 245 64 q 359 107 315 64 m 240 14 q 141 39 178 14 q 104 111 104 64 q 122 177 104 146 q 176 245 140 208 q 91 180 121 214 q 61 102 61 147 q 97 33 61 60 q 176 5 134 5 q 240 14 218 5 m 176 441 q 139 451 152 439 q 126 478 126 463 q 138 516 126 499 q 178 564 149 532 q 104 515 130 539 q 78 460 78 490 q 92 434 78 446 q 125 422 106 422 q 176 441 157 422 m 435 768 q 397 691 435 722 q 307 661 359 661 q 217 692 252 661 q 182 770 182 723 q 216 849 182 817 q 304 880 250 880 q 369 866 338 880 q 417 827 399 852 q 435 768 435 802 m 286 694 l 296 694 q 355 715 333 694 q 378 770 378 736 q 286 846 378 842 q 334 770 334 816 q 286 694 334 723 m 311 766 q 295 816 311 795 q 256 836 279 836 q 219 819 234 836 q 204 771 204 801 q 219 723 204 741 q 257 705 233 705 q 296 723 280 705 q 311 766 311 740 z "},"":{"ha":623,"x_min":41,"x_max":603,"o":"m 447 524 q 428 554 447 542 q 382 567 409 567 q 290 537 331 567 q 225 453 248 508 q 201 328 201 397 q 229 211 201 263 q 303 129 256 158 q 404 100 349 100 q 499 120 450 100 q 579 174 549 141 l 603 142 q 488 32 554 72 q 347 -17 421 -9 l 326 -62 q 399 -106 372 -75 q 425 -172 425 -138 q 396 -252 425 -216 q 314 -311 368 -289 q 191 -334 260 -334 q 171 -332 182 -333 q 157 -332 160 -332 l 157 -296 q 261 -271 226 -292 q 297 -216 297 -250 q 239 -163 297 -176 l 304 -17 q 209 9 256 -14 q 123 72 161 33 q 63 163 85 111 q 41 275 41 214 q 65 400 41 340 q 133 506 90 460 q 238 577 177 551 q 374 604 299 604 q 482 586 433 604 q 559 536 531 568 q 587 467 587 505 q 563 412 587 433 q 505 390 538 390 q 455 411 475 390 q 435 457 435 433 q 441 488 435 462 q 447 524 447 514 m 304 -117 l 285 -154 q 310 -181 300 -167 q 319 -214 319 -195 q 300 -265 319 -244 q 244 -302 281 -286 q 307 -280 279 -295 q 349 -244 335 -264 q 363 -201 363 -224 q 348 -153 363 -172 q 304 -117 333 -134 m 457 457 q 474 425 457 435 q 510 414 490 414 q 543 419 516 414 q 501 463 501 428 q 504 478 501 465 q 507 500 507 491 q 454 557 507 537 q 469 518 469 536 q 463 487 469 507 q 457 457 457 467 m 267 562 q 156 495 201 538 q 87 396 111 452 q 64 281 64 339 q 102 138 64 201 q 201 39 140 75 q 328 4 263 4 q 416 20 370 4 q 503 66 462 37 q 359 37 414 37 q 233 68 290 37 q 141 155 175 100 q 107 279 107 211 q 148 432 107 359 q 267 562 189 505 z "},"":{"ha":623,"x_min":45,"x_max":593,"o":"m 566 168 l 593 147 q 520 54 562 90 q 428 -1 478 17 q 322 -18 377 -18 q 183 18 248 -18 q 82 121 119 54 q 45 275 45 189 q 67 403 45 343 q 131 508 90 463 q 224 579 171 553 q 338 604 277 604 q 454 579 399 604 q 542 509 509 553 q 576 442 566 476 q 593 359 587 408 l 183 359 q 207 240 186 289 q 263 161 229 191 q 336 119 297 132 q 410 106 374 106 q 566 168 495 106 m 446 403 l 493 403 q 462 515 491 479 q 364 564 433 551 q 427 512 408 544 q 446 416 446 481 l 446 403 m 187 403 l 424 403 l 424 425 q 410 495 424 465 q 371 543 395 526 q 314 559 346 559 q 227 514 262 559 q 187 403 191 468 m 193 536 q 66 273 66 436 q 142 80 66 155 q 317 5 218 5 q 432 29 374 5 q 530 98 490 52 q 446 55 489 72 q 343 39 403 39 q 175 109 242 39 q 107 293 107 180 q 130 422 107 365 q 193 536 152 479 m 214 692 l 176 692 l 253 904 l 453 904 l 214 692 m 213 729 l 338 867 l 261 867 l 213 729 z "},"":{"ha":623,"x_min":45,"x_max":593,"o":"m 566 168 l 593 147 q 520 54 562 90 q 428 -1 478 17 q 322 -18 377 -18 q 183 18 248 -18 q 82 121 119 54 q 45 275 45 189 q 67 403 45 343 q 131 508 90 463 q 224 579 171 553 q 338 604 277 604 q 454 579 399 604 q 542 509 509 553 q 576 442 566 476 q 593 359 587 408 l 183 359 q 207 240 186 289 q 263 161 229 191 q 336 119 297 132 q 410 106 374 106 q 566 168 495 106 m 446 403 l 493 403 q 462 515 491 479 q 364 564 433 551 q 427 512 408 544 q 446 416 446 481 l 446 403 m 187 403 l 424 403 l 424 425 q 410 495 424 465 q 371 543 395 526 q 314 559 346 559 q 227 514 262 559 q 187 403 191 468 m 193 536 q 66 273 66 436 q 142 80 66 155 q 317 5 218 5 q 432 29 374 5 q 530 98 490 52 q 446 55 489 72 q 343 39 403 39 q 175 109 242 39 q 107 293 107 180 q 130 422 107 365 q 193 536 152 479 m 458 696 l 414 696 l 167 905 l 374 905 l 458 696 m 400 734 l 336 868 l 242 868 l 400 734 z "},"":{"ha":623,"x_min":45,"x_max":593,"o":"m 566 168 l 593 147 q 520 54 562 90 q 428 -1 478 17 q 322 -18 377 -18 q 183 18 248 -18 q 82 121 119 54 q 45 275 45 189 q 67 403 45 343 q 131 508 90 463 q 224 579 171 553 q 338 604 277 604 q 454 579 399 604 q 542 509 509 553 q 576 442 566 476 q 593 359 587 408 l 183 359 q 207 240 186 289 q 263 161 229 191 q 336 119 297 132 q 410 106 374 106 q 566 168 495 106 m 446 403 l 493 403 q 462 515 491 479 q 364 564 433 551 q 427 512 408 544 q 446 416 446 481 l 446 403 m 187 403 l 424 403 l 424 425 q 410 495 424 465 q 371 543 395 526 q 314 559 346 559 q 227 514 262 559 q 187 403 191 468 m 193 536 q 66 273 66 436 q 142 80 66 155 q 317 5 218 5 q 432 29 374 5 q 530 98 490 52 q 446 55 489 72 q 343 39 403 39 q 175 109 242 39 q 107 293 107 180 q 130 422 107 365 q 193 536 152 479 m 136 701 l 87 701 l 258 913 l 376 913 l 532 701 l 456 701 l 290 812 l 136 701 m 450 730 l 325 875 l 257 875 l 135 725 l 290 839 l 450 730 z "},"":{"ha":623,"x_min":45,"x_max":593,"o":"m 566 168 l 593 147 q 520 54 562 90 q 428 -1 478 17 q 322 -18 377 -18 q 183 18 248 -18 q 82 121 119 54 q 45 275 45 189 q 67 403 45 343 q 131 508 90 463 q 224 579 171 553 q 338 604 277 604 q 454 579 399 604 q 542 509 509 553 q 576 442 566 476 q 593 359 587 408 l 183 359 q 207 240 186 289 q 263 161 229 191 q 336 119 297 132 q 410 106 374 106 q 566 168 495 106 m 446 403 l 493 403 q 462 515 491 479 q 364 564 433 551 q 427 512 408 544 q 446 416 446 481 l 446 403 m 187 403 l 424 403 l 424 425 q 410 495 424 465 q 371 543 395 526 q 314 559 346 559 q 227 514 262 559 q 187 403 191 468 m 193 536 q 66 273 66 436 q 142 80 66 155 q 317 5 218 5 q 432 29 374 5 q 530 98 490 52 q 446 55 489 72 q 343 39 403 39 q 175 109 242 39 q 107 293 107 180 q 130 422 107 365 q 193 536 152 479 m 245 802 q 218 737 245 760 q 159 714 192 714 q 96 738 122 714 q 70 799 70 762 q 96 862 70 837 q 159 886 122 886 q 220 862 195 886 q 245 802 245 838 m 176 733 q 144 761 155 747 q 134 803 134 775 q 143 837 134 818 q 171 867 153 855 q 113 849 134 867 q 92 799 92 830 q 110 752 92 772 q 156 732 129 732 q 176 733 168 732 m 374 799 q 400 862 374 837 q 463 886 427 886 q 524 860 499 886 q 549 799 549 833 q 525 739 549 765 q 461 713 500 713 q 399 738 425 713 q 374 799 374 764 m 475 733 q 439 800 439 760 q 481 867 439 840 q 476 868 478 867 q 469 868 473 868 q 417 848 438 868 q 396 799 396 827 q 416 751 396 770 q 475 733 435 732 z "},"":{"ha":376,"x_min":39,"x_max":355,"o":"m 269 604 l 269 114 q 276 67 269 83 q 300 45 282 51 q 355 37 318 39 l 355 0 l 39 0 l 39 37 q 90 47 75 38 q 110 74 106 57 q 114 131 114 92 l 114 421 q 94 475 114 450 q 39 513 75 500 l 39 534 l 241 604 l 269 604 m 136 419 l 136 114 q 129 68 136 83 q 103 37 122 53 l 118 37 q 180 110 180 37 l 180 428 q 159 495 180 471 q 104 518 138 518 q 79 517 89 518 q 136 419 136 487 m 92 692 l 54 692 l 131 904 l 331 904 l 92 692 m 91 729 l 216 867 l 139 867 l 91 729 z "},"":{"ha":376,"x_min":39,"x_max":355,"o":"m 269 604 l 269 114 q 276 67 269 83 q 300 45 282 51 q 355 37 318 39 l 355 0 l 39 0 l 39 37 q 90 47 75 38 q 110 74 106 57 q 114 131 114 92 l 114 421 q 94 475 114 450 q 39 513 75 500 l 39 534 l 241 604 l 269 604 m 136 419 l 136 114 q 129 68 136 83 q 103 37 122 53 l 118 37 q 180 110 180 37 l 180 428 q 159 495 180 471 q 104 518 138 518 q 79 517 89 518 q 136 419 136 487 m 336 696 l 292 696 l 45 905 l 252 905 l 336 696 m 278 734 l 214 868 l 120 868 l 278 734 z "},"":{"ha":376,"x_min":-35,"x_max":410,"o":"m 269 604 l 269 114 q 276 67 269 83 q 300 45 282 51 q 355 37 318 39 l 355 0 l 39 0 l 39 37 q 90 47 75 38 q 110 74 106 57 q 114 131 114 92 l 114 421 q 94 475 114 450 q 39 513 75 500 l 39 534 l 241 604 l 269 604 m 136 419 l 136 114 q 129 68 136 83 q 103 37 122 53 l 118 37 q 180 110 180 37 l 180 428 q 159 495 180 471 q 104 518 138 518 q 79 517 89 518 q 136 419 136 487 m 14 701 l -35 701 l 136 913 l 254 913 l 410 701 l 334 701 l 168 812 l 14 701 m 328 730 l 203 875 l 135 875 l 13 725 l 168 839 l 328 730 z "},"":{"ha":376,"x_min":-52,"x_max":427,"o":"m 269 604 l 269 114 q 276 67 269 83 q 300 45 282 51 q 355 37 318 39 l 355 0 l 39 0 l 39 37 q 90 47 75 38 q 110 74 106 57 q 114 131 114 92 l 114 421 q 94 475 114 450 q 39 513 75 500 l 39 534 l 241 604 l 269 604 m 136 419 l 136 114 q 129 68 136 83 q 103 37 122 53 l 118 37 q 180 110 180 37 l 180 428 q 159 495 180 471 q 104 518 138 518 q 79 517 89 518 q 136 419 136 487 m 123 802 q 96 737 123 760 q 37 714 70 714 q -26 738 0 714 q -52 799 -52 762 q -26 862 -52 837 q 37 886 0 886 q 98 862 73 886 q 123 802 123 838 m 54 733 q 22 761 33 747 q 12 803 12 775 q 21 837 12 818 q 49 867 31 855 q -9 849 12 867 q -31 799 -31 830 q -12 752 -31 772 q 34 732 7 732 q 54 733 46 732 m 252 799 q 278 862 252 837 q 340 886 305 886 q 402 860 377 886 q 427 799 427 833 q 402 739 427 765 q 339 713 378 713 q 277 738 302 713 q 252 799 252 764 m 353 733 q 317 800 317 760 q 359 867 317 840 q 354 868 356 867 q 347 868 351 868 q 295 848 316 868 q 274 799 274 827 q 294 751 274 770 q 353 733 313 732 z "},"":{"ha":796,"x_min":33,"x_max":771,"o":"m 273 604 l 273 514 q 379 581 330 558 q 494 604 427 604 q 686 414 686 604 l 686 104 q 707 49 686 60 q 771 37 728 37 l 771 0 l 444 0 l 444 37 q 508 51 488 37 q 528 110 528 65 l 528 437 q 516 498 528 473 q 484 536 505 523 q 431 549 462 549 q 355 529 392 549 q 273 468 318 509 l 273 110 q 283 63 273 79 q 311 43 294 47 q 361 37 328 39 l 361 0 l 33 0 l 33 37 q 97 48 75 37 q 119 100 119 60 l 119 400 q 99 472 119 445 q 33 514 79 500 l 33 536 l 248 604 l 273 604 m 142 422 l 142 111 q 137 67 142 81 q 118 37 133 54 q 184 111 184 43 l 184 435 q 160 493 184 469 q 104 517 136 517 q 92 515 101 517 q 81 514 83 514 q 142 422 142 486 m 550 444 l 550 110 q 549 79 550 89 q 544 60 548 69 q 526 37 539 51 l 539 37 q 586 63 574 37 q 597 142 597 90 l 597 441 q 572 530 597 500 q 481 564 546 561 q 534 520 517 549 q 550 444 550 492 m 602 903 l 602 920 l 649 920 q 650 906 650 913 q 650 892 650 900 q 629 801 650 841 q 572 741 608 762 q 494 720 536 720 q 428 730 454 720 q 338 771 401 741 q 252 800 275 800 q 207 780 224 800 q 188 720 189 760 l 149 720 q 148 736 149 729 q 147 751 148 743 q 165 832 147 794 q 217 895 182 871 q 299 918 251 918 q 367 908 332 918 q 435 882 401 897 q 499 855 468 867 q 549 843 530 843 q 588 859 574 843 q 602 903 602 875 m 519 781 q 466 788 490 781 q 393 817 441 796 q 322 847 346 838 q 277 856 298 856 q 201 802 227 856 q 252 823 228 823 q 297 814 275 823 q 366 783 320 805 q 439 752 411 762 q 496 743 467 743 q 612 812 572 743 q 568 788 588 796 q 519 781 547 781 z "},"":{"ha":694,"x_min":41,"x_max":654,"o":"m 41 292 q 82 450 41 378 q 194 563 123 522 q 351 604 265 604 q 505 564 435 604 q 614 454 574 524 q 654 297 654 383 q 630 173 654 231 q 564 72 606 114 q 467 6 522 29 q 349 -17 412 -17 q 194 22 264 -17 q 82 131 123 60 q 41 292 41 201 m 282 9 q 150 136 194 63 q 106 297 106 210 q 127 414 106 363 q 182 500 148 464 q 268 575 216 536 q 153 507 199 551 q 85 406 107 463 q 64 286 64 349 q 78 195 64 240 q 120 115 92 151 q 188 52 147 79 q 282 9 229 24 m 210 330 q 252 103 210 186 q 361 21 294 21 q 424 49 395 21 q 470 133 453 77 q 488 268 488 188 q 450 488 488 409 q 346 567 412 567 q 245 508 281 567 q 210 330 210 448 m 449 45 q 527 133 500 73 q 554 281 554 193 q 421 562 554 496 q 489 446 469 515 q 510 260 510 376 q 495 136 510 186 q 449 45 479 86 m 250 692 l 212 692 l 289 904 l 489 904 l 250 692 m 249 729 l 374 867 l 297 867 l 249 729 z "},"":{"ha":694,"x_min":41,"x_max":654,"o":"m 41 292 q 82 450 41 378 q 194 563 123 522 q 351 604 265 604 q 505 564 435 604 q 614 454 574 524 q 654 297 654 383 q 630 173 654 231 q 564 72 606 114 q 467 6 522 29 q 349 -17 412 -17 q 194 22 264 -17 q 82 131 123 60 q 41 292 41 201 m 282 9 q 150 136 194 63 q 106 297 106 210 q 127 414 106 363 q 182 500 148 464 q 268 575 216 536 q 153 507 199 551 q 85 406 107 463 q 64 286 64 349 q 78 195 64 240 q 120 115 92 151 q 188 52 147 79 q 282 9 229 24 m 210 330 q 252 103 210 186 q 361 21 294 21 q 424 49 395 21 q 470 133 453 77 q 488 268 488 188 q 450 488 488 409 q 346 567 412 567 q 245 508 281 567 q 210 330 210 448 m 449 45 q 527 133 500 73 q 554 281 554 193 q 421 562 554 496 q 489 446 469 515 q 510 260 510 376 q 495 136 510 186 q 449 45 479 86 m 494 696 l 450 696 l 203 905 l 410 905 l 494 696 m 436 734 l 372 868 l 278 868 l 436 734 z "},"":{"ha":694,"x_min":41,"x_max":654,"o":"m 41 292 q 82 450 41 378 q 194 563 123 522 q 351 604 265 604 q 505 564 435 604 q 614 454 574 524 q 654 297 654 383 q 630 173 654 231 q 564 72 606 114 q 467 6 522 29 q 349 -17 412 -17 q 194 22 264 -17 q 82 131 123 60 q 41 292 41 201 m 282 9 q 150 136 194 63 q 106 297 106 210 q 127 414 106 363 q 182 500 148 464 q 268 575 216 536 q 153 507 199 551 q 85 406 107 463 q 64 286 64 349 q 78 195 64 240 q 120 115 92 151 q 188 52 147 79 q 282 9 229 24 m 210 330 q 252 103 210 186 q 361 21 294 21 q 424 49 395 21 q 470 133 453 77 q 488 268 488 188 q 450 488 488 409 q 346 567 412 567 q 245 508 281 567 q 210 330 210 448 m 449 45 q 527 133 500 73 q 554 281 554 193 q 421 562 554 496 q 489 446 469 515 q 510 260 510 376 q 495 136 510 186 q 449 45 479 86 m 172 701 l 123 701 l 294 913 l 412 913 l 568 701 l 492 701 l 326 812 l 172 701 m 486 730 l 361 875 l 293 875 l 171 725 l 326 839 l 486 730 z "},"":{"ha":694,"x_min":41,"x_max":654,"o":"m 41 292 q 82 450 41 378 q 194 563 123 522 q 351 604 265 604 q 505 564 435 604 q 614 454 574 524 q 654 297 654 383 q 630 173 654 231 q 564 72 606 114 q 467 6 522 29 q 349 -17 412 -17 q 194 22 264 -17 q 82 131 123 60 q 41 292 41 201 m 282 9 q 150 136 194 63 q 106 297 106 210 q 127 414 106 363 q 182 500 148 464 q 268 575 216 536 q 153 507 199 551 q 85 406 107 463 q 64 286 64 349 q 78 195 64 240 q 120 115 92 151 q 188 52 147 79 q 282 9 229 24 m 210 330 q 252 103 210 186 q 361 21 294 21 q 424 49 395 21 q 470 133 453 77 q 488 268 488 188 q 450 488 488 409 q 346 567 412 567 q 245 508 281 567 q 210 330 210 448 m 449 45 q 527 133 500 73 q 554 281 554 193 q 421 562 554 496 q 489 446 469 515 q 510 260 510 376 q 495 136 510 186 q 449 45 479 86 m 281 802 q 254 737 281 760 q 195 714 228 714 q 132 738 158 714 q 106 799 106 762 q 132 862 106 837 q 195 886 158 886 q 256 862 231 886 q 281 802 281 838 m 212 733 q 180 761 191 747 q 170 803 170 775 q 179 837 170 818 q 207 867 189 855 q 149 849 170 867 q 127 799 127 830 q 146 752 127 772 q 192 732 165 732 q 212 733 204 732 m 410 799 q 436 862 410 837 q 498 886 463 886 q 560 860 535 886 q 585 799 585 833 q 561 739 585 765 q 497 713 536 713 q 435 738 460 713 q 410 799 410 764 m 511 733 q 475 800 475 760 q 517 867 475 840 q 512 868 514 867 q 505 868 509 868 q 453 848 474 868 q 432 799 432 827 q 452 751 432 770 q 511 733 471 732 z "},"":{"ha":694,"x_min":41,"x_max":654,"o":"m 41 292 q 82 450 41 378 q 194 563 123 522 q 351 604 265 604 q 505 564 435 604 q 614 454 574 524 q 654 297 654 383 q 630 173 654 231 q 564 72 606 114 q 467 6 522 29 q 349 -17 412 -17 q 194 22 264 -17 q 82 131 123 60 q 41 292 41 201 m 282 9 q 150 136 194 63 q 106 297 106 210 q 127 414 106 363 q 182 500 148 464 q 268 575 216 536 q 153 507 199 551 q 85 406 107 463 q 64 286 64 349 q 78 195 64 240 q 120 115 92 151 q 188 52 147 79 q 282 9 229 24 m 210 330 q 252 103 210 186 q 361 21 294 21 q 424 49 395 21 q 470 133 453 77 q 488 268 488 188 q 450 488 488 409 q 346 567 412 567 q 245 508 281 567 q 210 330 210 448 m 449 45 q 527 133 500 73 q 554 281 554 193 q 421 562 554 496 q 489 446 469 515 q 510 260 510 376 q 495 136 510 186 q 449 45 479 86 m 550 903 l 550 920 l 597 920 q 598 906 598 913 q 599 892 599 900 q 578 801 599 841 q 521 741 557 762 q 443 720 485 720 q 376 730 403 720 q 287 771 350 741 q 200 800 224 800 q 155 780 173 800 q 136 720 137 760 l 97 720 q 97 736 97 729 q 96 751 96 743 q 113 832 96 794 q 165 895 131 871 q 248 918 199 918 q 315 908 280 918 q 383 882 350 897 q 447 855 416 867 q 497 843 478 843 q 536 859 522 843 q 550 903 550 875 m 468 781 q 414 788 439 781 q 342 817 389 796 q 271 847 294 838 q 225 856 247 856 q 150 802 176 856 q 200 823 176 823 q 246 814 223 823 q 314 783 269 805 q 387 752 359 762 q 444 743 415 743 q 561 812 520 743 q 516 788 536 796 q 468 781 496 781 z "},"":{"ha":796,"x_min":17,"x_max":768,"o":"m 433 553 l 433 593 l 676 593 l 676 131 q 686 90 676 103 q 714 72 696 76 q 762 68 732 68 l 768 68 l 768 29 l 521 -18 l 521 75 q 298 -18 409 -18 q 160 33 212 -18 q 109 179 109 85 l 109 415 q 105 490 109 468 q 82 529 102 513 q 17 553 62 545 l 17 593 l 265 593 l 265 192 q 274 109 265 140 q 305 61 283 77 q 361 45 326 45 q 521 119 436 45 l 521 444 q 433 553 521 547 m 587 87 l 587 452 q 574 527 587 499 q 518 555 562 555 q 508 554 517 555 q 497 553 499 553 q 534 510 524 536 q 543 446 543 485 l 543 16 q 577 40 567 24 q 587 87 587 56 m 176 165 l 176 471 q 110 555 176 555 q 98 554 109 555 q 86 553 88 553 q 123 506 115 531 q 131 443 131 481 l 131 192 q 174 52 131 102 q 292 1 217 1 q 334 4 313 1 q 217 52 257 10 q 176 165 176 93 m 302 692 l 264 692 l 340 904 l 541 904 l 302 692 m 300 729 l 425 867 l 349 867 l 300 729 z "},"":{"ha":796,"x_min":17,"x_max":768,"o":"m 433 553 l 433 593 l 676 593 l 676 131 q 686 90 676 103 q 714 72 696 76 q 762 68 732 68 l 768 68 l 768 29 l 521 -18 l 521 75 q 298 -18 409 -18 q 160 33 212 -18 q 109 179 109 85 l 109 415 q 105 490 109 468 q 82 529 102 513 q 17 553 62 545 l 17 593 l 265 593 l 265 192 q 274 109 265 140 q 305 61 283 77 q 361 45 326 45 q 521 119 436 45 l 521 444 q 433 553 521 547 m 587 87 l 587 452 q 574 527 587 499 q 518 555 562 555 q 508 554 517 555 q 497 553 499 553 q 534 510 524 536 q 543 446 543 485 l 543 16 q 577 40 567 24 q 587 87 587 56 m 176 165 l 176 471 q 110 555 176 555 q 98 554 109 555 q 86 553 88 553 q 123 506 115 531 q 131 443 131 481 l 131 192 q 174 52 131 102 q 292 1 217 1 q 334 4 313 1 q 217 52 257 10 q 176 165 176 93 m 546 696 l 502 696 l 254 905 l 461 905 l 546 696 m 488 734 l 424 868 l 330 868 l 488 734 z "},"":{"ha":796,"x_min":17,"x_max":768,"o":"m 433 553 l 433 593 l 676 593 l 676 131 q 686 90 676 103 q 714 72 696 76 q 762 68 732 68 l 768 68 l 768 29 l 521 -18 l 521 75 q 298 -18 409 -18 q 160 33 212 -18 q 109 179 109 85 l 109 415 q 105 490 109 468 q 82 529 102 513 q 17 553 62 545 l 17 593 l 265 593 l 265 192 q 274 109 265 140 q 305 61 283 77 q 361 45 326 45 q 521 119 436 45 l 521 444 q 433 553 521 547 m 587 87 l 587 452 q 574 527 587 499 q 518 555 562 555 q 508 554 517 555 q 497 553 499 553 q 534 510 524 536 q 543 446 543 485 l 543 16 q 577 40 567 24 q 587 87 587 56 m 176 165 l 176 471 q 110 555 176 555 q 98 554 109 555 q 86 553 88 553 q 123 506 115 531 q 131 443 131 481 l 131 192 q 174 52 131 102 q 292 1 217 1 q 334 4 313 1 q 217 52 257 10 q 176 165 176 93 m 224 701 l 175 701 l 346 913 l 464 913 l 620 701 l 543 701 l 378 812 l 224 701 m 538 730 l 412 875 l 345 875 l 222 725 l 378 839 l 538 730 z "},"":{"ha":796,"x_min":17,"x_max":768,"o":"m 433 553 l 433 593 l 676 593 l 676 131 q 686 90 676 103 q 714 72 696 76 q 762 68 732 68 l 768 68 l 768 29 l 521 -18 l 521 75 q 298 -18 409 -18 q 160 33 212 -18 q 109 179 109 85 l 109 415 q 105 490 109 468 q 82 529 102 513 q 17 553 62 545 l 17 593 l 265 593 l 265 192 q 274 109 265 140 q 305 61 283 77 q 361 45 326 45 q 521 119 436 45 l 521 444 q 433 553 521 547 m 587 87 l 587 452 q 574 527 587 499 q 518 555 562 555 q 508 554 517 555 q 497 553 499 553 q 534 510 524 536 q 543 446 543 485 l 543 16 q 577 40 567 24 q 587 87 587 56 m 176 165 l 176 471 q 110 555 176 555 q 98 554 109 555 q 86 553 88 553 q 123 506 115 531 q 131 443 131 481 l 131 192 q 174 52 131 102 q 292 1 217 1 q 334 4 313 1 q 217 52 257 10 q 176 165 176 93 m 332 802 q 306 737 332 760 q 246 714 279 714 q 183 738 210 714 q 157 799 157 762 q 183 862 157 837 q 246 886 210 886 q 307 862 282 886 q 332 802 332 838 m 264 733 q 232 761 243 747 q 221 803 221 775 q 231 837 221 818 q 258 867 240 855 q 200 849 221 867 q 179 799 179 830 q 198 752 179 772 q 243 732 216 732 q 264 733 256 732 m 461 799 q 488 862 461 837 q 550 886 515 886 q 611 860 587 886 q 636 799 636 833 q 612 739 636 765 q 549 713 588 713 q 487 738 512 713 q 461 799 461 764 m 563 733 q 526 800 526 760 q 568 867 526 840 q 563 868 566 867 q 557 868 561 868 q 505 848 526 868 q 484 799 484 827 q 503 751 484 770 q 563 733 523 732 z "},"":{"ha":708,"x_min":20,"x_max":692,"o":"m 353 -346 q 285 -304 311 -346 q 260 -184 260 -262 q 263 -132 260 -180 q 273 -14 267 -83 q 290 126 280 54 q 336 479 336 456 q 286 470 310 477 q 222 449 262 463 q 157 429 182 435 q 110 422 132 422 q 45 443 70 422 q 20 497 20 463 q 45 552 20 531 q 106 572 70 572 q 159 566 134 572 q 210 552 185 560 q 274 531 235 544 q 336 517 314 519 l 336 530 q 328 596 336 558 q 303 688 319 634 q 279 782 288 741 q 271 857 271 823 q 296 935 271 907 q 355 962 322 962 q 412 935 387 962 q 437 859 437 907 q 429 778 437 820 q 409 691 421 735 q 385 600 397 646 q 374 526 374 553 l 374 517 q 433 528 399 517 q 496 549 467 539 q 553 567 525 559 q 606 575 581 575 q 665 553 637 575 q 692 498 692 532 q 668 443 692 465 q 606 421 644 421 q 555 429 583 421 q 488 451 527 437 q 422 473 448 466 q 374 479 395 480 q 384 393 376 456 q 398 295 393 330 q 409 217 403 259 q 422 98 414 174 q 433 -5 429 36 q 441 -94 437 -46 q 444 -182 444 -141 q 420 -305 444 -264 q 353 -346 396 -346 m 351 582 l 357 582 q 358 594 357 589 q 358 610 358 600 q 353 683 358 644 q 343 761 348 722 q 338 833 338 800 q 345 896 338 876 q 370 937 352 916 q 350 939 363 939 q 309 915 326 939 q 293 859 293 892 q 320 710 293 810 q 351 582 347 610 m 311 489 l 311 498 q 183 536 246 522 q 103 551 119 551 q 59 538 77 551 q 41 503 41 524 l 43 489 q 103 507 71 507 q 178 498 106 507 q 311 489 250 490 m 406 500 l 406 493 q 517 498 450 490 q 602 507 584 507 q 636 501 616 507 q 667 484 656 495 q 669 504 669 500 q 649 537 669 524 q 600 551 629 551 q 552 545 576 551 q 478 521 528 538 q 406 500 429 504 m 357 427 l 351 427 q 332 264 345 359 q 308 91 319 170 q 289 -61 296 13 q 282 -193 282 -134 q 301 -290 282 -258 q 349 -322 319 -322 q 383 -318 371 -322 q 326 -179 326 -291 q 342 55 326 -144 q 358 386 358 254 q 357 427 358 411 z "},"":{"ha":555,"x_min":40,"x_max":509,"o":"m 275 939 q 390 908 334 939 q 478 822 446 878 q 509 704 509 765 q 440 538 509 607 q 275 469 372 469 q 109 538 178 469 q 40 704 40 607 q 72 822 40 765 q 159 908 103 878 q 275 939 216 939 m 275 850 q 171 808 214 850 q 129 705 129 765 q 172 602 129 644 q 275 559 214 559 q 378 602 335 559 q 420 705 420 644 q 378 808 420 765 q 275 850 335 850 z "},"":{"ha":623,"x_min":41,"x_max":603,"o":"m 447 524 q 414 561 447 547 l 273 150 q 404 100 329 100 q 499 120 450 100 q 579 174 549 141 l 603 142 q 474 23 549 64 q 322 -18 399 -18 q 224 1 273 -18 l 160 -191 l 121 -178 l 187 20 q 80 129 118 62 q 41 275 41 197 q 86 443 41 365 q 211 564 131 520 q 386 604 290 608 l 443 777 l 482 764 l 427 600 q 543 552 499 588 q 587 467 587 515 q 563 412 587 433 q 505 390 538 390 q 455 411 475 390 q 435 457 435 433 q 441 488 435 462 q 447 524 447 514 m 243 186 l 372 568 q 344 559 359 563 q 315 551 329 555 q 235 475 269 538 q 201 329 201 411 q 243 186 201 245 m 457 457 q 474 425 457 435 q 510 414 490 414 q 543 419 516 414 q 501 463 501 428 q 504 478 501 465 q 507 500 507 491 q 454 557 507 537 q 469 518 469 536 q 463 487 469 507 q 457 457 457 467 m 267 562 q 156 495 201 538 q 87 396 111 452 q 64 281 64 339 q 102 138 64 201 q 202 40 140 75 q 328 5 264 5 q 503 66 420 5 q 359 37 414 37 q 233 68 290 37 q 141 155 175 100 q 107 279 107 211 q 148 432 107 359 q 267 562 189 505 z "},"":{"ha":708,"x_min":26,"x_max":679,"o":"m 143 -20 q 58 15 90 -20 q 26 93 26 49 q 62 183 26 143 q 165 222 97 222 q 200 219 184 222 q 234 208 216 215 q 267 197 252 201 q 258 268 266 235 q 234 342 250 302 q 208 412 219 382 l 54 412 l 54 460 l 187 460 q 141 586 155 543 q 127 697 127 630 q 162 839 127 776 q 262 939 196 903 q 418 975 328 975 q 514 959 472 975 q 586 916 557 943 q 631 854 616 888 q 646 782 646 820 q 625 710 646 737 q 567 682 604 682 q 515 701 536 682 q 493 749 493 719 q 502 787 493 767 q 529 833 511 806 q 533 852 533 840 q 496 913 533 888 q 414 937 458 937 q 341 917 376 937 q 287 862 307 897 q 267 786 267 827 q 277 709 267 747 q 318 591 288 671 q 359 460 347 511 l 533 460 l 533 412 l 368 412 q 372 345 372 355 q 338 165 372 258 q 478 132 414 132 q 587 163 542 132 q 642 245 632 195 l 679 245 l 679 228 q 654 115 679 173 q 580 19 629 57 q 467 -18 532 -18 q 411 -11 435 -18 q 369 8 388 -4 q 332 36 351 20 q 288 75 313 52 q 223 4 258 28 q 143 -20 187 -20 m 633 119 q 569 65 597 83 q 496 47 541 47 q 423 59 459 47 q 352 90 387 71 q 282 134 317 109 q 240 162 261 149 q 200 182 220 176 q 155 186 181 188 q 211 169 190 182 q 262 127 233 156 q 347 54 324 73 q 400 20 369 35 q 467 5 431 5 q 564 34 522 5 q 633 119 606 63 m 250 111 q 144 167 201 167 q 88 146 111 167 q 65 94 65 126 q 84 44 65 64 q 138 25 104 25 q 202 47 172 25 q 250 111 233 70 m 288 186 l 298 186 q 304 250 304 214 q 290 362 304 311 q 246 492 276 414 q 204 611 216 570 q 192 699 192 652 q 236 846 192 778 q 354 951 279 913 q 201 858 252 930 q 150 693 150 786 q 166 585 150 640 q 219 445 183 531 q 272 306 254 359 q 289 205 289 253 q 289 196 289 200 q 288 186 288 191 m 546 892 q 555 856 555 873 q 539 808 555 833 q 515 754 515 774 q 529 722 515 739 q 567 705 542 705 q 606 721 587 705 q 570 735 583 721 q 557 768 557 750 q 563 799 557 774 q 570 839 570 824 q 546 892 570 874 z "},"":{"ha":633,"x_min":43,"x_max":580,"o":"m 77 -47 l 178 -30 q 229 -154 195 -119 q 320 -189 264 -189 q 407 -155 374 -189 q 441 -71 441 -121 q 434 -33 441 -52 q 414 1 428 -15 q 232 159 374 52 q 96 281 127 237 q 43 437 43 354 q 78 556 43 505 q 168 629 112 608 q 115 713 133 671 q 97 797 97 755 q 155 950 97 888 q 304 1011 214 1011 q 460 952 399 1011 q 532 776 520 894 l 429 763 q 387 879 416 847 q 308 911 357 911 q 228 879 260 911 q 195 802 195 846 q 202 763 195 783 q 225 724 210 744 q 385 589 255 685 q 530 461 497 505 q 580 315 580 396 q 543 189 580 241 q 453 121 518 154 q 520 32 498 79 q 542 -70 542 -16 q 479 -230 542 -167 q 318 -292 416 -292 q 155 -230 219 -292 q 77 -47 91 -167 m 403 165 q 464 224 443 191 q 485 292 485 258 q 456 374 485 332 q 331 488 427 416 q 217 582 254 545 q 153 518 171 549 q 134 450 134 487 q 160 369 134 408 q 275 266 186 330 q 403 165 351 211 z "},"":{"ha":419,"x_min":53,"x_max":368,"o":"m 210 554 q 321 508 275 554 q 368 397 368 462 q 347 318 368 355 q 289 261 326 282 q 210 240 252 240 q 131 261 167 240 q 74 318 96 281 q 53 397 53 354 q 74 476 53 440 q 130 533 94 511 q 210 554 166 554 z "},"":{"ha":611,"x_min":3,"x_max":618,"o":"m 229 -276 l 229 433 q 66 512 128 439 q 3 708 3 585 q 36 864 3 798 q 126 962 68 930 q 267 994 183 994 l 618 994 l 618 877 l 538 877 l 538 -276 l 444 -276 l 444 877 l 320 877 l 320 -276 l 229 -276 z "},"":{"ha":766,"x_min":46,"x_max":730,"o":"m 730 282 q 700 141 730 210 q 615 29 669 72 q 490 -14 560 -14 q 407 6 444 -14 q 349 58 370 26 q 329 123 329 90 q 350 189 329 161 q 406 216 372 216 q 454 196 433 216 q 475 146 475 175 q 470 120 475 129 q 453 98 465 112 q 437 79 441 87 q 432 57 432 71 q 446 32 432 41 q 476 24 460 24 q 530 46 505 24 q 569 107 555 68 q 583 195 583 146 q 558 313 583 260 q 485 402 534 366 q 366 453 435 439 l 366 514 q 439 593 410 552 q 483 677 469 635 q 497 765 497 720 q 459 887 497 837 q 366 937 422 937 q 289 903 317 937 q 260 803 260 868 l 260 126 q 264 77 260 94 q 280 51 268 60 q 315 37 292 41 l 315 0 l 46 0 l 46 37 q 93 59 83 37 q 103 144 103 81 l 103 689 q 181 901 103 827 q 393 975 258 975 q 498 960 449 975 q 583 916 547 944 q 640 849 619 888 q 660 765 660 810 q 634 672 660 715 q 562 597 608 628 q 458 551 517 566 q 662 465 593 536 q 730 282 730 393 m 427 945 q 519 770 519 874 q 454 579 519 664 q 533 659 507 609 q 559 762 559 708 q 527 876 559 829 q 427 945 494 922 m 550 35 q 646 215 646 90 q 617 341 646 282 q 538 434 588 399 q 432 468 488 468 q 397 465 425 468 q 553 367 500 437 q 606 192 606 296 q 591 102 606 138 q 550 35 577 66 m 437 180 q 406 193 421 193 q 366 172 381 193 q 351 127 351 151 q 361 85 351 109 q 393 37 372 61 q 386 93 386 68 q 399 151 386 132 q 437 180 413 170 m 171 144 l 171 707 q 195 839 171 782 q 269 937 218 895 q 158 840 191 902 q 125 668 125 779 l 125 118 q 118 62 125 80 q 90 37 111 45 q 143 50 127 42 q 165 77 159 57 q 171 144 171 98 z "},"":{"ha":897,"x_min":32,"x_max":864,"o":"m 275 416 l 275 708 q 267 771 275 756 q 222 787 258 785 l 222 807 l 441 807 q 585 773 538 807 q 632 676 632 739 q 515 553 632 585 l 616 392 q 649 350 636 361 q 682 336 662 339 l 682 317 l 558 317 l 411 543 l 375 543 l 375 395 q 394 348 375 358 q 446 336 413 338 l 446 317 l 214 317 l 214 336 q 265 353 254 336 q 275 416 275 369 m 375 778 l 375 571 q 407 570 387 570 q 490 599 458 570 q 522 676 522 629 q 494 754 522 725 q 411 783 465 783 q 375 778 408 783 m 449 975 q 657 919 562 975 q 808 768 753 863 q 864 559 864 672 q 808 351 864 446 q 657 199 752 255 q 449 143 562 143 q 240 199 336 143 q 88 351 144 254 q 32 559 32 447 q 88 768 32 673 q 239 919 144 863 q 449 975 335 975 m 449 930 q 262 881 349 930 q 126 745 176 831 q 77 559 77 660 q 126 373 77 459 q 262 237 176 288 q 449 187 349 187 q 592 216 525 187 q 711 296 660 245 q 791 415 763 348 q 819 559 819 483 q 790 704 819 635 q 711 824 762 773 q 593 902 660 874 q 449 930 526 930 z "},"":{"ha":897,"x_min":32,"x_max":864,"o":"m 627 818 l 648 818 l 656 659 l 632 659 q 598 731 621 701 q 543 777 575 762 q 472 791 510 791 q 348 733 395 791 q 301 571 301 675 q 322 443 301 494 q 383 367 344 392 q 475 342 422 342 q 640 428 574 342 l 652 401 q 446 304 573 304 q 313 337 372 304 q 220 427 254 369 q 187 554 187 485 q 222 688 187 627 q 321 784 258 749 q 463 819 385 819 q 552 805 507 819 q 599 790 596 790 q 627 818 618 790 m 449 975 q 657 919 562 975 q 808 768 753 863 q 864 559 864 672 q 808 351 864 446 q 657 199 752 255 q 449 143 562 143 q 240 199 336 143 q 88 351 144 254 q 32 559 32 447 q 88 768 32 673 q 239 919 144 863 q 449 975 335 975 m 449 930 q 262 881 349 930 q 126 745 176 831 q 77 559 77 660 q 126 373 77 459 q 262 237 176 288 q 449 187 349 187 q 592 216 525 187 q 711 296 660 245 q 791 415 763 348 q 819 559 819 483 q 791 704 819 637 q 712 822 762 772 q 593 902 662 873 q 449 930 524 930 z "},"":{"ha":1186,"x_min":7,"x_max":1182,"o":"m 172 583 l 172 925 l 139 925 q 57 903 81 925 q 26 832 33 881 l 7 832 l 14 957 l 454 957 l 461 832 l 440 832 q 410 903 434 882 q 326 925 386 925 l 294 925 l 294 582 q 304 520 294 536 q 355 504 313 505 l 355 482 l 113 482 l 113 504 q 152 512 140 506 q 169 532 165 517 q 172 583 172 547 m 675 505 l 686 505 l 686 482 l 514 482 l 514 504 q 568 518 557 505 q 579 582 579 532 l 579 857 q 569 922 579 907 q 514 936 558 937 l 514 957 l 705 957 l 852 644 l 999 957 l 1182 957 l 1182 936 q 1141 929 1153 936 q 1124 907 1128 923 q 1120 857 1120 891 l 1120 581 q 1120 547 1120 558 q 1127 526 1121 536 q 1146 511 1133 516 q 1182 504 1159 506 l 1182 482 l 929 482 l 929 504 q 975 511 961 505 q 994 532 988 517 q 999 581 999 547 l 999 873 l 814 482 l 798 482 l 614 871 l 614 582 q 616 537 614 552 q 632 514 619 523 q 675 505 645 505 z "},"":{"ha":463,"x_min":97,"x_max":374,"o":"m 135 692 l 97 692 l 174 904 l 374 904 l 135 692 m 134 729 l 258 867 l 182 867 l 134 729 z "},"":{"ha":463,"x_min":-9,"x_max":469,"o":"m 165 802 q 139 737 165 760 q 79 714 113 714 q 17 738 43 714 q -9 799 -9 762 q 17 862 -9 837 q 79 886 43 886 q 140 862 115 886 q 165 802 165 838 m 97 733 q 65 761 76 747 q 54 803 54 775 q 64 837 54 818 q 92 867 73 855 q 33 849 54 867 q 12 799 12 830 q 31 752 12 772 q 77 732 50 732 q 97 733 89 732 m 294 799 q 321 862 294 837 q 383 886 348 886 q 445 860 420 886 q 469 799 469 833 q 445 739 469 765 q 382 713 421 713 q 320 738 345 713 q 294 799 294 764 m 396 733 q 359 800 359 760 q 401 867 359 840 q 396 868 399 867 q 390 868 394 868 q 338 848 359 868 q 317 799 317 827 q 336 751 317 770 q 396 733 356 732 z "},"":{"ha":762,"x_min":10,"x_max":752,"o":"m 10 585 l 417 585 l 558 943 l 649 943 l 510 585 l 752 585 l 752 479 l 469 479 l 385 265 l 752 265 l 752 159 l 344 159 l 203 -198 l 111 -198 l 252 159 l 10 159 l 10 265 l 293 265 l 376 479 l 10 479 l 10 585 z "},"":{"ha":1447,"x_min":17,"x_max":1429,"o":"m 1318 957 l 1400 733 l 1350 733 q 1240 834 1294 794 q 1123 897 1187 875 q 979 920 1059 920 q 867 896 896 920 q 839 800 839 873 q 840 788 840 793 q 840 772 840 782 l 840 518 l 979 518 q 1104 557 1062 518 q 1146 677 1145 597 l 1193 677 l 1193 329 l 1146 329 q 974 481 1137 481 l 840 481 l 840 158 q 849 89 840 113 q 889 51 857 64 q 987 37 920 37 q 1150 63 1077 37 q 1279 136 1223 89 q 1371 245 1334 182 l 1429 245 l 1344 0 l 533 0 l 533 37 q 628 53 600 41 q 663 94 655 66 q 671 186 671 121 l 671 481 l 364 481 l 272 293 q 240 218 251 249 q 229 150 229 186 q 258 74 229 100 q 347 37 287 47 l 347 0 l 17 0 l 17 37 q 88 67 58 43 q 144 133 118 91 q 205 245 170 174 l 449 739 q 478 804 471 785 q 486 846 486 823 q 449 902 486 888 q 347 920 411 917 l 347 957 l 1318 957 m 1305 810 l 1250 920 l 1128 920 q 1305 810 1230 879 m 1136 440 l 1136 558 q 1096 522 1116 534 q 1042 500 1075 509 q 1136 440 1100 484 m 1146 37 l 1280 37 l 1325 153 q 1146 37 1253 77 m 736 144 l 736 808 q 730 873 736 850 q 712 906 725 896 q 671 920 699 916 q 689 893 685 907 q 693 835 693 880 l 693 153 q 680 74 693 96 q 632 37 667 52 q 694 47 672 37 q 726 82 717 58 q 736 144 736 106 m 382 518 l 671 518 l 671 825 q 662 898 671 877 q 618 920 652 920 q 582 906 595 920 q 545 846 568 892 l 382 518 m 83 37 l 212 37 q 176 121 176 71 q 176 137 176 131 q 176 149 176 143 q 137 86 156 111 q 83 37 118 62 z "},"":{"ha":1129,"x_min":60,"x_max":1074,"o":"m 131 12 l 212 109 q 146 184 174 144 q 99 271 119 224 q 70 371 80 318 q 60 482 60 425 q 71 598 60 543 q 105 703 83 653 q 161 795 127 752 q 236 872 195 839 q 331 931 280 908 q 441 965 382 954 q 568 975 500 975 q 735 952 663 975 q 879 878 807 930 l 962 975 l 1007 942 l 921 843 q 1036 679 998 767 q 1074 484 1074 590 q 1035 285 1074 377 q 924 125 996 193 q 756 19 852 57 q 549 -18 660 -18 q 441 -8 493 -18 q 343 22 390 1 q 256 72 296 43 l 175 -20 l 131 12 m 311 221 l 796 782 q 723 867 764 832 q 635 920 682 903 q 538 937 589 937 q 388 890 454 937 q 284 756 321 844 q 248 554 248 669 q 311 221 248 368 m 822 729 l 339 170 q 448 58 386 96 q 583 20 509 20 q 734 66 667 20 q 842 207 802 113 q 882 432 882 300 q 822 729 882 598 m 311 900 q 140 723 199 831 q 82 481 82 616 q 120 276 82 369 q 232 118 158 184 q 415 16 306 52 q 197 215 269 107 q 125 493 125 323 q 145 648 125 579 q 208 779 166 718 q 311 900 250 840 m 665 928 q 796 815 742 887 q 877 644 850 744 q 904 425 904 545 q 873 229 904 312 q 786 82 842 146 q 878 177 842 124 q 930 298 913 231 q 947 450 947 366 q 914 673 947 572 q 816 842 880 775 q 665 928 752 909 z "},"":{"ha":990,"x_min":35,"x_max":966,"o":"m 500 412 q 575 478 551 458 q 624 514 600 498 q 680 543 649 530 q 777 562 728 565 q 865 534 825 559 q 931 471 906 509 q 960 387 956 432 q 940 282 966 334 q 866 199 915 231 q 756 174 817 168 q 665 197 709 178 q 591 238 622 216 q 532 290 561 261 q 500 321 503 319 q 462 283 484 304 q 410 238 440 261 q 337 197 380 216 q 245 174 294 178 q 135 199 184 168 q 61 282 86 231 q 41 387 35 334 q 71 471 45 433 q 136 534 96 510 q 225 562 177 559 q 321 543 273 565 q 377 514 352 530 q 426 478 401 498 q 500 412 450 458 m 455 367 q 359 443 395 418 q 290 479 323 468 q 215 488 248 494 q 157 460 181 481 q 122 412 134 439 q 111 359 111 385 q 136 291 111 321 q 197 247 160 260 q 271 243 235 234 q 355 277 326 256 q 455 367 385 298 m 547 367 q 618 299 593 321 q 667 264 643 277 q 730 243 692 252 q 804 247 767 234 q 866 291 842 260 q 891 359 890 321 q 871 429 892 393 q 809 482 850 465 q 711 479 768 498 q 642 442 677 467 q 547 367 606 416 z "},"":{"ha":762,"x_min":10,"x_max":752,"o":"m 11 505 l 337 505 l 337 830 l 426 830 l 426 505 l 752 505 l 752 415 l 426 415 l 427 182 l 752 182 l 752 92 l 11 92 l 10 181 l 337 181 l 337 415 l 11 415 l 11 505 z "},"":{"ha":762,"x_min":9,"x_max":753,"o":"m 752 149 l 10 461 l 10 557 l 752 869 l 752 753 l 154 509 l 752 265 l 752 149 m 9 -20 l 753 -20 l 753 -125 l 9 -125 l 9 -20 z "},"":{"ha":762,"x_min":9,"x_max":753,"o":"m 10 869 l 752 557 l 752 461 l 10 149 l 10 264 l 608 509 l 10 753 l 10 869 m 9 -20 l 753 -20 l 753 -125 l 9 -125 l 9 -20 z "},"":{"ha":1013,"x_min":20,"x_max":994,"o":"m 121 273 l 433 273 l 433 351 l 121 351 l 121 412 l 396 412 l 144 836 q 97 901 119 880 q 20 920 75 922 l 20 957 l 467 957 l 467 920 q 372 909 406 918 q 339 864 339 901 q 387 755 339 836 l 583 429 l 714 650 q 767 753 750 710 q 785 833 785 796 q 761 893 785 867 q 699 920 736 920 l 692 920 l 692 957 l 994 957 l 994 920 q 933 893 964 916 q 870 829 903 871 q 803 728 838 787 l 618 412 l 893 412 l 893 351 l 603 351 l 603 273 l 893 273 l 893 211 l 603 211 l 603 140 q 635 59 603 75 q 747 37 667 43 l 747 0 l 290 0 l 290 37 l 302 37 q 390 53 361 37 q 426 92 419 68 q 433 154 433 115 l 433 211 l 121 211 l 121 273 m 885 920 l 766 920 q 807 838 807 894 l 807 822 q 841 877 824 859 q 885 920 857 895 m 498 370 l 216 844 q 172 906 190 890 q 125 921 155 921 q 114 921 119 921 q 104 920 109 920 q 134 896 122 912 q 167 844 146 880 l 456 359 l 456 125 q 443 70 456 86 q 393 37 429 54 q 406 37 399 37 q 422 37 412 37 q 482 58 465 37 q 498 122 498 79 l 498 370 z "},"":{"ha":636,"x_min":36,"x_max":629,"o":"m 387 135 l 387 593 l 518 593 l 518 168 q 526 86 518 113 q 558 60 534 60 q 588 80 576 60 q 604 138 600 100 l 629 138 q 588 22 625 60 q 496 -17 551 -17 q 426 9 451 -17 q 390 86 401 36 q 305 9 347 36 q 212 -17 263 -17 q 166 -8 183 -17 q 123 25 150 1 l 123 7 q 128 -50 123 -28 q 143 -119 132 -71 q 154 -189 154 -168 q 137 -238 154 -218 q 92 -258 121 -258 q 51 -240 66 -258 q 36 -193 36 -221 q 48 -116 36 -170 q 68 -19 61 -62 q 75 93 75 24 l 75 593 l 204 593 l 204 207 q 217 93 204 125 q 271 60 230 60 q 387 135 332 60 z "},"":{"ha":686,"x_min":36,"x_max":646,"o":"m 149 926 l 95 996 q 215 1031 146 1019 q 347 1028 283 1043 q 474 968 416 1012 q 580 842 533 924 q 623 730 608 792 q 642 622 638 669 q 646 546 646 574 q 640 449 646 514 q 616 310 633 384 q 574 182 600 235 q 512 73 542 113 q 430 4 483 34 q 289 -29 361 -34 q 159 16 216 -24 q 104 63 128 37 q 63 129 81 90 q 42 216 46 168 q 60 355 36 292 q 119 460 85 418 q 205 534 158 508 q 316 558 253 560 q 416 537 376 556 q 524 464 456 518 q 539 625 536 531 q 526 740 541 669 q 495 846 511 810 q 438 925 479 886 q 340 970 397 965 q 279 972 302 973 q 241 966 256 970 q 197 948 225 961 q 149 926 170 935 m 513 415 q 445 483 473 460 q 363 504 416 505 q 230 429 283 502 q 188 354 202 390 q 166 282 173 319 q 160 205 160 245 q 172 107 160 155 q 224 32 184 60 q 281 12 254 13 q 340 25 308 12 q 452 154 410 56 q 491 280 476 214 q 513 415 505 347 z "},"":{"ha":990,"x_min":20,"x_max":965,"o":"m 857 1035 l 865 814 l 838 814 q 803 908 816 883 q 750 953 791 933 q 625 972 709 972 l 260 972 l 639 475 l 231 4 l 746 4 q 833 17 802 4 q 885 62 863 31 q 933 161 907 94 l 965 161 q 927 -5 935 36 q 905 -150 920 -45 q 851 -140 879 -145 q 799 -135 823 -135 l 100 -135 q 75 -136 90 -135 q 44 -138 60 -137 q 20 -139 29 -139 l 504 414 l 22 1044 q 94 1039 44 1043 q 167 1035 143 1035 l 857 1035 z "},"":{"ha":1143,"x_min":35,"x_max":1116,"o":"m 981 873 l 981 4 q 997 -67 981 -43 q 1042 -100 1013 -92 q 1116 -109 1072 -109 l 1116 -140 l 690 -140 l 690 -109 q 791 -86 758 -109 q 823 4 823 -64 l 823 966 l 326 966 l 326 4 q 342 -67 326 -43 q 388 -100 358 -92 q 461 -109 417 -109 l 461 -140 l 35 -140 l 35 -109 q 137 -86 104 -109 q 170 4 170 -64 l 170 873 q 37 1011 170 1011 l 37 1043 l 1111 1043 l 1111 1011 q 981 873 981 1011 z "},"":{"ha":762,"x_min":14,"x_max":736,"o":"m 465 557 l 309 557 q 286 333 297 420 q 265 183 275 246 q 244 69 255 121 q 218 6 235 29 q 168 -25 201 -16 q 114 -14 141 -32 q 82 28 87 3 q 80 59 78 46 q 87 82 82 71 q 100 102 93 93 q 114 119 106 111 q 137 147 116 122 q 170 193 159 172 q 183 239 180 214 l 224 557 l 158 557 q 105 544 130 557 q 66 513 80 530 l 37 469 l 14 469 q 37 533 23 496 q 77 604 52 570 q 130 655 96 633 q 207 676 163 676 l 725 676 l 725 557 l 550 557 q 533 231 533 395 q 543 172 533 201 q 568 129 553 144 q 615 106 587 111 q 671 123 642 101 q 693 151 686 136 q 703 181 701 167 q 707 210 705 195 l 736 210 q 719 108 735 153 q 680 36 703 63 q 636 -4 658 8 q 579 -22 612 -19 q 519 -7 547 -25 q 452 96 475 26 q 437 203 439 136 q 441 334 435 270 l 465 557 z "},"":{"ha":380,"x_min":3,"x_max":414,"o":"m 268 677 l 267 378 q 219 -29 265 131 q 179 -114 205 -81 q 128 -142 168 -129 q 57 -142 88 -156 q 29 -117 42 -134 q 11 -87 16 -100 q 11 -43 3 -64 q 44 -11 19 -23 q 85 -7 67 1 q 123 -39 103 -16 q 156 -41 143 -59 q 175 15 170 -24 q 179 103 180 53 q 176 199 178 155 q 174 280 175 243 q 172 390 172 317 q 171 539 171 464 l 171 739 q 172 869 171 800 q 177 992 174 939 q 188 1087 181 1046 q 207 1169 195 1128 q 232 1220 214 1192 q 269 1260 251 1249 q 308 1272 287 1271 q 348 1266 328 1273 q 378 1253 368 1259 q 405 1212 396 1241 q 396 1160 414 1183 q 367 1140 386 1147 q 329 1134 348 1132 q 297 1150 310 1136 q 270 1166 282 1165 q 250 1159 257 1168 q 241 1136 243 1149 q 243 1094 241 1118 q 252 976 245 1069 q 264 811 260 884 q 268 677 268 739 z "},"":{"ha":406,"x_min":18,"x_max":399,"o":"m 136 922 q 143 909 136 920 q 150 892 150 899 q 131 858 150 873 q 86 843 113 843 q 46 856 61 843 q 31 884 31 868 q 82 947 31 918 q 207 975 133 975 q 343 859 343 975 l 343 786 q 344 731 344 756 q 345 668 345 705 q 351 647 345 647 q 374 667 358 647 l 399 639 q 355 607 374 617 q 307 596 337 596 q 235 637 250 596 q 179 608 210 618 q 118 597 148 597 q 47 617 76 597 q 18 671 18 637 q 40 724 18 701 q 92 764 61 747 q 227 832 123 781 l 227 899 q 180 943 227 943 q 149 937 161 943 q 136 922 136 931 m 253 873 l 253 701 q 266 633 253 652 q 313 615 279 614 q 285 640 292 627 q 278 685 278 653 l 278 869 q 270 922 278 907 q 236 939 262 938 q 250 918 246 928 q 253 873 253 907 m 227 676 l 227 793 q 161 747 181 766 q 140 696 140 727 q 152 665 140 677 q 178 653 163 653 q 227 676 199 653 m 136 618 q 69 673 69 629 q 74 701 69 690 q 90 737 78 713 q 45 672 45 707 q 136 618 45 610 m 104 865 q 88 878 92 872 q 83 897 83 884 q 94 926 83 905 q 67 910 77 919 q 57 886 57 901 q 65 866 57 869 q 93 863 73 863 q 100 864 95 863 q 104 865 104 865 z "},"":{"ha":449,"x_min":20,"x_max":433,"o":"m 20 783 q 47 880 20 836 q 122 950 75 924 q 228 975 170 975 q 333 950 286 975 q 407 882 380 926 q 433 786 433 838 q 405 687 433 731 q 329 619 376 644 q 225 595 281 595 q 121 618 168 595 q 47 685 74 642 q 20 783 20 729 m 161 621 q 132 650 151 631 q 99 688 113 669 q 76 732 85 707 q 68 786 68 757 q 86 862 68 826 q 140 939 104 899 q 68 870 94 909 q 41 779 41 830 q 72 686 41 722 q 161 621 102 650 m 144 807 q 170 675 144 724 q 235 627 196 627 q 286 662 265 627 q 307 770 307 698 q 284 901 307 854 q 224 947 261 947 q 166 912 188 947 q 144 807 144 878 m 304 648 q 344 697 330 670 q 358 777 358 724 q 343 868 358 835 q 297 922 329 902 q 334 764 334 873 q 327 701 334 724 q 304 648 319 677 z "},"":{"ha":1067,"x_min":47,"x_max":1022,"o":"m 435 211 l 457 0 l 47 0 l 47 225 l 68 225 q 99 156 81 172 q 160 140 116 140 l 379 140 l 376 179 q 278 215 316 197 q 205 262 239 233 q 144 330 172 290 q 83 474 98 400 q 80 618 68 549 q 122 741 92 688 q 194 836 157 805 q 281 895 231 866 q 396 939 328 922 q 534 956 464 956 q 674 939 606 956 q 789 895 742 922 q 875 836 838 866 q 947 741 911 806 q 989 618 977 688 q 986 474 1001 549 q 925 330 972 400 q 832 238 884 271 q 693 179 779 205 l 690 140 l 909 140 q 971 157 954 140 q 1002 225 989 174 l 1022 225 l 1022 0 l 612 0 l 635 211 q 672 228 652 218 q 714 252 693 237 q 758 296 735 267 q 799 370 780 326 q 831 516 824 428 q 816 693 838 604 q 736 839 793 782 q 534 911 664 911 q 334 839 405 911 q 254 693 276 782 q 238 516 231 604 q 271 370 245 428 q 312 296 290 326 q 355 252 334 267 q 397 227 377 236 q 435 211 416 218 z "},"":{"ha":999,"x_min":43,"x_max":977,"o":"m 711 604 q 831 576 774 604 q 925 492 887 548 q 977 358 964 437 l 539 358 q 610 168 550 232 q 765 103 671 103 q 947 176 864 103 l 977 151 q 893 62 941 100 q 790 3 845 24 q 681 -18 735 -18 q 548 14 610 -18 q 440 109 486 45 q 344 41 382 66 q 263 -1 306 16 q 178 -18 220 -18 q 85 16 127 -18 q 43 97 43 50 q 55 164 43 136 q 102 222 67 192 q 214 291 137 252 q 401 376 291 331 q 408 433 408 402 q 379 528 408 496 q 296 559 349 559 q 237 551 260 559 q 214 530 214 543 q 218 519 214 523 q 231 485 231 505 q 201 422 231 448 q 132 396 172 396 q 81 415 101 396 q 61 456 61 435 q 92 521 61 486 q 184 580 123 556 q 328 604 245 604 q 443 588 398 604 q 526 538 488 572 q 611 587 564 570 q 711 604 659 604 m 828 416 l 828 401 l 854 401 q 873 427 873 401 q 845 508 873 468 q 761 562 817 547 q 828 416 828 514 m 541 401 l 806 401 l 806 415 q 792 498 806 464 q 752 550 778 532 q 693 567 726 567 q 589 517 633 567 q 541 401 544 467 m 418 278 q 439 160 418 212 q 497 73 460 109 q 582 18 534 37 q 677 0 629 0 q 744 7 715 0 q 788 22 772 14 q 828 46 803 31 q 873 71 852 59 q 895 87 895 83 q 884 82 891 85 q 876 78 876 78 q 711 36 793 36 q 579 68 637 36 q 490 158 522 100 q 458 294 458 216 q 466 374 458 321 q 473 453 473 428 q 457 517 473 490 q 414 559 441 545 q 353 571 386 573 q 431 446 431 534 q 424 374 431 433 q 418 278 418 315 m 401 335 q 289 264 330 294 q 227 205 248 234 q 205 144 205 176 q 229 85 205 113 q 282 58 252 58 q 320 68 299 58 q 364 94 341 78 q 425 139 387 111 q 396 275 396 195 q 397 296 396 282 q 400 318 399 310 q 401 335 401 327 m 163 547 q 105 504 127 524 q 83 457 83 483 q 97 431 83 443 q 131 419 110 419 q 163 425 146 419 q 131 475 131 439 q 163 547 131 510 m 197 252 q 98 181 130 214 q 65 98 65 149 q 98 28 65 57 q 182 0 130 0 q 232 11 203 0 q 141 44 170 17 q 111 110 111 71 q 197 252 111 177 z "},"":{"ha":694,"x_min":41,"x_max":654,"o":"m 57 0 l 125 74 q 63 172 84 115 q 41 292 41 229 q 65 413 41 355 q 132 515 89 472 q 231 581 174 557 q 351 604 287 604 q 533 547 453 604 l 597 621 l 628 593 l 564 521 q 654 298 654 435 q 613 138 654 210 q 502 24 572 66 q 349 -17 432 -17 q 244 0 296 -17 q 154 47 193 17 l 87 -28 l 57 0 m 222 192 l 460 464 q 346 567 420 567 q 245 508 281 567 q 210 330 210 448 q 222 192 210 244 m 473 418 l 236 144 q 289 52 260 83 q 361 21 319 21 q 451 83 415 21 q 486 268 486 144 q 473 418 486 360 m 282 9 q 150 136 194 63 q 106 297 106 210 q 127 414 106 363 q 182 500 148 464 q 268 575 216 536 q 153 507 199 551 q 85 406 107 463 q 64 286 64 349 q 78 195 64 240 q 120 115 92 151 q 188 52 147 79 q 282 9 229 24 m 436 37 q 502 91 476 57 q 541 171 528 124 q 554 281 554 218 q 414 566 554 501 q 485 454 461 526 q 509 260 509 383 q 493 135 509 183 q 436 37 478 86 z "},"":{"ha":449,"x_min":53,"x_max":399,"o":"m 294 397 l 338 397 l 338 68 q 158 29 220 64 q 97 -83 97 -5 q 115 -147 97 -118 q 162 -192 133 -176 q 224 -208 191 -208 q 263 -202 235 -208 q 306 -196 291 -196 q 368 -216 343 -196 q 392 -264 392 -235 q 365 -314 392 -294 q 302 -334 338 -334 q 211 -311 256 -334 q 131 -245 167 -288 q 74 -144 94 -203 q 53 -17 53 -85 q 113 161 53 103 q 294 221 173 219 l 294 397 m 283 151 l 294 151 l 294 197 l 279 197 q 141 153 197 197 q 77 24 85 109 q 156 117 110 83 q 283 151 202 151 m 294 -264 l 275 -264 q 194 -251 228 -264 q 131 -211 161 -237 q 215 -288 168 -261 q 301 -315 262 -315 q 338 -307 320 -315 q 307 -296 318 -306 q 294 -264 296 -286 m 313 657 q 373 633 347 657 q 399 574 399 608 q 373 513 399 538 q 313 489 347 489 q 254 514 278 489 q 229 574 229 539 q 253 633 229 609 q 313 657 276 657 m 321 513 q 298 572 298 540 q 321 631 298 602 q 316 632 319 631 q 311 633 313 633 q 269 615 287 633 q 252 572 252 597 q 269 529 252 547 q 310 511 287 511 q 315 512 313 512 q 321 513 318 513 z "},"":{"ha":334,"x_min":86,"x_max":254,"o":"m 147 364 l 186 364 l 220 47 q 238 -82 224 11 q 253 -215 253 -175 q 231 -303 253 -273 q 171 -334 208 -334 q 127 -319 146 -334 q 98 -275 108 -304 q 87 -200 87 -245 q 90 -145 87 -172 q 97 -86 93 -117 q 107 -11 102 -54 l 147 364 m 160 257 l 123 -81 q 118 -121 123 -88 q 112 -179 114 -153 q 110 -221 110 -205 q 127 -286 110 -262 q 172 -310 144 -310 q 193 -304 185 -310 q 153 -221 153 -288 q 160 -97 153 -184 q 171 34 168 -10 q 174 154 174 78 q 167 257 174 208 l 160 257 m 170 489 q 110 514 134 489 q 86 575 86 539 q 110 636 86 611 q 170 661 134 661 q 212 650 193 661 q 243 618 231 638 q 254 575 254 599 q 243 532 254 551 q 212 500 231 512 q 170 489 193 489 m 180 514 q 154 571 154 541 q 158 596 154 585 q 169 617 162 608 q 180 632 176 627 q 165 633 175 633 q 127 617 146 633 q 109 574 109 602 q 130 529 109 545 q 180 514 152 512 z "},"":{"ha":791,"x_min":28,"x_max":770,"o":"m 28 612 l 770 612 l 770 303 l 682 303 l 682 524 l 28 525 l 28 612 z "},"":{"ha":762,"x_min":57,"x_max":762,"o":"m 712 1267 l 762 1267 l 551 -53 l 214 640 l 80 578 l 57 621 l 261 724 l 536 165 l 712 1267 z "},"":{"ha":708,"x_min":-1,"x_max":700,"o":"m 443 593 l 575 593 l 575 550 l 443 550 l 418 37 q 396 -136 412 -83 q 297 -281 367 -228 q 139 -334 227 -334 q 37 -301 76 -334 q -1 -225 -1 -269 q 22 -168 -1 -190 q 79 -146 45 -146 q 116 -156 100 -146 q 141 -183 132 -167 q 150 -215 150 -200 q 146 -244 150 -223 q 143 -268 143 -266 q 164 -289 143 -289 q 215 -263 195 -289 q 246 -185 235 -237 q 260 -62 257 -133 l 289 550 l 150 550 l 150 593 l 289 593 q 301 743 291 635 q 326 836 307 794 q 379 911 345 878 q 458 964 414 945 q 553 982 502 982 q 660 950 619 982 q 700 872 700 918 q 675 814 700 836 q 621 793 651 793 q 573 815 594 793 q 553 865 553 838 q 554 879 553 873 q 554 895 554 884 q 546 924 554 911 q 524 937 537 937 q 475 892 491 937 q 453 754 458 846 l 443 593 m 675 852 q 652 847 664 847 q 619 867 632 847 q 598 908 604 897 q 583 926 591 920 q 558 936 575 932 q 574 903 572 918 q 585 838 576 859 q 623 817 593 817 q 675 852 659 817 m 328 -47 l 361 707 q 387 852 366 800 q 463 943 408 903 q 381 879 412 916 q 334 791 350 842 q 315 665 319 740 l 281 -98 q 268 -199 278 -159 q 235 -273 257 -239 q 302 -186 281 -237 q 328 -47 323 -136 m 115 -186 q 75 -170 102 -170 q 37 -186 52 -170 q 21 -222 21 -202 q 48 -277 21 -253 q 126 -309 75 -300 q 65 -224 65 -267 q 79 -194 65 -206 q 115 -186 92 -182 z "},"":{"ha":762,"x_min":9,"x_max":754,"o":"m 711 743 l 754 743 q 698 572 753 633 q 564 511 644 511 q 485 523 526 511 q 309 591 443 534 q 168 632 212 632 q 94 605 123 632 q 52 511 64 577 l 9 511 q 63 684 14 625 q 193 744 112 744 q 268 734 232 744 q 453 664 336 715 q 551 627 518 636 q 595 622 571 622 q 673 653 641 622 q 711 743 705 684 m 711 398 l 754 398 q 698 227 753 288 q 565 165 644 165 q 485 177 527 165 q 309 245 443 189 q 168 286 213 286 q 94 259 123 286 q 52 166 64 231 l 9 166 q 63 339 14 279 q 193 399 112 399 q 267 389 232 399 q 453 319 335 370 q 551 281 519 290 q 595 276 571 276 q 673 307 641 276 q 711 398 705 338 z "},"":{"ha":850,"x_min":8,"x_max":844,"o":"m 453 956 l 844 0 l 8 0 l 453 956 m 403 718 l 100 68 l 672 68 l 403 718 z "},"":{"ha":766,"x_min":28,"x_max":739,"o":"m 559 629 l 739 629 l 551 297 l 739 -33 l 559 -33 l 374 297 l 559 629 m 450 297 l 623 604 q 570 581 589 602 q 524 511 551 559 l 399 297 l 524 72 q 570 8 548 28 q 623 -11 591 -11 l 450 297 m 215 629 l 392 629 l 205 297 l 392 -33 l 215 -33 l 28 297 l 215 629 m 103 297 l 277 604 q 230 589 249 604 q 199 553 210 574 q 187 529 189 532 l 53 297 l 187 58 q 225 8 209 25 q 271 -9 241 -9 l 277 -9 l 103 297 z "},"":{"ha":766,"x_min":29,"x_max":739,"o":"m 374 628 l 551 628 l 739 296 l 551 -35 l 374 -35 l 562 296 l 374 628 m 586 296 l 412 -11 l 421 -11 q 471 13 452 -11 q 517 85 490 36 l 637 296 l 521 500 q 469 581 489 557 q 419 604 448 604 l 412 604 l 586 296 m 29 628 l 208 628 l 395 296 l 208 -35 l 29 -35 l 216 296 l 29 628 m 243 296 l 66 -11 l 78 -11 q 124 13 104 -11 q 170 83 144 37 l 290 296 l 176 500 q 123 582 146 557 q 71 603 100 607 l 243 296 z "},"":{"ha":1389,"x_min":149,"x_max":1242,"o":"m 232 154 q 292 129 267 154 q 317 68 317 103 q 305 24 317 44 q 274 -7 294 5 q 232 -18 255 -18 q 173 7 197 -18 q 149 68 149 33 q 172 129 149 104 q 232 154 196 154 m 245 11 q 223 38 230 26 q 216 71 216 50 q 223 105 216 94 q 245 129 230 117 q 229 131 240 131 q 189 113 207 131 q 171 69 171 95 q 189 27 171 45 q 228 9 206 9 q 245 11 239 9 m 1157 154 q 1217 129 1192 154 q 1242 68 1242 103 q 1216 7 1242 33 q 1157 -18 1191 -18 q 1099 7 1122 -18 q 1075 68 1075 32 q 1098 129 1075 104 q 1157 154 1122 154 m 1173 11 q 1157 26 1164 18 q 1146 46 1150 35 q 1141 71 1141 58 q 1148 104 1141 94 q 1173 129 1156 115 q 1156 131 1166 131 q 1115 113 1133 131 q 1097 69 1097 95 q 1115 27 1097 45 q 1154 9 1133 9 q 1173 11 1165 9 m 694 154 q 754 129 730 154 q 779 68 779 103 q 754 7 779 33 q 694 -18 728 -18 q 635 7 660 -18 q 610 68 610 32 q 634 129 610 103 q 694 154 659 154 m 708 11 q 686 38 692 26 q 679 71 679 50 q 686 105 679 94 q 708 129 692 117 q 693 131 703 131 q 654 113 671 131 q 636 69 636 96 q 653 27 636 45 q 692 9 669 9 q 708 11 701 9 z "},"":{"ha":347,"x_min":0,"x_max":0,"o":""},"":{"ha":1013,"x_min":14,"x_max":996,"o":"m 677 167 l 602 361 l 281 361 l 236 245 q 218 154 218 201 q 247 74 218 109 q 328 37 276 39 l 328 0 l 14 0 l 14 37 q 183 218 119 53 l 418 819 q 379 862 399 851 q 319 878 359 873 l 319 911 l 482 966 l 545 966 l 859 165 q 913 74 886 98 q 996 37 940 50 l 996 0 l 593 0 l 593 37 q 671 54 645 43 q 697 96 697 64 q 677 167 697 123 m 297 404 l 585 404 l 440 770 l 297 404 m 739 192 l 497 806 q 460 871 479 852 q 408 890 441 890 q 376 888 389 890 q 426 852 409 875 q 457 790 442 829 l 697 176 q 720 92 720 122 q 712 63 720 72 q 682 37 705 54 l 697 37 q 746 54 729 37 q 764 94 764 71 q 739 192 764 127 m 86 37 l 216 37 q 174 121 174 71 q 175 143 174 135 q 138 85 157 109 q 86 37 119 62 m 640 1067 l 596 1067 l 349 1276 l 555 1276 l 640 1067 m 582 1105 l 518 1239 l 424 1239 l 582 1105 z "},"":{"ha":1013,"x_min":14,"x_max":996,"o":"m 677 167 l 602 361 l 281 361 l 236 245 q 218 154 218 201 q 247 74 218 109 q 328 37 276 39 l 328 0 l 14 0 l 14 37 q 183 218 119 53 l 418 819 q 379 862 399 851 q 319 878 359 873 l 319 911 l 482 966 l 545 966 l 859 165 q 913 74 886 98 q 996 37 940 50 l 996 0 l 593 0 l 593 37 q 671 54 645 43 q 697 96 697 64 q 677 167 697 123 m 297 404 l 585 404 l 440 770 l 297 404 m 739 192 l 497 806 q 460 871 479 852 q 408 890 441 890 q 376 888 389 890 q 426 852 409 875 q 457 790 442 829 l 697 176 q 720 92 720 122 q 712 63 720 72 q 682 37 705 54 l 697 37 q 746 54 729 37 q 764 94 764 71 q 739 192 764 127 m 86 37 l 216 37 q 174 121 174 71 q 175 143 174 135 q 138 85 157 109 q 86 37 119 62 m 696 1274 l 696 1291 l 743 1291 q 744 1277 744 1284 q 745 1263 745 1271 q 724 1172 745 1212 q 667 1112 703 1133 q 589 1090 631 1090 q 522 1101 549 1090 q 433 1142 496 1112 q 346 1171 370 1171 q 301 1151 319 1171 q 282 1090 283 1131 l 243 1090 q 242 1107 243 1100 q 241 1122 242 1114 q 259 1203 241 1165 q 311 1265 277 1242 q 393 1289 345 1289 q 461 1279 426 1289 q 529 1253 496 1268 q 593 1226 562 1238 q 643 1214 624 1214 q 682 1230 668 1214 q 696 1274 696 1246 m 614 1152 q 560 1159 585 1152 q 488 1188 535 1167 q 416 1218 440 1209 q 371 1227 393 1227 q 296 1173 321 1227 q 346 1194 322 1194 q 392 1185 369 1194 q 460 1154 414 1176 q 533 1123 505 1133 q 590 1114 561 1114 q 707 1183 666 1114 q 662 1159 682 1167 q 614 1152 642 1152 z "},"":{"ha":1129,"x_min":60,"x_max":1074,"o":"m 60 482 q 71 598 60 543 q 105 703 83 653 q 161 795 127 752 q 236 872 195 839 q 331 931 280 908 q 441 965 382 954 q 568 975 500 975 q 777 937 682 975 q 937 829 871 898 q 1038 672 1003 761 q 1074 484 1074 583 q 1035 285 1074 377 q 924 125 996 193 q 756 19 852 57 q 549 -18 660 -18 q 353 19 444 -18 q 197 122 262 56 q 96 281 132 189 q 60 482 60 374 m 248 554 q 272 337 248 436 q 342 166 296 238 q 449 57 387 95 q 583 20 511 20 q 699 46 644 20 q 795 124 753 72 q 859 253 836 176 q 882 432 882 330 q 856 638 882 543 q 783 799 829 732 q 673 901 736 865 q 538 937 610 937 q 421 910 475 937 q 329 832 367 883 q 269 711 290 782 q 248 554 248 641 m 311 900 q 140 723 199 831 q 82 481 82 616 q 120 276 82 369 q 232 118 158 184 q 415 16 306 52 q 203 202 282 83 q 125 493 125 321 q 145 648 125 579 q 208 779 166 718 q 311 900 250 840 m 665 928 q 796 815 742 887 q 877 644 850 744 q 904 425 904 545 q 873 229 904 312 q 786 82 842 146 q 878 177 842 124 q 930 298 913 231 q 947 450 947 366 q 914 673 947 572 q 816 842 880 775 q 665 928 752 909 m 768 1274 l 768 1291 l 816 1291 q 817 1277 817 1284 q 817 1263 817 1271 q 796 1172 817 1212 q 739 1112 775 1133 q 661 1090 703 1090 q 595 1101 621 1090 q 505 1142 568 1112 q 418 1171 442 1171 q 373 1151 391 1171 q 355 1090 355 1131 l 315 1090 q 315 1107 315 1100 q 314 1122 315 1114 q 332 1203 314 1165 q 384 1265 349 1242 q 466 1289 418 1289 q 533 1279 498 1289 q 602 1253 568 1268 q 666 1226 635 1238 q 715 1214 696 1214 q 754 1230 741 1214 q 768 1274 768 1246 m 686 1152 q 632 1159 657 1152 q 560 1188 608 1167 q 489 1218 513 1209 q 444 1227 465 1227 q 368 1173 394 1227 q 418 1194 395 1194 q 464 1185 441 1194 q 532 1154 487 1176 q 606 1123 578 1133 q 663 1114 633 1114 q 779 1183 739 1114 q 734 1159 755 1167 q 686 1152 714 1152 z "},"":{"ha":1461,"x_min":60,"x_max":1440,"o":"m 1157 679 l 1204 679 l 1204 317 l 1157 317 q 1110 442 1153 405 q 978 479 1067 479 l 876 479 l 876 183 q 883 97 876 126 q 920 53 890 68 q 1014 37 950 37 q 1148 61 1084 37 q 1269 130 1212 84 q 1378 245 1326 176 l 1440 245 l 1354 0 l 473 0 q 310 34 386 0 q 178 133 235 68 q 90 285 121 197 q 60 478 60 373 q 91 671 60 583 q 179 824 122 760 q 316 922 237 888 q 492 957 396 957 l 1324 957 l 1401 736 l 1354 736 q 1265 817 1311 783 q 1175 874 1220 852 q 1083 908 1131 896 q 987 920 1036 920 q 895 891 913 920 q 876 798 876 863 l 876 517 l 975 517 q 1157 679 1147 517 m 1318 804 l 1258 920 l 1120 920 q 1219 875 1184 897 q 1318 804 1254 853 m 1157 37 l 1286 37 l 1333 163 q 1250 90 1282 111 q 1157 37 1218 68 m 1147 436 l 1147 567 q 1100 521 1123 535 q 1035 497 1076 507 q 1101 479 1072 495 q 1147 436 1131 463 m 728 711 l 728 249 q 699 113 728 165 q 603 37 671 61 q 697 57 663 39 q 748 105 731 74 q 768 177 764 136 q 772 283 772 219 l 772 707 q 761 824 772 779 q 718 892 749 869 q 632 920 687 916 q 705 850 682 895 q 728 711 728 806 m 705 277 l 705 679 q 692 823 705 789 q 541 921 654 921 q 399 881 457 921 q 302 758 341 840 q 245 461 245 635 q 281 244 245 340 q 379 94 316 147 q 521 40 442 40 q 605 58 564 40 q 668 103 647 76 q 705 250 705 150 l 705 277 m 428 26 q 361 50 391 37 q 299 89 331 64 q 235 155 267 114 q 154 304 181 225 q 127 469 127 382 q 148 620 127 547 q 207 752 168 692 q 306 859 245 812 q 441 933 366 907 q 249 857 330 920 q 124 695 167 794 q 82 473 82 596 q 98 338 82 404 q 143 221 114 273 q 212 128 172 168 q 301 62 252 88 q 361 39 336 45 q 428 26 387 33 z "},"":{"ha":1071,"x_min":41,"x_max":1048,"o":"m 787 604 q 907 575 850 604 q 1001 489 963 546 q 1048 358 1040 433 l 646 358 q 668 216 646 273 q 734 131 690 159 q 838 103 777 103 q 938 123 890 103 q 1018 180 985 143 l 1048 154 q 971 66 1003 98 q 883 8 939 35 q 755 -18 828 -18 q 644 2 697 -18 q 553 57 590 22 q 339 -17 462 -17 q 186 23 254 -17 q 80 132 118 63 q 41 285 41 201 q 82 447 41 374 q 193 562 122 519 q 350 604 264 604 q 561 519 466 604 q 624 564 587 544 q 703 594 661 583 q 787 604 745 604 m 903 421 l 903 401 q 938 406 929 401 q 946 424 946 410 q 944 443 946 435 q 940 456 943 450 q 936 467 938 463 q 902 528 928 503 q 836 564 876 553 q 903 421 903 519 m 648 401 l 880 401 l 880 415 q 850 525 880 483 q 770 567 821 567 q 685 521 718 567 q 648 401 652 475 m 576 501 l 604 467 q 640 518 614 488 q 688 567 667 549 q 576 501 628 551 m 599 107 l 568 72 q 651 19 604 39 q 746 0 698 0 q 958 85 863 0 q 786 40 875 40 q 683 58 732 40 q 599 107 633 75 m 414 564 q 491 452 469 521 q 514 279 514 384 q 504 161 514 206 q 479 90 494 117 q 433 25 464 64 q 526 122 493 55 q 558 285 558 189 q 521 464 558 391 q 414 564 484 537 m 211 325 q 251 101 211 181 q 357 21 291 21 q 455 87 419 21 q 492 273 492 153 q 452 491 492 416 q 342 567 412 567 q 290 552 313 567 q 249 507 266 537 q 221 432 231 477 q 211 325 211 387 m 253 566 q 115 460 167 536 q 64 288 64 385 q 116 115 64 189 q 268 8 169 42 q 181 78 217 37 q 126 173 145 119 q 107 297 107 228 q 145 448 107 385 q 253 566 182 511 z "},"":{"ha":694,"x_min":8,"x_max":686,"o":"m 8 254 l 8 340 l 686 340 l 686 254 l 8 254 z "},"":{"ha":1389,"x_min":8,"x_max":1381,"o":"m 8 254 l 8 340 l 1381 340 l 1381 254 l 8 254 z "},"":{"ha":607,"x_min":60,"x_max":547,"o":"m 253 978 l 253 933 q 186 884 209 914 q 163 817 163 854 q 191 748 163 783 q 246 680 218 714 q 273 611 273 645 q 248 557 273 578 q 191 536 223 536 q 130 559 160 536 q 79 623 99 581 q 60 715 60 665 q 112 872 60 804 q 253 978 165 941 m 154 885 q 82 713 82 806 q 116 607 82 654 q 192 559 149 559 q 244 593 228 559 q 228 590 239 590 q 149 638 179 590 q 118 753 118 686 q 154 885 118 813 m 528 978 l 528 933 q 460 884 484 914 q 437 817 437 854 q 465 748 437 781 q 520 680 492 714 q 547 611 547 646 q 522 557 547 578 q 465 536 497 536 q 405 558 435 536 q 355 622 374 581 q 335 715 335 663 q 349 800 335 759 q 389 873 363 840 q 451 934 414 907 q 528 978 488 962 m 429 885 q 357 713 357 806 q 390 607 357 654 q 467 559 424 559 q 519 593 503 559 q 503 590 514 590 q 424 637 454 590 q 393 753 393 685 q 429 885 393 811 z "},"":{"ha":607,"x_min":62,"x_max":547,"o":"m 81 536 l 81 581 q 148 632 120 599 q 175 701 175 665 q 160 754 175 731 q 118 803 146 777 q 75 853 87 836 q 62 897 62 870 q 87 951 62 928 q 147 975 113 975 q 207 953 178 975 q 254 891 235 931 q 272 802 272 850 q 224 646 272 713 q 81 536 176 578 m 179 639 q 220 745 220 691 q 201 810 220 787 q 137 887 146 876 q 127 909 127 899 q 154 951 127 936 l 139 951 q 99 935 113 951 q 85 899 85 919 q 92 871 85 885 q 111 846 99 858 q 140 815 122 833 q 182 764 167 789 q 197 707 197 739 q 195 684 197 695 q 186 659 192 673 q 179 639 181 645 m 355 536 l 355 581 q 422 632 395 600 q 449 701 449 665 q 434 755 449 732 q 393 803 419 779 q 350 853 362 836 q 338 897 338 870 q 363 952 338 928 q 422 975 389 975 q 481 953 452 975 q 529 891 510 931 q 547 802 547 850 q 355 536 547 620 m 454 639 q 494 745 494 688 q 476 810 494 788 q 429 866 444 848 q 409 892 414 883 q 403 909 403 901 q 407 929 403 922 q 418 943 412 937 q 429 951 425 948 l 414 951 q 374 935 388 951 q 359 899 359 919 q 363 879 359 889 q 378 855 367 869 q 397 833 390 840 q 414 817 404 827 q 456 765 441 791 q 471 707 471 740 q 454 639 471 680 z "},"":{"ha":334,"x_min":61,"x_max":273,"o":"m 253 978 l 253 933 q 186 884 209 914 q 163 817 163 854 q 191 748 163 783 q 246 680 218 714 q 273 611 273 645 q 248 557 273 578 q 191 536 223 536 q 102 587 142 536 q 61 715 61 638 q 113 873 61 805 q 253 978 164 941 m 158 893 q 102 810 121 850 q 83 713 83 770 q 99 637 83 672 q 139 581 114 602 q 192 559 164 559 q 244 593 228 559 q 228 590 239 590 q 149 638 179 590 q 118 753 118 686 q 158 893 118 816 z "},"":{"ha":334,"x_min":62,"x_max":272,"o":"m 81 536 l 81 581 q 147 632 120 600 q 174 701 174 664 q 159 754 174 730 q 118 804 144 779 q 75 854 87 837 q 62 897 62 872 q 87 951 62 928 q 147 975 113 975 q 207 953 178 975 q 254 891 235 931 q 272 802 272 850 q 224 646 272 713 q 81 536 176 578 m 179 639 q 220 745 220 691 q 201 810 220 787 q 137 887 146 876 q 127 909 127 899 q 154 951 127 936 l 139 951 q 99 935 113 951 q 85 899 85 919 q 92 872 85 886 q 115 842 100 858 q 140 815 130 825 q 196 707 196 757 q 179 639 196 685 z "},"":{"ha":762,"x_min":11,"x_max":752,"o":"m 382 757 q 432 736 412 757 q 452 688 452 716 q 432 639 452 659 q 382 618 412 618 q 334 639 354 618 q 313 688 313 659 q 334 736 313 716 q 382 757 354 757 m 11 505 l 752 505 l 752 415 l 11 415 l 11 505 m 382 308 q 431 287 411 308 q 452 238 452 267 q 431 189 452 209 q 382 168 411 168 q 333 189 353 168 q 312 238 312 209 q 332 287 312 267 q 382 308 353 308 z "},"":{"ha":686,"x_min":32,"x_max":656,"o":"m 372 964 l 656 481 l 372 0 l 297 0 l 32 481 l 297 964 l 372 964 m 336 899 l 105 481 l 336 64 l 579 481 l 336 899 z "},"":{"ha":694,"x_min":16,"x_max":681,"o":"m 447 593 l 681 593 l 681 558 q 625 523 648 544 q 586 476 602 503 q 551 409 570 450 q 514 319 532 367 l 332 -144 q 136 -334 258 -334 q 67 -312 96 -334 q 39 -258 39 -290 q 61 -213 39 -231 q 115 -195 84 -195 q 148 -202 130 -195 q 183 -217 166 -210 q 215 -225 201 -225 q 296 -132 260 -225 l 332 -35 l 127 440 q 110 483 119 461 q 88 522 100 505 q 59 548 77 538 q 16 558 41 557 l 16 593 l 368 593 l 368 558 q 304 546 326 555 q 282 507 282 536 q 301 432 282 478 l 414 172 l 498 380 q 515 468 515 421 q 447 558 515 544 l 447 593 m 606 555 l 498 555 q 526 522 519 539 q 536 468 533 505 q 567 521 552 503 q 606 555 582 540 m 346 0 l 368 54 l 193 460 q 160 526 174 506 q 129 553 147 546 q 82 558 111 561 q 119 515 109 534 q 150 447 129 496 l 346 0 m 160 -313 q 104 -260 104 -300 q 138 -218 104 -235 q 109 -212 117 -212 q 74 -225 87 -212 q 61 -257 61 -239 q 87 -300 61 -284 q 160 -313 113 -317 m 281 802 q 254 737 281 760 q 195 714 228 714 q 132 738 158 714 q 106 799 106 762 q 132 862 106 837 q 195 886 158 886 q 256 862 231 886 q 281 802 281 838 m 212 733 q 180 761 191 747 q 170 803 170 775 q 179 837 170 818 q 207 867 189 855 q 149 849 170 867 q 127 799 127 830 q 146 752 127 772 q 192 732 165 732 q 212 733 204 732 m 410 799 q 436 862 410 837 q 498 886 463 886 q 560 860 535 886 q 585 799 585 833 q 561 739 585 765 q 497 713 536 713 q 435 738 460 713 q 410 799 410 764 m 511 733 q 475 800 475 760 q 517 867 475 840 q 512 868 514 867 q 505 868 509 868 q 453 848 474 868 q 432 799 432 827 q 452 751 432 770 q 511 733 471 732 z "},"":{"ha":1013,"x_min":20,"x_max":994,"o":"m 692 920 l 692 957 l 994 957 l 994 920 q 933 893 964 916 q 870 829 903 871 q 803 728 838 787 l 603 385 l 603 140 q 635 59 603 75 q 747 37 667 43 l 747 0 l 290 0 l 290 37 l 302 37 q 390 53 361 37 q 426 92 419 68 q 433 154 433 115 l 433 351 l 144 836 q 97 901 119 880 q 20 920 75 922 l 20 957 l 467 957 l 467 920 q 372 909 406 918 q 339 864 339 901 q 387 755 339 836 l 583 429 l 714 650 q 767 753 750 710 q 785 833 785 796 q 761 893 785 867 q 699 920 736 920 l 692 920 m 807 838 l 807 822 q 841 877 824 859 q 885 920 857 895 l 766 920 q 807 838 807 894 m 498 370 l 216 844 q 172 905 189 891 q 125 920 155 920 l 104 920 q 134 896 122 912 q 167 844 146 880 l 456 359 l 456 125 q 443 70 456 86 q 393 37 429 54 l 422 37 q 482 58 465 37 q 498 122 498 79 l 498 370 m 454 1173 q 428 1108 454 1131 q 368 1085 401 1085 q 306 1109 332 1085 q 279 1170 279 1133 q 306 1233 279 1208 q 368 1257 332 1257 q 429 1233 404 1257 q 454 1173 454 1209 m 386 1104 q 354 1132 365 1118 q 343 1174 343 1146 q 353 1207 343 1189 q 380 1238 362 1226 q 322 1220 343 1238 q 301 1170 301 1201 q 320 1123 301 1143 q 366 1103 338 1103 q 386 1104 378 1103 m 583 1170 q 610 1233 583 1208 q 672 1257 637 1257 q 733 1231 709 1257 q 758 1170 758 1204 q 734 1110 758 1136 q 671 1084 710 1084 q 609 1109 634 1084 q 583 1170 583 1135 m 685 1104 q 648 1171 648 1131 q 690 1238 648 1211 q 685 1239 688 1238 q 679 1239 683 1239 q 627 1219 648 1239 q 606 1170 606 1198 q 625 1122 606 1141 q 685 1104 645 1103 z "},"":{"ha":232,"x_min":-256,"x_max":487,"o":"m 487 939 l -166 -40 l -256 -40 l 397 939 l 487 939 z "},"":{"ha":708,"x_min":5,"x_max":724,"o":"m 724 186 q 406 -18 596 -18 q 180 86 264 -18 q 79 386 96 191 l 5 386 l 20 464 l 75 464 l 75 471 q 77 515 75 501 l 5 515 l 20 593 l 82 593 q 188 877 104 778 q 396 975 271 975 q 526 942 459 975 q 561 929 551 929 q 592 936 581 929 q 627 970 603 943 l 682 970 l 682 669 l 640 669 q 518 877 574 817 q 400 937 462 937 q 250 593 267 937 l 464 593 l 450 515 l 248 515 l 248 464 l 464 464 l 450 386 l 249 386 q 287 122 254 224 q 407 20 320 20 q 689 207 576 20 l 724 186 m 290 25 q 143 471 143 191 q 290 928 143 770 q 97 469 97 827 q 290 25 97 133 m 627 791 l 627 911 q 579 897 600 897 q 550 901 564 897 q 627 791 587 867 z "},"":{"ha":435,"x_min":28,"x_max":392,"o":"m 215 629 l 392 629 l 205 297 l 392 -33 l 215 -33 l 28 297 l 215 629 m 103 297 l 277 604 q 230 589 249 604 q 199 553 210 574 q 187 529 189 532 l 53 297 l 187 58 q 225 8 209 25 q 271 -9 241 -9 l 277 -9 l 103 297 z "},"":{"ha":435,"x_min":41,"x_max":407,"o":"m 41 628 l 220 628 l 407 296 l 220 -35 l 41 -35 l 229 296 l 41 628 m 254 296 l 81 -11 l 87 -11 q 138 13 119 -11 q 184 85 158 36 l 304 296 l 189 500 q 136 581 157 558 q 87 604 115 604 l 81 604 l 254 296 z "},"":{"ha":796,"x_min":29,"x_max":771,"o":"m 761 37 l 771 37 l 771 0 l 433 0 l 433 37 l 444 37 q 505 47 481 37 q 529 85 528 56 q 530 109 529 92 q 532 131 532 127 l 532 441 q 518 508 532 485 q 468 541 505 531 q 359 550 432 550 l 277 550 l 277 104 q 295 52 277 66 q 357 37 313 37 l 374 37 l 374 0 l 29 0 l 29 37 q 95 47 71 37 q 119 90 119 58 l 119 550 l 29 550 l 29 593 l 119 593 l 119 689 q 119 700 119 695 q 118 710 119 705 q 201 911 118 842 q 429 981 283 981 q 588 946 531 981 q 644 857 644 912 q 623 800 644 823 q 567 777 601 777 q 518 794 540 777 q 493 839 497 812 q 489 872 492 851 q 478 908 486 892 q 454 933 471 923 q 410 943 437 943 q 344 924 375 943 q 295 868 313 905 q 277 782 277 831 l 277 593 l 501 593 q 688 619 600 593 l 688 114 q 702 56 688 74 q 761 37 715 37 m 611 823 q 579 826 587 823 q 559 842 570 828 q 532 892 549 857 q 493 920 521 915 q 510 868 503 903 q 527 817 517 833 q 564 800 536 800 q 611 823 593 800 m 599 110 l 599 433 q 591 505 599 480 q 558 542 583 529 q 484 558 533 555 q 541 515 527 538 q 554 456 554 492 l 554 103 q 547 61 554 77 q 518 31 541 46 q 579 51 560 35 q 599 110 599 66 m 142 714 l 142 122 q 137 68 142 85 q 113 37 133 52 q 161 51 146 41 q 182 77 176 60 q 187 121 187 94 l 187 689 q 216 840 187 781 q 302 942 244 900 q 181 857 220 907 q 142 714 142 807 z "},"":{"ha":796,"x_min":28,"x_max":770,"o":"m 118 550 l 28 550 l 28 593 l 118 593 l 118 701 q 154 857 118 795 q 261 950 190 920 q 435 981 333 981 q 558 970 500 981 q 688 942 616 960 l 688 98 q 708 51 688 64 q 770 37 728 37 l 770 0 l 433 0 l 433 37 q 511 51 491 37 q 530 117 530 64 l 530 785 q 493 839 498 809 l 484 893 q 457 928 481 912 q 408 943 434 943 q 314 900 353 943 q 275 766 275 857 l 275 593 l 415 593 l 415 550 l 275 550 l 275 119 q 280 72 275 88 q 301 46 285 55 q 354 37 318 37 l 372 37 l 372 0 l 28 0 l 28 37 l 35 37 q 89 44 71 37 q 112 71 106 52 q 118 131 118 91 l 118 550 m 553 800 l 553 100 q 546 60 553 75 q 517 31 539 45 q 566 41 549 34 q 591 65 583 49 q 599 111 599 81 l 599 810 q 610 823 605 814 l 599 823 q 574 828 583 823 q 555 847 565 832 q 532 892 545 861 q 492 920 521 915 q 506 881 503 903 q 514 844 510 860 q 526 817 517 828 q 553 800 534 806 m 140 699 l 140 135 q 136 69 140 88 q 111 37 131 50 q 171 59 157 40 q 186 117 186 78 l 186 689 q 215 844 186 787 q 302 942 245 901 q 178 854 215 907 q 140 699 140 802 z "},"":{"ha":633,"x_min":39,"x_max":587,"o":"m 262 -235 l 262 16 l 39 16 l 39 125 l 262 125 l 262 617 l 39 617 l 39 726 l 262 726 l 262 981 l 362 981 l 362 726 l 587 726 l 587 617 l 362 617 l 362 125 l 587 125 l 587 16 l 362 16 l 362 -235 l 262 -235 z "},"":{"ha":334,"x_min":87,"x_max":256,"o":"m 171 568 q 231 543 207 568 q 256 482 256 517 q 231 422 256 446 q 171 397 205 397 q 112 422 136 397 q 87 482 87 447 q 111 543 87 517 q 171 568 135 568 m 184 424 q 163 450 170 437 q 155 484 155 463 q 162 518 155 506 q 184 543 169 530 q 168 545 179 545 q 127 526 145 545 q 110 482 110 508 q 127 439 110 457 q 167 421 144 421 q 184 424 171 421 z "},"":{"ha":334,"x_min":66,"x_max":260,"o":"m 66 -297 l 66 -260 q 163 -122 163 -204 q 152 -71 163 -92 q 117 -17 140 -49 q 82 35 93 14 q 72 82 72 56 q 95 136 72 113 q 150 158 118 158 q 209 134 184 158 q 247 71 233 111 q 260 -11 260 31 q 235 -126 260 -69 q 165 -230 210 -184 q 66 -297 120 -275 m 175 125 q 146 135 155 135 q 109 120 123 135 q 94 81 94 104 q 103 41 94 56 q 137 -7 112 26 q 173 -64 161 -40 q 184 -122 184 -87 q 163 -196 184 -151 q 215 -79 215 -139 q 204 -28 215 -50 q 179 13 194 -5 q 151 50 165 31 q 138 86 138 70 q 147 110 138 102 q 175 125 156 118 z "},"":{"ha":607,"x_min":62,"x_max":547,"o":"m 81 -281 l 81 -237 q 147 -186 119 -219 q 175 -115 175 -153 q 161 -62 175 -85 q 117 -10 146 -40 q 75 38 87 20 q 62 79 62 55 q 74 119 62 101 q 106 148 86 137 q 147 158 125 158 q 206 136 177 158 q 254 74 235 114 q 272 -16 272 33 q 81 -281 272 -197 m 179 -178 q 220 -74 220 -123 q 201 -8 220 -31 q 154 47 167 31 q 134 73 140 63 q 127 92 127 83 q 135 117 127 109 q 154 134 142 126 q 148 135 151 134 q 139 135 144 135 q 98 118 112 135 q 85 81 85 102 q 105 38 85 62 q 147 -8 126 13 q 182 -55 168 -30 q 197 -111 197 -79 q 195 -134 197 -123 q 186 -160 192 -145 q 179 -178 180 -176 m 355 -281 l 355 -237 q 422 -185 395 -218 q 449 -115 449 -153 q 434 -61 449 -84 q 390 -8 419 -37 q 350 37 361 20 q 338 79 338 54 q 363 135 338 111 q 422 158 389 158 q 481 136 452 158 q 529 74 511 114 q 547 -16 547 33 q 355 -281 547 -197 m 454 -178 q 494 -74 494 -126 q 476 -8 494 -30 q 444 30 460 12 q 419 60 429 47 q 406 79 410 73 q 403 92 403 85 q 410 117 403 109 q 429 134 418 126 q 422 135 425 134 q 414 135 419 135 q 373 118 387 135 q 359 81 359 102 q 380 38 359 61 q 420 -6 401 14 q 455 -52 440 -26 q 471 -111 471 -77 q 454 -178 471 -138 z "},"":{"ha":1139,"x_min":20,"x_max":1118,"o":"m 178 -37 l 512 1011 l 585 1011 l 251 -37 l 178 -37 m 20 745 q 65 942 20 880 q 178 1003 109 1003 q 295 941 250 1003 q 340 740 340 880 q 296 541 340 602 q 181 480 252 480 q 66 543 111 480 q 20 745 20 606 m 103 740 q 125 602 103 638 q 184 565 146 565 q 235 597 216 565 q 258 741 258 639 q 236 881 258 844 q 179 919 214 919 q 127 886 145 919 q 103 740 103 843 m 424 228 q 468 425 424 363 q 582 486 513 486 q 698 424 653 486 q 743 222 743 362 q 699 24 743 84 q 585 -37 655 -37 q 469 26 515 -37 q 424 228 424 89 m 507 222 q 528 84 507 121 q 588 47 549 47 q 641 84 620 47 q 661 224 661 121 q 640 364 661 327 q 582 401 618 401 q 530 369 549 401 q 507 222 507 326 m 799 228 q 843 425 799 363 q 957 486 888 486 q 1073 424 1028 486 q 1118 222 1118 362 q 1074 24 1118 84 q 960 -37 1030 -37 q 844 26 890 -37 q 799 228 799 89 m 882 222 q 903 84 882 121 q 963 47 925 47 q 1016 84 995 47 q 1036 224 1036 121 q 1015 364 1036 327 q 958 401 993 401 q 905 369 924 401 q 882 222 882 326 z "},"":{"ha":1013,"x_min":14,"x_max":996,"o":"m 677 167 l 602 361 l 281 361 l 236 245 q 218 154 218 201 q 247 74 218 109 q 328 37 276 39 l 328 0 l 14 0 l 14 37 q 183 218 119 53 l 418 819 q 379 862 399 851 q 319 878 359 873 l 319 911 l 482 966 l 545 966 l 859 165 q 913 74 886 98 q 996 37 940 50 l 996 0 l 593 0 l 593 37 q 671 54 645 43 q 697 96 697 64 q 677 167 697 123 m 297 404 l 585 404 l 440 770 l 297 404 m 739 192 l 497 806 q 460 871 479 852 q 408 890 441 890 q 376 888 389 890 q 426 852 409 875 q 457 790 442 829 l 697 176 q 720 92 720 122 q 712 63 720 72 q 682 37 705 54 l 697 37 q 746 54 729 37 q 764 94 764 71 q 739 192 764 127 m 86 37 l 216 37 q 174 121 174 71 q 175 143 174 135 q 138 85 157 109 q 86 37 119 62 m 318 1072 l 269 1072 l 440 1284 l 558 1284 l 714 1072 l 637 1072 l 472 1183 l 318 1072 m 632 1101 l 507 1246 l 439 1246 l 317 1096 l 472 1210 l 632 1101 z "},"":{"ha":970,"x_min":32,"x_max":951,"o":"m 351 473 l 351 175 q 358 98 351 125 q 385 57 366 71 q 439 41 404 44 q 536 37 475 37 q 670 60 611 37 q 782 127 730 83 q 897 245 835 172 l 951 245 l 867 0 l 32 0 l 32 37 q 124 48 92 39 q 169 78 155 57 q 182 139 182 100 l 182 810 q 170 879 182 857 q 128 908 157 901 q 32 920 99 916 l 32 957 l 833 957 l 916 741 l 867 741 q 771 830 827 790 q 644 895 714 871 q 496 920 574 920 q 403 906 434 920 q 361 869 372 893 q 351 807 351 846 l 351 511 l 488 511 q 668 675 666 511 l 715 675 l 715 315 l 673 315 q 627 436 665 398 q 510 473 589 473 l 351 473 m 799 37 l 846 155 q 773 91 806 112 q 681 37 741 69 l 799 37 m 660 429 l 660 562 q 564 496 633 517 q 623 471 601 486 q 660 429 644 457 m 770 920 l 647 920 q 737 879 698 903 q 821 822 777 855 l 770 920 m 204 804 l 204 149 q 193 76 204 99 q 158 37 181 53 q 231 67 214 38 q 248 160 248 96 l 248 817 q 228 893 248 874 q 158 913 208 911 q 194 877 183 899 q 204 804 204 854 m 277 1072 l 228 1072 l 399 1284 l 517 1284 l 673 1072 l 596 1072 l 431 1183 l 277 1072 m 591 1101 l 465 1246 l 397 1246 l 275 1096 l 431 1210 l 591 1101 z "},"":{"ha":1013,"x_min":14,"x_max":996,"o":"m 677 167 l 602 361 l 281 361 l 236 245 q 218 154 218 201 q 247 74 218 109 q 328 37 276 39 l 328 0 l 14 0 l 14 37 q 183 218 119 53 l 418 819 q 379 862 399 851 q 319 878 359 873 l 319 911 l 482 966 l 545 966 l 859 165 q 913 74 886 98 q 996 37 940 50 l 996 0 l 593 0 l 593 37 q 671 54 645 43 q 697 96 697 64 q 677 167 697 123 m 297 404 l 585 404 l 440 770 l 297 404 m 739 192 l 497 806 q 460 871 479 852 q 408 890 441 890 q 376 888 389 890 q 426 852 409 875 q 457 790 442 829 l 697 176 q 720 92 720 122 q 712 63 720 72 q 682 37 705 54 l 697 37 q 746 54 729 37 q 764 94 764 71 q 739 192 764 127 m 86 37 l 216 37 q 174 121 174 71 q 175 143 174 135 q 138 85 157 109 q 86 37 119 62 m 396 1063 l 358 1063 l 435 1275 l 635 1275 l 396 1063 m 395 1100 l 519 1238 l 443 1238 l 395 1100 z "},"":{"ha":970,"x_min":32,"x_max":951,"o":"m 351 473 l 351 175 q 358 98 351 125 q 385 57 366 71 q 439 41 404 44 q 536 37 475 37 q 670 60 611 37 q 782 127 730 83 q 897 245 835 172 l 951 245 l 867 0 l 32 0 l 32 37 q 124 48 92 39 q 169 78 155 57 q 182 139 182 100 l 182 810 q 170 879 182 857 q 128 908 157 901 q 32 920 99 916 l 32 957 l 833 957 l 916 741 l 867 741 q 771 830 827 790 q 644 895 714 871 q 496 920 574 920 q 403 906 434 920 q 361 869 372 893 q 351 807 351 846 l 351 511 l 488 511 q 668 675 666 511 l 715 675 l 715 315 l 673 315 q 627 436 665 398 q 510 473 589 473 l 351 473 m 799 37 l 846 155 q 773 91 806 112 q 681 37 741 69 l 799 37 m 660 429 l 660 562 q 564 496 633 517 q 623 471 601 486 q 660 429 644 457 m 770 920 l 647 920 q 737 879 698 903 q 821 822 777 855 l 770 920 m 204 804 l 204 149 q 193 76 204 99 q 158 37 181 53 q 231 67 214 38 q 248 160 248 96 l 248 817 q 228 893 248 874 q 158 913 208 911 q 194 877 183 899 q 204 804 204 854 m 385 1173 q 359 1108 385 1131 q 299 1085 332 1085 q 236 1109 262 1085 q 210 1170 210 1133 q 236 1233 210 1208 q 299 1257 262 1257 q 360 1233 335 1257 q 385 1173 385 1209 m 317 1104 q 285 1132 296 1118 q 274 1174 274 1146 q 283 1207 274 1189 q 311 1238 293 1226 q 253 1220 274 1238 q 232 1170 232 1201 q 251 1123 232 1143 q 296 1103 269 1103 q 317 1104 309 1103 m 514 1170 q 541 1233 514 1208 q 603 1257 568 1257 q 664 1231 640 1257 q 689 1170 689 1204 q 665 1110 689 1136 q 602 1084 641 1084 q 539 1109 565 1084 q 514 1170 514 1135 m 616 1104 q 579 1171 579 1131 q 621 1238 579 1211 q 616 1239 618 1238 q 610 1239 614 1239 q 557 1219 578 1239 q 536 1170 536 1198 q 556 1122 536 1141 q 616 1104 576 1103 z "},"":{"ha":970,"x_min":32,"x_max":951,"o":"m 351 473 l 351 175 q 358 98 351 125 q 385 57 366 71 q 439 41 404 44 q 536 37 475 37 q 670 60 611 37 q 782 127 730 83 q 897 245 835 172 l 951 245 l 867 0 l 32 0 l 32 37 q 124 48 92 39 q 169 78 155 57 q 182 139 182 100 l 182 810 q 170 879 182 857 q 128 908 157 901 q 32 920 99 916 l 32 957 l 833 957 l 916 741 l 867 741 q 771 830 827 790 q 644 895 714 871 q 496 920 574 920 q 403 906 434 920 q 361 869 372 893 q 351 807 351 846 l 351 511 l 488 511 q 668 675 666 511 l 715 675 l 715 315 l 673 315 q 627 436 665 398 q 510 473 589 473 l 351 473 m 799 37 l 846 155 q 773 91 806 112 q 681 37 741 69 l 799 37 m 660 429 l 660 562 q 564 496 633 517 q 623 471 601 486 q 660 429 644 457 m 770 920 l 647 920 q 737 879 698 903 q 821 822 777 855 l 770 920 m 204 804 l 204 149 q 193 76 204 99 q 158 37 181 53 q 231 67 214 38 q 248 160 248 96 l 248 817 q 228 893 248 874 q 158 913 208 911 q 194 877 183 899 q 204 804 204 854 m 599 1067 l 555 1067 l 307 1276 l 514 1276 l 599 1067 m 541 1105 l 477 1239 l 382 1239 l 541 1105 z "},"":{"ha":564,"x_min":57,"x_max":509,"o":"m 57 957 l 509 957 l 509 920 q 410 903 445 918 q 372 842 375 888 q 370 797 371 813 q 368 782 368 780 l 368 157 q 377 93 368 117 q 401 59 385 69 q 437 45 416 49 q 509 37 457 41 l 509 0 l 57 0 l 57 37 q 148 50 117 38 q 188 88 179 62 q 197 171 197 114 l 197 777 q 192 857 197 831 q 173 895 187 883 q 135 910 159 906 q 57 920 111 915 l 57 957 m 220 796 l 220 121 q 208 70 220 86 q 165 37 195 54 q 237 52 210 39 q 264 110 264 65 l 264 829 q 245 899 264 876 q 170 920 226 922 q 221 817 221 892 q 221 806 221 811 q 220 796 220 802 m 185 1063 l 147 1063 l 224 1275 l 424 1275 l 185 1063 m 184 1100 l 309 1238 l 232 1238 l 184 1100 z "},"":{"ha":564,"x_min":57,"x_max":509,"o":"m 57 957 l 509 957 l 509 920 q 410 903 445 918 q 372 842 375 888 q 370 797 371 813 q 368 782 368 780 l 368 157 q 377 93 368 117 q 401 59 385 69 q 437 45 416 49 q 509 37 457 41 l 509 0 l 57 0 l 57 37 q 148 50 117 38 q 188 88 179 62 q 197 171 197 114 l 197 777 q 192 857 197 831 q 173 895 187 883 q 135 910 159 906 q 57 920 111 915 l 57 957 m 220 796 l 220 121 q 208 70 220 86 q 165 37 195 54 q 237 52 210 39 q 264 110 264 65 l 264 829 q 245 899 264 876 q 170 920 226 922 q 221 817 221 892 q 221 806 221 811 q 220 796 220 802 m 107 1072 l 58 1072 l 229 1284 l 347 1284 l 503 1072 l 427 1072 l 261 1183 l 107 1072 m 421 1101 l 296 1246 l 228 1246 l 106 1096 l 261 1210 l 421 1101 z "},"":{"ha":564,"x_min":41,"x_max":519,"o":"m 57 957 l 509 957 l 509 920 q 410 903 445 918 q 372 842 375 888 q 370 797 371 813 q 368 782 368 780 l 368 157 q 377 93 368 117 q 401 59 385 69 q 437 45 416 49 q 509 37 457 41 l 509 0 l 57 0 l 57 37 q 148 50 117 38 q 188 88 179 62 q 197 171 197 114 l 197 777 q 192 857 197 831 q 173 895 187 883 q 135 910 159 906 q 57 920 111 915 l 57 957 m 220 796 l 220 121 q 208 70 220 86 q 165 37 195 54 q 237 52 210 39 q 264 110 264 65 l 264 829 q 245 899 264 876 q 170 920 226 922 q 221 817 221 892 q 221 806 221 811 q 220 796 220 802 m 216 1173 q 189 1108 216 1131 q 130 1085 163 1085 q 67 1109 93 1085 q 41 1170 41 1133 q 67 1233 41 1208 q 130 1257 93 1257 q 191 1233 165 1257 q 216 1173 216 1209 m 147 1104 q 115 1132 126 1118 q 104 1174 104 1146 q 114 1207 104 1189 q 142 1238 123 1226 q 83 1220 104 1238 q 62 1170 62 1201 q 81 1123 62 1143 q 127 1103 100 1103 q 147 1104 139 1103 m 345 1170 q 371 1233 345 1208 q 433 1257 398 1257 q 495 1231 470 1257 q 519 1170 519 1204 q 495 1110 519 1136 q 432 1084 471 1084 q 370 1109 395 1084 q 345 1170 345 1135 m 446 1104 q 410 1171 410 1131 q 452 1238 410 1211 q 447 1239 449 1238 q 440 1239 444 1239 q 388 1219 409 1239 q 367 1170 367 1198 q 387 1122 367 1141 q 446 1104 406 1103 z "},"":{"ha":564,"x_min":57,"x_max":509,"o":"m 57 957 l 509 957 l 509 920 q 410 903 445 918 q 372 842 375 888 q 370 797 371 813 q 368 782 368 780 l 368 157 q 377 93 368 117 q 401 59 385 69 q 437 45 416 49 q 509 37 457 41 l 509 0 l 57 0 l 57 37 q 148 50 117 38 q 188 88 179 62 q 197 171 197 114 l 197 777 q 192 857 197 831 q 173 895 187 883 q 135 910 159 906 q 57 920 111 915 l 57 957 m 220 796 l 220 121 q 208 70 220 86 q 165 37 195 54 q 237 52 210 39 q 264 110 264 65 l 264 829 q 245 899 264 876 q 170 920 226 922 q 221 817 221 892 q 221 806 221 811 q 220 796 220 802 m 429 1067 l 385 1067 l 138 1276 l 345 1276 l 429 1067 m 371 1105 l 307 1239 l 213 1239 l 371 1105 z "},"":{"ha":1129,"x_min":60,"x_max":1074,"o":"m 60 482 q 71 598 60 543 q 105 703 83 653 q 161 795 127 752 q 236 872 195 839 q 331 931 280 908 q 441 965 382 954 q 568 975 500 975 q 777 937 682 975 q 937 829 871 898 q 1038 672 1003 761 q 1074 484 1074 583 q 1035 285 1074 377 q 924 125 996 193 q 756 19 852 57 q 549 -18 660 -18 q 353 19 444 -18 q 197 122 262 56 q 96 281 132 189 q 60 482 60 374 m 248 554 q 272 337 248 436 q 342 166 296 238 q 449 57 387 95 q 583 20 511 20 q 699 46 644 20 q 795 124 753 72 q 859 253 836 176 q 882 432 882 330 q 856 638 882 543 q 783 799 829 732 q 673 901 736 865 q 538 937 610 937 q 421 910 475 937 q 329 832 367 883 q 269 711 290 782 q 248 554 248 641 m 311 900 q 140 723 199 831 q 82 481 82 616 q 120 276 82 369 q 232 118 158 184 q 415 16 306 52 q 203 202 282 83 q 125 493 125 321 q 145 648 125 579 q 208 779 166 718 q 311 900 250 840 m 665 928 q 796 815 742 887 q 877 644 850 744 q 904 425 904 545 q 873 229 904 312 q 786 82 842 146 q 878 177 842 124 q 930 298 913 231 q 947 450 947 366 q 914 673 947 572 q 816 842 880 775 q 665 928 752 909 m 469 1063 l 431 1063 l 507 1275 l 707 1275 l 469 1063 m 467 1100 l 592 1238 l 515 1238 l 467 1100 z "},"":{"ha":1129,"x_min":60,"x_max":1074,"o":"m 60 482 q 71 598 60 543 q 105 703 83 653 q 161 795 127 752 q 236 872 195 839 q 331 931 280 908 q 441 965 382 954 q 568 975 500 975 q 777 937 682 975 q 937 829 871 898 q 1038 672 1003 761 q 1074 484 1074 583 q 1035 285 1074 377 q 924 125 996 193 q 756 19 852 57 q 549 -18 660 -18 q 353 19 444 -18 q 197 122 262 56 q 96 281 132 189 q 60 482 60 374 m 248 554 q 272 337 248 436 q 342 166 296 238 q 449 57 387 95 q 583 20 511 20 q 699 46 644 20 q 795 124 753 72 q 859 253 836 176 q 882 432 882 330 q 856 638 882 543 q 783 799 829 732 q 673 901 736 865 q 538 937 610 937 q 421 910 475 937 q 329 832 367 883 q 269 711 290 782 q 248 554 248 641 m 311 900 q 140 723 199 831 q 82 481 82 616 q 120 276 82 369 q 232 118 158 184 q 415 16 306 52 q 203 202 282 83 q 125 493 125 321 q 145 648 125 579 q 208 779 166 718 q 311 900 250 840 m 665 928 q 796 815 742 887 q 877 644 850 744 q 904 425 904 545 q 873 229 904 312 q 786 82 842 146 q 878 177 842 124 q 930 298 913 231 q 947 450 947 366 q 914 673 947 572 q 816 842 880 775 q 665 928 752 909 m 391 1072 l 342 1072 l 513 1284 l 631 1284 l 787 1072 l 710 1072 l 545 1183 l 391 1072 m 705 1101 l 579 1246 l 511 1246 l 389 1096 l 545 1210 l 705 1101 z "},"":{"ha":1129,"x_min":60,"x_max":1074,"o":"m 60 482 q 71 598 60 543 q 105 703 83 653 q 161 795 127 752 q 236 872 195 839 q 331 931 280 908 q 441 965 382 954 q 568 975 500 975 q 777 937 682 975 q 937 829 871 898 q 1038 672 1003 761 q 1074 484 1074 583 q 1035 285 1074 377 q 924 125 996 193 q 756 19 852 57 q 549 -18 660 -18 q 353 19 444 -18 q 197 122 262 56 q 96 281 132 189 q 60 482 60 374 m 248 554 q 272 337 248 436 q 342 166 296 238 q 449 57 387 95 q 583 20 511 20 q 699 46 644 20 q 795 124 753 72 q 859 253 836 176 q 882 432 882 330 q 856 638 882 543 q 783 799 829 732 q 673 901 736 865 q 538 937 610 937 q 421 910 475 937 q 329 832 367 883 q 269 711 290 782 q 248 554 248 641 m 311 900 q 140 723 199 831 q 82 481 82 616 q 120 276 82 369 q 232 118 158 184 q 415 16 306 52 q 203 202 282 83 q 125 493 125 321 q 145 648 125 579 q 208 779 166 718 q 311 900 250 840 m 665 928 q 796 815 742 887 q 877 644 850 744 q 904 425 904 545 q 873 229 904 312 q 786 82 842 146 q 878 177 842 124 q 930 298 913 231 q 947 450 947 366 q 914 673 947 572 q 816 842 880 775 q 665 928 752 909 m 713 1067 l 669 1067 l 421 1276 l 628 1276 l 713 1067 m 654 1105 l 591 1239 l 496 1239 l 654 1105 z "},"":{"ha":1129,"x_min":35,"x_max":1096,"o":"m 186 292 l 186 808 q 171 881 186 859 q 127 909 155 903 q 35 920 99 914 l 35 957 l 494 957 l 494 920 q 413 910 440 916 q 371 882 386 903 q 357 815 357 861 l 357 277 q 390 148 357 202 q 486 65 424 93 q 629 37 547 37 q 780 69 715 37 q 882 165 845 101 q 918 321 918 230 l 918 633 q 903 800 918 739 q 850 888 887 860 q 747 920 814 916 l 747 957 l 1096 957 l 1096 920 q 1006 878 1036 911 q 966 788 976 844 q 956 652 956 733 l 956 301 q 929 169 956 229 q 851 67 902 110 q 729 3 800 25 q 566 -18 657 -18 q 243 104 347 -18 q 198 187 211 144 q 186 292 186 231 m 253 288 l 253 829 q 157 920 253 930 q 208 822 208 899 l 208 281 q 276 99 208 165 q 479 4 344 34 q 391 48 427 26 q 322 101 354 69 q 272 180 290 133 q 253 288 253 227 m 978 920 l 839 920 q 918 812 901 891 q 940 877 926 851 q 978 920 953 903 m 482 1063 l 444 1063 l 521 1275 l 721 1275 l 482 1063 m 481 1100 l 606 1238 l 529 1238 l 481 1100 z "},"":{"ha":1129,"x_min":35,"x_max":1096,"o":"m 186 292 l 186 808 q 171 881 186 859 q 127 909 155 903 q 35 920 99 914 l 35 957 l 494 957 l 494 920 q 413 910 440 916 q 371 882 386 903 q 357 815 357 861 l 357 277 q 390 148 357 202 q 486 65 424 93 q 629 37 547 37 q 780 69 715 37 q 882 165 845 101 q 918 321 918 230 l 918 633 q 903 800 918 739 q 850 888 887 860 q 747 920 814 916 l 747 957 l 1096 957 l 1096 920 q 1006 878 1036 911 q 966 788 976 844 q 956 652 956 733 l 956 301 q 929 169 956 229 q 851 67 902 110 q 729 3 800 25 q 566 -18 657 -18 q 243 104 347 -18 q 198 187 211 144 q 186 292 186 231 m 253 288 l 253 829 q 157 920 253 930 q 208 822 208 899 l 208 281 q 276 99 208 165 q 479 4 344 34 q 391 48 427 26 q 322 101 354 69 q 272 180 290 133 q 253 288 253 227 m 978 920 l 839 920 q 918 812 901 891 q 940 877 926 851 q 978 920 953 903 m 404 1072 l 355 1072 l 526 1284 l 644 1284 l 800 1072 l 724 1072 l 558 1183 l 404 1072 m 718 1101 l 593 1246 l 525 1246 l 403 1096 l 558 1210 l 718 1101 z "},"":{"ha":1129,"x_min":35,"x_max":1096,"o":"m 186 292 l 186 808 q 171 881 186 859 q 127 909 155 903 q 35 920 99 914 l 35 957 l 494 957 l 494 920 q 413 910 440 916 q 371 882 386 903 q 357 815 357 861 l 357 277 q 390 148 357 202 q 486 65 424 93 q 629 37 547 37 q 780 69 715 37 q 882 165 845 101 q 918 321 918 230 l 918 633 q 903 800 918 739 q 850 888 887 860 q 747 920 814 916 l 747 957 l 1096 957 l 1096 920 q 1006 878 1036 911 q 966 788 976 844 q 956 652 956 733 l 956 301 q 929 169 956 229 q 851 67 902 110 q 729 3 800 25 q 566 -18 657 -18 q 243 104 347 -18 q 198 187 211 144 q 186 292 186 231 m 253 288 l 253 829 q 157 920 253 930 q 208 822 208 899 l 208 281 q 276 99 208 165 q 479 4 344 34 q 391 48 427 26 q 322 101 354 69 q 272 180 290 133 q 253 288 253 227 m 978 920 l 839 920 q 918 812 901 891 q 940 877 926 851 q 978 920 953 903 m 726 1067 l 682 1067 l 435 1276 l 642 1276 l 726 1067 m 668 1105 l 604 1239 l 510 1239 l 668 1105 z "},"":{"ha":376,"x_min":39,"x_max":355,"o":"m 269 604 l 269 114 q 276 67 269 83 q 300 45 282 51 q 355 37 318 39 l 355 0 l 39 0 l 39 37 q 90 47 75 38 q 110 74 106 57 q 114 131 114 92 l 114 421 q 94 475 114 450 q 39 513 75 500 l 39 534 l 241 604 l 269 604 m 136 419 l 136 114 q 129 68 136 83 q 103 37 122 53 l 118 37 q 180 110 180 37 l 180 428 q 159 495 180 471 q 104 518 138 518 q 79 517 89 518 q 136 419 136 487 z "},"":{"ha":463,"x_min":8,"x_max":453,"o":"m 57 701 l 8 701 l 179 913 l 297 913 l 453 701 l 376 701 l 211 812 l 57 701 m 371 730 l 245 875 l 178 875 l 56 725 l 211 839 l 371 730 z "},"":{"ha":463,"x_min":-20,"x_max":484,"o":"m 435 903 l 435 920 l 482 920 q 483 906 483 913 q 484 892 484 900 q 463 801 484 841 q 406 741 441 762 q 328 720 370 720 q 261 730 288 720 q 172 771 235 741 q 85 800 109 800 q 40 780 58 800 q 21 720 22 760 l -18 720 q -19 736 -18 729 q -20 751 -19 743 q -2 832 -20 794 q 50 895 16 871 q 132 918 84 918 q 200 908 165 918 q 268 882 235 897 q 332 855 301 867 q 382 843 363 843 q 421 859 407 843 q 435 903 435 875 m 353 781 q 299 788 323 781 q 227 817 274 796 q 155 847 179 838 q 110 856 132 856 q 35 802 60 856 q 85 823 61 823 q 131 814 108 823 q 199 783 153 805 q 272 752 244 762 q 329 743 300 743 q 446 812 405 743 q 401 788 421 796 q 353 781 380 781 z "},"":{"ha":463,"x_min":43,"x_max":419,"o":"m 43 864 l 419 864 l 419 739 l 43 739 l 43 864 m 397 762 l 397 807 l 65 807 l 65 762 l 397 762 z "},"":{"ha":463,"x_min":-8,"x_max":469,"o":"m -8 916 l 25 916 q 104 843 52 870 q 229 817 157 817 q 358 842 311 817 q 439 916 406 867 l 469 916 q 395 758 458 814 q 231 701 331 701 q 69 756 132 701 q -8 916 6 811 m 418 838 q 335 789 386 806 q 232 772 285 772 q 126 788 172 772 q 45 838 80 804 q 91 776 62 800 q 155 738 119 751 q 232 725 191 725 q 418 838 363 725 z "},"":{"ha":463,"x_min":144,"x_max":319,"o":"m 144 799 q 171 862 144 837 q 233 886 197 886 q 295 860 271 886 q 319 799 319 834 q 295 739 319 765 q 232 713 271 713 q 170 738 195 713 q 144 799 144 763 m 245 733 q 210 800 210 760 q 252 867 210 841 q 247 868 249 867 q 240 868 244 868 q 188 848 210 868 q 167 799 167 827 q 186 751 167 770 q 245 733 206 732 z "},"":{"ha":463,"x_min":103,"x_max":355,"o":"m 355 768 q 317 691 355 722 q 228 661 279 661 q 138 692 172 661 q 103 770 103 723 q 137 849 103 817 q 225 880 170 880 q 289 866 259 880 q 337 827 319 852 q 355 768 355 802 m 207 694 l 216 694 q 276 715 254 694 q 298 770 298 736 q 207 846 298 842 q 254 770 254 816 q 207 694 254 723 m 232 766 q 216 816 232 795 q 176 836 200 836 q 140 819 155 836 q 125 771 125 801 q 139 723 125 741 q 178 705 154 705 q 216 723 201 705 q 232 766 232 740 z "},"":{"ha":463,"x_min":77,"x_max":385,"o":"m 224 0 l 260 0 l 237 -52 q 347 -89 309 -54 q 385 -171 385 -123 q 318 -287 385 -241 q 126 -334 252 -334 q 77 -328 117 -334 l 83 -285 q 182 -255 149 -271 q 216 -200 216 -239 q 200 -169 216 -182 q 155 -157 184 -156 l 224 0 m 216 -106 l 196 -140 q 239 -197 239 -155 q 172 -286 239 -249 q 259 -253 228 -279 q 290 -189 290 -226 q 281 -153 290 -170 q 256 -123 273 -136 q 216 -106 239 -111 z "},"":{"ha":463,"x_min":56,"x_max":561,"o":"m 93 692 l 56 692 l 132 904 l 332 904 l 93 692 m 92 729 l 216 867 l 140 867 l 92 729 m 322 692 l 285 692 l 361 904 l 561 904 l 322 692 m 319 729 l 446 867 l 370 867 l 319 729 z "},"":{"ha":463,"x_min":83,"x_max":396,"o":"m 396 -281 l 396 -322 q 321 -325 351 -325 q 145 -282 207 -325 q 83 -176 83 -240 q 110 -83 83 -129 q 184 20 136 -37 l 267 20 q 256 -8 262 9 q 241 -50 249 -25 q 230 -94 234 -74 q 227 -138 227 -113 q 247 -214 227 -181 q 303 -263 267 -246 q 385 -281 340 -281 l 396 -281 m 214 -11 l 184 -11 q 144 -67 160 -43 q 117 -119 128 -91 q 106 -178 106 -147 q 133 -245 106 -218 q 214 -286 160 -273 q 349 -301 269 -300 q 238 -272 283 -292 q 171 -227 193 -253 q 150 -171 150 -201 q 159 -123 150 -149 q 185 -65 168 -98 q 214 -11 202 -33 z "},"":{"ha":463,"x_min":14,"x_max":457,"o":"m 457 911 l 298 701 l 183 701 l 14 911 l 62 911 l 216 800 l 380 911 l 457 911 m 182 739 l 250 739 l 375 882 l 215 774 l 62 888 l 182 739 z "},"":{"ha":839,"x_min":78,"x_max":777,"o":"m 89 345 l 134 345 q 223 164 171 237 q 338 56 276 92 q 468 21 400 21 q 613 74 553 21 q 673 210 673 127 q 633 330 673 287 q 538 390 593 373 q 391 422 482 408 q 262 450 300 437 q 162 506 203 471 q 99 592 121 542 q 78 699 78 642 q 97 803 78 753 q 151 892 116 853 q 235 953 185 930 q 346 975 285 975 q 454 963 390 975 q 547 950 518 950 q 616 966 584 950 l 668 966 l 697 688 l 650 688 q 510 878 583 812 q 339 943 437 943 q 248 921 290 943 q 181 858 206 898 q 155 770 155 818 q 201 666 155 702 q 338 612 248 630 q 500 581 429 593 q 614 547 572 568 q 734 442 691 509 q 777 290 777 375 q 737 138 777 209 q 627 25 698 68 q 468 -17 555 -17 q 393 -9 418 -17 q 307 20 368 -2 q 214 41 246 41 q 127 0 159 41 l 89 0 l 89 345 m 623 783 l 600 913 q 555 905 578 905 q 503 913 531 905 q 550 873 530 895 q 593 821 570 852 q 623 783 615 791 m 111 218 l 111 37 q 148 71 131 63 q 199 77 164 78 q 166 116 176 103 q 142 153 157 128 q 111 218 127 178 m 111 778 q 100 694 100 726 q 112 622 100 659 q 148 554 124 586 q 201 501 172 522 q 290 463 241 474 q 430 436 338 452 q 558 407 523 421 q 660 334 623 383 q 696 220 696 286 q 668 117 696 171 q 724 252 724 174 q 683 377 724 332 q 581 445 642 423 q 415 486 520 467 q 307 505 310 505 q 161 592 211 530 q 111 734 111 654 q 111 760 111 749 q 111 778 111 770 m 644 1282 l 486 1072 l 370 1072 l 201 1282 l 250 1282 l 404 1171 l 568 1282 l 644 1282 m 369 1110 l 437 1110 l 562 1253 l 402 1145 l 250 1259 l 369 1110 z "},"":{"ha":521,"x_min":32,"x_max":494,"o":"m 43 33 l 43 211 l 79 211 q 187 73 131 119 q 297 26 243 26 q 359 49 332 26 q 386 100 386 71 q 366 151 386 137 q 218 229 289 202 q 32 427 32 298 q 90 553 32 503 q 248 604 149 604 q 341 594 298 604 q 437 564 385 583 l 444 403 l 411 403 q 302 526 356 484 q 196 567 248 567 q 142 546 163 567 q 121 498 121 524 q 147 446 121 465 q 258 389 174 427 q 407 315 343 351 q 471 256 447 294 q 494 174 494 218 q 464 77 494 121 q 381 7 434 33 q 261 -18 328 -18 q 43 33 167 -18 m 68 151 l 68 66 q 180 31 102 52 q 118 83 138 60 q 68 151 98 106 m 400 65 q 427 96 418 82 q 436 134 436 110 q 330 249 436 206 q 180 318 235 288 q 101 381 125 349 q 77 461 77 413 q 93 526 77 490 q 65 483 75 505 q 54 431 54 462 q 100 326 54 366 q 237 245 146 286 q 368 178 328 204 q 408 106 408 152 q 400 65 408 89 m 395 463 l 389 541 q 319 566 344 559 q 245 572 294 572 q 327 531 296 555 q 395 463 357 508 m 486 911 l 328 701 l 212 701 l 43 911 l 92 911 l 245 800 l 410 911 l 486 911 m 211 739 l 279 739 l 404 882 l 244 774 l 92 888 l 211 739 z "},"":{"ha":361,"x_min":127,"x_max":234,"o":"m 234 1011 l 234 475 l 127 475 l 127 1011 l 234 1011 m 234 244 l 234 -292 l 127 -292 l 127 244 l 234 244 z "},"":{"ha":1186,"x_min":71,"x_max":1128,"o":"m 208 147 l 208 465 l 71 465 l 71 519 l 208 519 l 208 829 q 176 897 208 880 q 71 920 143 915 l 71 957 l 631 957 q 832 921 740 957 q 990 820 924 885 q 1092 665 1056 754 q 1128 472 1128 575 q 1091 284 1128 371 q 985 134 1054 198 q 819 35 916 71 q 608 0 722 0 l 71 0 l 71 37 q 156 48 127 39 q 196 79 184 56 q 208 147 208 102 m 627 465 l 379 465 l 379 154 q 386 96 379 118 q 409 61 393 74 q 452 43 425 48 q 525 37 479 37 q 657 53 599 37 q 768 106 715 68 q 866 202 831 151 q 917 320 901 254 q 933 468 933 387 q 791 831 933 710 q 667 899 735 879 q 505 920 598 920 q 415 901 441 920 q 384 847 389 882 q 379 724 379 812 l 379 519 l 627 519 l 627 465 m 275 143 l 275 765 q 260 879 275 846 q 183 913 245 912 q 221 869 212 891 q 231 793 231 848 l 231 160 q 226 94 231 118 q 212 58 221 71 q 183 37 202 46 q 255 62 235 37 q 275 143 275 87 m 696 37 q 852 97 783 46 q 961 241 921 148 q 1002 465 1002 335 q 982 636 1002 559 q 926 771 963 713 q 835 864 888 829 q 770 896 804 885 q 696 914 736 907 q 956 461 956 812 q 928 275 956 356 q 842 134 901 193 q 696 37 784 75 z "},"":{"ha":708,"x_min":40,"x_max":665,"o":"m 272 800 l 89 677 l 66 710 l 243 828 q 132 914 197 873 l 192 978 q 334 888 313 903 l 467 978 l 489 946 l 364 861 q 441 793 404 831 q 518 707 479 755 q 596 586 562 652 q 648 454 631 520 q 665 321 665 388 q 627 155 665 233 q 516 29 589 77 q 347 -18 444 -18 q 218 6 275 -18 q 121 75 161 31 q 61 177 81 119 q 40 297 40 234 q 78 454 40 384 q 182 564 117 524 q 322 604 247 604 q 380 597 355 604 q 433 578 406 591 q 272 800 374 705 m 199 926 l 180 907 q 327 777 264 845 q 433 629 390 708 q 497 459 475 551 q 518 264 518 368 q 499 123 518 176 q 443 33 481 71 q 510 99 482 61 q 552 189 538 138 q 566 309 566 240 q 551 445 566 374 q 510 572 536 515 q 435 701 483 635 q 328 824 387 767 q 199 926 269 881 m 496 277 q 455 494 496 420 q 342 567 414 567 q 210 323 210 567 q 228 164 210 231 q 281 62 246 97 q 364 26 317 26 q 461 90 427 26 q 496 277 496 153 m 267 579 q 180 537 218 564 q 116 475 142 511 q 76 393 90 438 q 62 296 62 347 q 87 169 62 227 q 162 71 113 111 q 279 11 211 31 q 185 85 224 43 q 129 181 147 128 q 110 297 110 233 q 267 579 110 484 z "},"":{"ha":1013,"x_min":20,"x_max":994,"o":"m 692 920 l 692 957 l 994 957 l 994 920 q 933 893 964 916 q 870 829 903 871 q 803 728 838 787 l 603 385 l 603 140 q 635 59 603 75 q 747 37 667 43 l 747 0 l 290 0 l 290 37 l 302 37 q 390 53 361 37 q 426 92 419 68 q 433 154 433 115 l 433 351 l 144 836 q 97 901 119 880 q 20 920 75 922 l 20 957 l 467 957 l 467 920 q 372 909 406 918 q 339 864 339 901 q 387 755 339 836 l 583 429 l 714 650 q 767 753 750 710 q 785 833 785 796 q 761 893 785 867 q 699 920 736 920 l 692 920 m 807 838 l 807 822 q 841 877 824 859 q 885 920 857 895 l 766 920 q 807 838 807 894 m 498 370 l 216 844 q 172 905 189 891 q 125 920 155 920 l 104 920 q 134 896 122 912 q 167 844 146 880 l 456 359 l 456 125 q 443 70 456 86 q 393 37 429 54 l 422 37 q 482 58 465 37 q 498 122 498 79 l 498 370 m 424 1063 l 386 1063 l 463 1275 l 663 1275 l 424 1063 m 422 1100 l 547 1238 l 471 1238 l 422 1100 z "},"":{"ha":694,"x_min":16,"x_max":681,"o":"m 447 593 l 681 593 l 681 558 q 625 523 648 544 q 586 476 602 503 q 551 409 570 450 q 514 319 532 367 l 332 -144 q 136 -334 258 -334 q 67 -312 96 -334 q 39 -258 39 -290 q 61 -213 39 -231 q 115 -195 84 -195 q 148 -202 130 -195 q 183 -217 166 -210 q 215 -225 201 -225 q 296 -132 260 -225 l 332 -35 l 127 440 q 110 483 119 461 q 88 522 100 505 q 59 548 77 538 q 16 558 41 557 l 16 593 l 368 593 l 368 558 q 304 546 326 555 q 282 507 282 536 q 301 432 282 478 l 414 172 l 498 380 q 515 468 515 421 q 447 558 515 544 l 447 593 m 606 555 l 498 555 q 526 522 519 539 q 536 468 533 505 q 567 521 552 503 q 606 555 582 540 m 346 0 l 368 54 l 193 460 q 160 526 174 506 q 129 553 147 546 q 82 558 111 561 q 119 515 109 534 q 150 447 129 496 l 346 0 m 160 -313 q 104 -260 104 -300 q 138 -218 104 -235 q 109 -212 117 -212 q 74 -225 87 -212 q 61 -257 61 -239 q 87 -300 61 -284 q 160 -313 113 -317 m 250 692 l 212 692 l 289 904 l 489 904 l 250 692 m 249 729 l 374 867 l 297 867 l 249 729 z "},"":{"ha":956,"x_min":39,"x_max":900,"o":"m 192 205 l 192 753 q 185 859 192 827 q 147 905 179 890 q 39 920 115 920 l 39 957 l 532 957 l 532 920 q 473 917 511 919 q 412 907 435 915 q 375 880 390 900 q 361 822 361 860 l 361 741 l 505 741 q 654 729 524 741 q 763 693 705 725 q 861 605 821 661 q 900 479 900 550 q 861 353 900 408 q 763 266 821 298 q 654 229 705 233 q 505 218 536 218 l 361 218 l 361 140 q 388 65 363 91 q 478 39 413 39 q 532 37 518 39 l 532 0 l 39 0 l 39 37 l 52 37 q 135 47 106 37 q 176 76 164 57 q 190 119 187 94 q 192 205 192 144 m 214 751 l 214 121 q 199 68 214 86 q 157 37 185 50 l 182 37 q 257 109 257 37 l 257 729 q 254 858 257 827 q 231 903 251 889 q 157 920 211 916 q 197 892 186 906 q 211 852 208 879 q 214 751 214 825 m 361 542 l 361 256 l 456 256 q 599 276 542 256 q 686 346 656 297 q 717 478 717 395 q 633 664 717 602 q 567 695 602 687 q 482 703 532 703 q 399 686 425 703 q 367 638 374 670 q 361 542 361 606 m 615 262 q 741 327 700 276 q 782 475 782 378 q 741 627 782 576 q 619 694 701 677 q 685 643 658 675 q 726 568 712 611 q 739 475 739 526 q 725 373 739 414 q 682 306 710 332 q 615 262 654 279 z "},"":{"ha":766,"x_min":18,"x_max":728,"o":"m 342 -294 l 376 -294 l 376 -332 l 22 -332 l 22 -293 q 74 -288 57 -292 q 100 -272 91 -285 q 109 -233 109 -259 l 109 774 q 100 832 109 809 q 71 869 91 854 q 18 896 52 884 l 18 924 l 237 972 l 264 972 l 264 530 q 355 585 311 566 q 454 604 399 604 q 557 581 507 604 q 645 517 607 558 q 705 419 682 477 q 728 297 728 361 q 686 136 728 208 q 570 23 644 64 q 406 -17 496 -17 q 264 14 334 -17 l 264 -221 q 269 -263 264 -248 q 292 -287 275 -279 q 342 -294 310 -294 m 175 -197 l 175 781 q 151 872 175 844 q 66 896 126 900 q 117 852 104 876 q 131 777 131 828 l 131 -228 q 125 -271 131 -255 q 102 -300 119 -287 q 161 -273 148 -296 q 175 -197 175 -251 m 264 481 l 264 81 q 386 21 328 21 q 471 50 433 21 q 533 136 510 78 q 557 278 557 194 q 534 417 557 360 q 473 502 512 473 q 386 530 434 530 q 264 481 327 530 m 478 31 q 624 282 624 83 q 607 406 624 351 q 562 495 589 460 q 502 549 534 530 q 436 567 469 567 q 372 553 416 567 q 525 480 471 552 q 579 278 579 409 q 555 130 579 189 q 478 31 530 71 z "},"":{"ha":791,"x_min":104,"x_max":692,"o":"m 168 754 l 398 524 l 629 753 l 691 691 l 461 460 l 692 230 l 629 167 l 398 397 l 169 169 l 106 231 l 335 460 l 104 691 l 168 754 z "},"":{"ha":419,"x_min":87,"x_max":338,"o":"m 267 975 l 267 554 q 271 518 267 529 q 290 503 275 507 q 338 496 305 498 l 338 468 l 87 468 l 87 496 q 145 508 134 498 q 157 547 157 519 l 157 844 q 143 880 157 873 q 87 890 129 887 l 87 924 q 178 938 148 926 q 232 975 208 950 l 267 975 m 158 900 l 150 900 q 177 876 170 890 q 183 836 183 862 l 183 562 q 177 524 183 537 q 150 500 170 511 q 195 508 180 498 q 210 550 210 518 l 210 848 q 197 888 210 877 q 158 900 185 900 z "}}}
